M48
; DRILL file {KiCad 8.0.6} date 2024-11-28T17:20:25+0100
; FORMAT={-:-/ absolute / inch / decimal}
; #@! TF.CreationDate,2024-11-28T17:20:25+01:00
; #@! TF.GenerationSoftware,Kicad,Pcbnew,8.0.6
; #@! TF.FileFunction,Plated,1,4,PTH
FMAT,2
INCH
; #@! TA.AperFunction,Plated,PTH,ViaDrill
T1C0.0157
; #@! TA.AperFunction,Plated,PTH,ComponentDrill
T2C0.0315
; #@! TA.AperFunction,Plated,PTH,ComponentDrill
T3C0.0354
; #@! TA.AperFunction,Plated,PTH,ComponentDrill
T4C0.0374
; #@! TA.AperFunction,Plated,PTH,ComponentDrill
T5C0.0394
; #@! TA.AperFunction,Plated,PTH,ComponentDrill
T6C0.0472
; #@! TA.AperFunction,Plated,PTH,ComponentDrill
T7C0.0591
; #@! TA.AperFunction,Plated,PTH,ComponentDrill
T8C0.0630
; #@! TA.AperFunction,Plated,PTH,ComponentDrill
T9C0.0787
; #@! TA.AperFunction,Plated,PTH,ComponentDrill
T10C0.0866
%
G90
G05
T1
X4.85Y-1.75
X5.1Y-1.5647
X5.3337Y-1.65
X5.35Y-2.0
T2
X3.95Y-1.15
X3.95Y-1.25
X3.95Y-1.35
X3.95Y-1.45
X3.95Y-1.55
X3.95Y-1.65
X3.95Y-1.75
X3.95Y-1.85
X3.95Y-1.95
X3.95Y-2.05
X3.95Y-2.15
X3.95Y-2.25
X3.95Y-2.35
X3.95Y-2.45
X3.95Y-2.55
X3.95Y-2.65
X3.95Y-2.75
X3.95Y-2.85
X3.95Y-2.95
X3.9752Y-4.1701
X3.9752Y-4.8866
X4.9499Y-2.8499
X4.9499Y-2.9499
X4.95Y-1.15
X4.95Y-1.25
X4.95Y-1.35
X4.95Y-1.45
X4.95Y-1.55
X4.95Y-1.65
X4.95Y-1.75
X4.95Y-1.85
X4.95Y-1.95
X4.95Y-2.05
X4.95Y-2.15
X4.95Y-2.25
X4.95Y-2.35
X4.95Y-2.45
X4.95Y-2.55
X4.95Y-2.65
X4.95Y-2.75
X5.25Y-2.5554
X5.25Y-2.7523
X5.25Y-2.9554
X5.25Y-3.1523
X5.55Y-4.1701
X5.55Y-4.8866
T3
X3.9685Y-3.263
X3.9685Y-3.8535
X4.9528Y-3.263
X4.9528Y-3.8535
X5.1953Y-1.7618
X5.1953Y-2.1654
X5.2Y-1.3386
X5.2953Y-1.7618
X5.2953Y-2.1654
X5.3Y-1.3386
T4
X2.35Y-2.45
X2.35Y-3.55
X2.35Y-3.65
X2.35Y-3.75
X2.35Y-3.85
X2.35Y-3.95
X2.35Y-4.05
X2.35Y-4.15
X2.35Y-4.25
X2.35Y-4.35
X2.35Y-4.45
X2.35Y-4.55
X2.95Y-1.55
X2.95Y-1.65
X2.95Y-1.75
X2.95Y-1.85
X2.95Y-1.95
X2.95Y-2.05
X2.95Y-2.15
X2.95Y-2.25
X2.95Y-2.35
X2.95Y-2.45
X2.95Y-2.55
X2.95Y-3.65
X3.15Y-2.4
X3.15Y-3.6
X3.15Y-3.7
X3.15Y-3.8
X3.15Y-3.9
X3.15Y-4.0
X3.15Y-4.1
X3.15Y-4.2
X3.15Y-4.3
X3.15Y-4.4
X3.15Y-4.5
X3.15Y-4.6
X3.3Y-2.8466
X3.3Y-3.2466
X3.4Y-2.8466
X3.4Y-3.2466
X3.5Y-2.8466
X3.5Y-3.2466
X3.6Y-2.8466
X3.6Y-3.2466
X3.7Y-2.8466
X3.7Y-3.2466
X3.75Y-1.5
X3.75Y-1.6
X3.75Y-1.7
X3.75Y-1.8
X3.75Y-1.9
X3.75Y-2.0
X3.75Y-2.1
X3.75Y-2.2
X3.75Y-2.3
X3.75Y-2.4
X3.75Y-2.5
X3.75Y-3.7
X3.8Y-2.8466
X3.8Y-3.2466
T5
X3.65Y-1.15
X3.75Y-1.15
X5.15Y-3.4496
X5.35Y-3.45
X5.55Y-1.1998
X5.55Y-1.2998
X5.55Y-1.3998
X5.55Y-1.4998
X5.55Y-1.5998
X5.55Y-1.85
X5.55Y-1.95
X5.55Y-2.05
X5.55Y-2.15
X5.55Y-2.3996
X5.55Y-2.4996
X5.55Y-2.5996
X5.55Y-2.6996
T6
X5.5315Y-2.9724
X5.5315Y-3.1224
T7
X2.1631Y-3.0507
T8
X1.9598Y-1.5965
X1.9598Y-2.4114
X1.9598Y-3.6772
X1.9598Y-4.5039
X2.1094Y-1.75
X2.1094Y-2.565
X2.1094Y-3.8307
X2.1094Y-4.6575
X2.1488Y-1.435
X2.1488Y-2.25
X2.1488Y-3.5157
X2.1488Y-4.3425
T9
X5.5Y-3.75
X5.5Y-3.95
T10
X2.0017Y-2.8932
X2.0017Y-3.2121
X2.3245Y-2.8932
X2.3245Y-3.2121
M30
