%TF.GenerationSoftware,KiCad,Pcbnew,8.0.6*%
%TF.CreationDate,2024-11-27T17:32:39+01:00*%
%TF.ProjectId,fm-tx-LCD,666d2d74-782d-44c4-9344-2e6b69636164,rev?*%
%TF.SameCoordinates,Original*%
%TF.FileFunction,Drillmap*%
%TF.FilePolarity,Positive*%
%FSLAX45Y45*%
G04 Gerber Fmt 4.5, Leading zero omitted, Abs format (unit mm)*
G04 Created by KiCad (PCBNEW 8.0.6) date 2024-11-27 17:32:39*
%MOMM*%
%LPD*%
G01*
G04 APERTURE LIST*
%ADD10C,0.100000*%
%ADD11C,0.200000*%
%ADD12C,0.120000*%
%ADD13C,0.150000*%
%ADD14C,0.160000*%
%ADD15C,0.180000*%
%ADD16C,0.220000*%
%ADD17C,0.320000*%
G04 APERTURE END LIST*
D10*
X4000500Y-2413000D02*
X16065500Y-2413000D01*
X16065500Y-13208000D01*
X4000500Y-13208000D01*
X4000500Y-2413000D01*
D11*
D10*
X5175121Y-9314498D02*
X5215121Y-9354498D01*
X5215121Y-9314498D02*
X5175121Y-9354498D01*
X5187000Y-11283000D02*
X5227000Y-11323000D01*
X5227000Y-11283000D02*
X5187000Y-11323000D01*
X5314000Y-3790000D02*
X5354000Y-3830000D01*
X5354000Y-3790000D02*
X5314000Y-3830000D01*
X5314000Y-4806000D02*
X5354000Y-4846000D01*
X5354000Y-4806000D02*
X5314000Y-4846000D01*
X10275000Y-10013000D02*
X10315000Y-10053000D01*
X10315000Y-10013000D02*
X10275000Y-10053000D01*
X10513000Y-9759000D02*
X10553000Y-9799000D01*
X10553000Y-9759000D02*
X10513000Y-9799000D01*
X12553000Y-6838000D02*
X12593000Y-6878000D01*
X12593000Y-6838000D02*
X12553000Y-6878000D01*
X12680000Y-6711000D02*
X12720000Y-6751000D01*
X12720000Y-6711000D02*
X12680000Y-6751000D01*
X10454000Y-3429000D02*
G75*
G02*
X10374000Y-3429000I-40000J0D01*
G01*
X10374000Y-3429000D02*
G75*
G02*
X10454000Y-3429000I40000J0D01*
G01*
X10454000Y-4191000D02*
G75*
G02*
X10374000Y-4191000I-40000J0D01*
G01*
X10374000Y-4191000D02*
G75*
G02*
X10454000Y-4191000I40000J0D01*
G01*
X10575000Y-11083000D02*
G75*
G02*
X10495000Y-11083000I-40000J0D01*
G01*
X10495000Y-11083000D02*
G75*
G02*
X10575000Y-11083000I40000J0D01*
G01*
X10575000Y-12903000D02*
G75*
G02*
X10495000Y-12903000I-40000J0D01*
G01*
X10495000Y-12903000D02*
G75*
G02*
X10575000Y-12903000I40000J0D01*
G01*
X10708000Y-9144000D02*
G75*
G02*
X10628000Y-9144000I-40000J0D01*
G01*
X10628000Y-9144000D02*
G75*
G02*
X10708000Y-9144000I40000J0D01*
G01*
X11208000Y-9144000D02*
G75*
G02*
X11128000Y-9144000I-40000J0D01*
G01*
X11128000Y-9144000D02*
G75*
G02*
X11208000Y-9144000I40000J0D01*
G01*
X11224000Y-10287000D02*
G75*
G02*
X11144000Y-10287000I-40000J0D01*
G01*
X11144000Y-10287000D02*
G75*
G02*
X11224000Y-10287000I40000J0D01*
G01*
X11724000Y-10287000D02*
G75*
G02*
X11644000Y-10287000I-40000J0D01*
G01*
X11644000Y-10287000D02*
G75*
G02*
X11724000Y-10287000I40000J0D01*
G01*
X12105000Y-3048000D02*
G75*
G02*
X12025000Y-3048000I-40000J0D01*
G01*
X12025000Y-3048000D02*
G75*
G02*
X12105000Y-3048000I40000J0D01*
G01*
X12105000Y-3302000D02*
G75*
G02*
X12025000Y-3302000I-40000J0D01*
G01*
X12025000Y-3302000D02*
G75*
G02*
X12105000Y-3302000I40000J0D01*
G01*
X12105000Y-3556000D02*
G75*
G02*
X12025000Y-3556000I-40000J0D01*
G01*
X12025000Y-3556000D02*
G75*
G02*
X12105000Y-3556000I40000J0D01*
G01*
X12105000Y-3810000D02*
G75*
G02*
X12025000Y-3810000I-40000J0D01*
G01*
X12025000Y-3810000D02*
G75*
G02*
X12105000Y-3810000I40000J0D01*
G01*
X12105000Y-4064000D02*
G75*
G02*
X12025000Y-4064000I-40000J0D01*
G01*
X12025000Y-4064000D02*
G75*
G02*
X12105000Y-4064000I40000J0D01*
G01*
X12105000Y-4318000D02*
G75*
G02*
X12025000Y-4318000I-40000J0D01*
G01*
X12025000Y-4318000D02*
G75*
G02*
X12105000Y-4318000I40000J0D01*
G01*
X12105000Y-4572000D02*
G75*
G02*
X12025000Y-4572000I-40000J0D01*
G01*
X12025000Y-4572000D02*
G75*
G02*
X12105000Y-4572000I40000J0D01*
G01*
X12105000Y-4826000D02*
G75*
G02*
X12025000Y-4826000I-40000J0D01*
G01*
X12025000Y-4826000D02*
G75*
G02*
X12105000Y-4826000I40000J0D01*
G01*
X12105000Y-5080000D02*
G75*
G02*
X12025000Y-5080000I-40000J0D01*
G01*
X12025000Y-5080000D02*
G75*
G02*
X12105000Y-5080000I40000J0D01*
G01*
X12105000Y-5334000D02*
G75*
G02*
X12025000Y-5334000I-40000J0D01*
G01*
X12025000Y-5334000D02*
G75*
G02*
X12105000Y-5334000I40000J0D01*
G01*
X12105000Y-5588000D02*
G75*
G02*
X12025000Y-5588000I-40000J0D01*
G01*
X12025000Y-5588000D02*
G75*
G02*
X12105000Y-5588000I40000J0D01*
G01*
X12105000Y-5842000D02*
G75*
G02*
X12025000Y-5842000I-40000J0D01*
G01*
X12025000Y-5842000D02*
G75*
G02*
X12105000Y-5842000I40000J0D01*
G01*
X12105000Y-6096000D02*
G75*
G02*
X12025000Y-6096000I-40000J0D01*
G01*
X12025000Y-6096000D02*
G75*
G02*
X12105000Y-6096000I40000J0D01*
G01*
X12105000Y-6350000D02*
G75*
G02*
X12025000Y-6350000I-40000J0D01*
G01*
X12025000Y-6350000D02*
G75*
G02*
X12105000Y-6350000I40000J0D01*
G01*
X12105000Y-6604000D02*
G75*
G02*
X12025000Y-6604000I-40000J0D01*
G01*
X12025000Y-6604000D02*
G75*
G02*
X12105000Y-6604000I40000J0D01*
G01*
X12105000Y-6858000D02*
G75*
G02*
X12025000Y-6858000I-40000J0D01*
G01*
X12025000Y-6858000D02*
G75*
G02*
X12105000Y-6858000I40000J0D01*
G01*
X12105000Y-7112000D02*
G75*
G02*
X12025000Y-7112000I-40000J0D01*
G01*
X12025000Y-7112000D02*
G75*
G02*
X12105000Y-7112000I40000J0D01*
G01*
X12105000Y-7366000D02*
G75*
G02*
X12025000Y-7366000I-40000J0D01*
G01*
X12025000Y-7366000D02*
G75*
G02*
X12105000Y-7366000I40000J0D01*
G01*
X12105000Y-7620000D02*
G75*
G02*
X12025000Y-7620000I-40000J0D01*
G01*
X12025000Y-7620000D02*
G75*
G02*
X12105000Y-7620000I40000J0D01*
G01*
X14575000Y-11083000D02*
G75*
G02*
X14495000Y-11083000I-40000J0D01*
G01*
X14495000Y-11083000D02*
G75*
G02*
X14575000Y-11083000I40000J0D01*
G01*
X14575000Y-12903000D02*
G75*
G02*
X14495000Y-12903000I-40000J0D01*
G01*
X14495000Y-12903000D02*
G75*
G02*
X14575000Y-12903000I40000J0D01*
G01*
X14644632Y-7365728D02*
G75*
G02*
X14564632Y-7365728I-40000J0D01*
G01*
X14564632Y-7365728D02*
G75*
G02*
X14644632Y-7365728I40000J0D01*
G01*
X14644632Y-7619728D02*
G75*
G02*
X14564632Y-7619728I-40000J0D01*
G01*
X14564632Y-7619728D02*
G75*
G02*
X14644632Y-7619728I40000J0D01*
G01*
X14645000Y-3048000D02*
G75*
G02*
X14565000Y-3048000I-40000J0D01*
G01*
X14565000Y-3048000D02*
G75*
G02*
X14645000Y-3048000I40000J0D01*
G01*
X14645000Y-3302000D02*
G75*
G02*
X14565000Y-3302000I-40000J0D01*
G01*
X14565000Y-3302000D02*
G75*
G02*
X14645000Y-3302000I40000J0D01*
G01*
X14645000Y-3556000D02*
G75*
G02*
X14565000Y-3556000I-40000J0D01*
G01*
X14565000Y-3556000D02*
G75*
G02*
X14645000Y-3556000I40000J0D01*
G01*
X14645000Y-3810000D02*
G75*
G02*
X14565000Y-3810000I-40000J0D01*
G01*
X14565000Y-3810000D02*
G75*
G02*
X14645000Y-3810000I40000J0D01*
G01*
X14645000Y-4064000D02*
G75*
G02*
X14565000Y-4064000I-40000J0D01*
G01*
X14565000Y-4064000D02*
G75*
G02*
X14645000Y-4064000I40000J0D01*
G01*
X14645000Y-4318000D02*
G75*
G02*
X14565000Y-4318000I-40000J0D01*
G01*
X14565000Y-4318000D02*
G75*
G02*
X14645000Y-4318000I40000J0D01*
G01*
X14645000Y-4572000D02*
G75*
G02*
X14565000Y-4572000I-40000J0D01*
G01*
X14565000Y-4572000D02*
G75*
G02*
X14645000Y-4572000I40000J0D01*
G01*
X14645000Y-4826000D02*
G75*
G02*
X14565000Y-4826000I-40000J0D01*
G01*
X14565000Y-4826000D02*
G75*
G02*
X14645000Y-4826000I40000J0D01*
G01*
X14645000Y-5080000D02*
G75*
G02*
X14565000Y-5080000I-40000J0D01*
G01*
X14565000Y-5080000D02*
G75*
G02*
X14645000Y-5080000I40000J0D01*
G01*
X14645000Y-5334000D02*
G75*
G02*
X14565000Y-5334000I-40000J0D01*
G01*
X14565000Y-5334000D02*
G75*
G02*
X14645000Y-5334000I40000J0D01*
G01*
X14645000Y-5588000D02*
G75*
G02*
X14565000Y-5588000I-40000J0D01*
G01*
X14565000Y-5588000D02*
G75*
G02*
X14645000Y-5588000I40000J0D01*
G01*
X14645000Y-5842000D02*
G75*
G02*
X14565000Y-5842000I-40000J0D01*
G01*
X14565000Y-5842000D02*
G75*
G02*
X14645000Y-5842000I40000J0D01*
G01*
X14645000Y-6096000D02*
G75*
G02*
X14565000Y-6096000I-40000J0D01*
G01*
X14565000Y-6096000D02*
G75*
G02*
X14645000Y-6096000I40000J0D01*
G01*
X14645000Y-6350000D02*
G75*
G02*
X14565000Y-6350000I-40000J0D01*
G01*
X14565000Y-6350000D02*
G75*
G02*
X14645000Y-6350000I40000J0D01*
G01*
X14645000Y-6604000D02*
G75*
G02*
X14565000Y-6604000I-40000J0D01*
G01*
X14565000Y-6604000D02*
G75*
G02*
X14645000Y-6604000I40000J0D01*
G01*
X14645000Y-6858000D02*
G75*
G02*
X14565000Y-6858000I-40000J0D01*
G01*
X14565000Y-6858000D02*
G75*
G02*
X14645000Y-6858000I40000J0D01*
G01*
X14645000Y-7112000D02*
G75*
G02*
X14565000Y-7112000I-40000J0D01*
G01*
X14565000Y-7112000D02*
G75*
G02*
X14645000Y-7112000I40000J0D01*
G01*
X15153000Y-8128000D02*
G75*
G02*
X15073000Y-8128000I-40000J0D01*
G01*
X15073000Y-8128000D02*
G75*
G02*
X15153000Y-8128000I40000J0D01*
G01*
X15153000Y-8890000D02*
G75*
G02*
X15073000Y-8890000I-40000J0D01*
G01*
X15073000Y-8890000D02*
G75*
G02*
X15153000Y-8890000I40000J0D01*
G01*
X15153000Y-10922000D02*
G75*
G02*
X15073000Y-10922000I-40000J0D01*
G01*
X15073000Y-10922000D02*
G75*
G02*
X15153000Y-10922000I40000J0D01*
G01*
X15403000Y-10922000D02*
G75*
G02*
X15323000Y-10922000I-40000J0D01*
G01*
X15323000Y-10922000D02*
G75*
G02*
X15403000Y-10922000I40000J0D01*
G01*
X15534000Y-4064000D02*
G75*
G02*
X15454000Y-4064000I-40000J0D01*
G01*
X15454000Y-4064000D02*
G75*
G02*
X15534000Y-4064000I40000J0D01*
G01*
X15534000Y-4826000D02*
G75*
G02*
X15454000Y-4826000I-40000J0D01*
G01*
X15454000Y-4826000D02*
G75*
G02*
X15534000Y-4826000I40000J0D01*
G01*
X10414000Y-4654000D02*
X10414000Y-4744000D01*
X10369000Y-4699000D02*
X10459000Y-4699000D01*
X10668000Y-4654000D02*
X10668000Y-4744000D01*
X10623000Y-4699000D02*
X10713000Y-4699000D01*
X12105000Y-8361000D02*
X12105000Y-8451000D01*
X12060000Y-8406000D02*
X12150000Y-8406000D01*
X12105000Y-9861000D02*
X12105000Y-9951000D01*
X12060000Y-9906000D02*
X12150000Y-9906000D01*
X14605000Y-8361000D02*
X14605000Y-8451000D01*
X14560000Y-8406000D02*
X14650000Y-8406000D01*
X14605000Y-9861000D02*
X14605000Y-9951000D01*
X14560000Y-9906000D02*
X14650000Y-9906000D01*
X15240000Y-9353000D02*
X15240000Y-9443000D01*
X15195000Y-9398000D02*
X15285000Y-9398000D01*
X15367000Y-5289000D02*
X15367000Y-5379000D01*
X15322000Y-5334000D02*
X15412000Y-5334000D01*
X15494000Y-9353000D02*
X15494000Y-9443000D01*
X15449000Y-9398000D02*
X15539000Y-9398000D01*
X15621000Y-5289000D02*
X15621000Y-5379000D01*
X15576000Y-5334000D02*
X15666000Y-5334000D01*
X6256588Y-5748588D02*
X6256588Y-5681412D01*
X6189412Y-5681412D01*
X6189412Y-5748588D01*
X6256588Y-5748588D01*
X6256588Y-9304588D02*
X6256588Y-9237412D01*
X6189412Y-9237412D01*
X6189412Y-9304588D01*
X6256588Y-9304588D01*
X6256588Y-9558588D02*
X6256588Y-9491412D01*
X6189412Y-9491412D01*
X6189412Y-9558588D01*
X6256588Y-9558588D01*
X6256588Y-9812588D02*
X6256588Y-9745412D01*
X6189412Y-9745412D01*
X6189412Y-9812588D01*
X6256588Y-9812588D01*
X6256588Y-10066588D02*
X6256588Y-9999412D01*
X6189412Y-9999412D01*
X6189412Y-10066588D01*
X6256588Y-10066588D01*
X6256588Y-10320588D02*
X6256588Y-10253412D01*
X6189412Y-10253412D01*
X6189412Y-10320588D01*
X6256588Y-10320588D01*
X6256588Y-10574588D02*
X6256588Y-10507412D01*
X6189412Y-10507412D01*
X6189412Y-10574588D01*
X6256588Y-10574588D01*
X6256588Y-10828588D02*
X6256588Y-10761412D01*
X6189412Y-10761412D01*
X6189412Y-10828588D01*
X6256588Y-10828588D01*
X6256588Y-11082588D02*
X6256588Y-11015412D01*
X6189412Y-11015412D01*
X6189412Y-11082588D01*
X6256588Y-11082588D01*
X6256588Y-11336588D02*
X6256588Y-11269412D01*
X6189412Y-11269412D01*
X6189412Y-11336588D01*
X6256588Y-11336588D01*
X6256588Y-11590588D02*
X6256588Y-11523412D01*
X6189412Y-11523412D01*
X6189412Y-11590588D01*
X6256588Y-11590588D01*
X6256588Y-11844588D02*
X6256588Y-11777412D01*
X6189412Y-11777412D01*
X6189412Y-11844588D01*
X6256588Y-11844588D01*
X7780588Y-3462588D02*
X7780588Y-3395412D01*
X7713412Y-3395412D01*
X7713412Y-3462588D01*
X7780588Y-3462588D01*
X7780588Y-3716588D02*
X7780588Y-3649412D01*
X7713412Y-3649412D01*
X7713412Y-3716588D01*
X7780588Y-3716588D01*
X7780588Y-3970588D02*
X7780588Y-3903412D01*
X7713412Y-3903412D01*
X7713412Y-3970588D01*
X7780588Y-3970588D01*
X7780588Y-4224588D02*
X7780588Y-4157412D01*
X7713412Y-4157412D01*
X7713412Y-4224588D01*
X7780588Y-4224588D01*
X7780588Y-4478588D02*
X7780588Y-4411412D01*
X7713412Y-4411412D01*
X7713412Y-4478588D01*
X7780588Y-4478588D01*
X7780588Y-4732588D02*
X7780588Y-4665412D01*
X7713412Y-4665412D01*
X7713412Y-4732588D01*
X7780588Y-4732588D01*
X7780588Y-4986588D02*
X7780588Y-4919412D01*
X7713412Y-4919412D01*
X7713412Y-4986588D01*
X7780588Y-4986588D01*
X7780588Y-5240588D02*
X7780588Y-5173412D01*
X7713412Y-5173412D01*
X7713412Y-5240588D01*
X7780588Y-5240588D01*
X7780588Y-5494588D02*
X7780588Y-5427412D01*
X7713412Y-5427412D01*
X7713412Y-5494588D01*
X7780588Y-5494588D01*
X7780588Y-5748588D02*
X7780588Y-5681412D01*
X7713412Y-5681412D01*
X7713412Y-5748588D01*
X7780588Y-5748588D01*
X7780588Y-6002588D02*
X7780588Y-5935412D01*
X7713412Y-5935412D01*
X7713412Y-6002588D01*
X7780588Y-6002588D01*
X7780588Y-9558588D02*
X7780588Y-9491412D01*
X7713412Y-9491412D01*
X7713412Y-9558588D01*
X7780588Y-9558588D01*
X8288588Y-5748588D02*
X8288588Y-5681412D01*
X8221412Y-5681412D01*
X8221412Y-5748588D01*
X8288588Y-5748588D01*
X8288588Y-9304588D02*
X8288588Y-9237412D01*
X8221412Y-9237412D01*
X8221412Y-9304588D01*
X8288588Y-9304588D01*
X8288588Y-9558588D02*
X8288588Y-9491412D01*
X8221412Y-9491412D01*
X8221412Y-9558588D01*
X8288588Y-9558588D01*
X8288588Y-9812588D02*
X8288588Y-9745412D01*
X8221412Y-9745412D01*
X8221412Y-9812588D01*
X8288588Y-9812588D01*
X8288588Y-10066588D02*
X8288588Y-9999412D01*
X8221412Y-9999412D01*
X8221412Y-10066588D01*
X8288588Y-10066588D01*
X8288588Y-10320588D02*
X8288588Y-10253412D01*
X8221412Y-10253412D01*
X8221412Y-10320588D01*
X8288588Y-10320588D01*
X8288588Y-10574588D02*
X8288588Y-10507412D01*
X8221412Y-10507412D01*
X8221412Y-10574588D01*
X8288588Y-10574588D01*
X8288588Y-10828588D02*
X8288588Y-10761412D01*
X8221412Y-10761412D01*
X8221412Y-10828588D01*
X8288588Y-10828588D01*
X8288588Y-11082588D02*
X8288588Y-11015412D01*
X8221412Y-11015412D01*
X8221412Y-11082588D01*
X8288588Y-11082588D01*
X8288588Y-11336588D02*
X8288588Y-11269412D01*
X8221412Y-11269412D01*
X8221412Y-11336588D01*
X8288588Y-11336588D01*
X8288588Y-11590588D02*
X8288588Y-11523412D01*
X8221412Y-11523412D01*
X8221412Y-11590588D01*
X8288588Y-11590588D01*
X8288588Y-11844588D02*
X8288588Y-11777412D01*
X8221412Y-11777412D01*
X8221412Y-11844588D01*
X8288588Y-11844588D01*
X9812588Y-3462588D02*
X9812588Y-3395412D01*
X9745412Y-3395412D01*
X9745412Y-3462588D01*
X9812588Y-3462588D01*
X9812588Y-3716588D02*
X9812588Y-3649412D01*
X9745412Y-3649412D01*
X9745412Y-3716588D01*
X9812588Y-3716588D01*
X9812588Y-3970588D02*
X9812588Y-3903412D01*
X9745412Y-3903412D01*
X9745412Y-3970588D01*
X9812588Y-3970588D01*
X9812588Y-4224588D02*
X9812588Y-4157412D01*
X9745412Y-4157412D01*
X9745412Y-4224588D01*
X9812588Y-4224588D01*
X9812588Y-4478588D02*
X9812588Y-4411412D01*
X9745412Y-4411412D01*
X9745412Y-4478588D01*
X9812588Y-4478588D01*
X9812588Y-4732588D02*
X9812588Y-4665412D01*
X9745412Y-4665412D01*
X9745412Y-4732588D01*
X9812588Y-4732588D01*
X9812588Y-4986588D02*
X9812588Y-4919412D01*
X9745412Y-4919412D01*
X9745412Y-4986588D01*
X9812588Y-4986588D01*
X9812588Y-5240588D02*
X9812588Y-5173412D01*
X9745412Y-5173412D01*
X9745412Y-5240588D01*
X9812588Y-5240588D01*
X9812588Y-5494588D02*
X9812588Y-5427412D01*
X9745412Y-5427412D01*
X9745412Y-5494588D01*
X9812588Y-5494588D01*
X9812588Y-5748588D02*
X9812588Y-5681412D01*
X9745412Y-5681412D01*
X9745412Y-5748588D01*
X9812588Y-5748588D01*
X9812588Y-6002588D02*
X9812588Y-5935412D01*
X9745412Y-5935412D01*
X9745412Y-6002588D01*
X9812588Y-6002588D01*
X9812588Y-9558588D02*
X9812588Y-9491412D01*
X9745412Y-9491412D01*
X9745412Y-9558588D01*
X9812588Y-9558588D01*
X10574588Y-6891588D02*
X10574588Y-6824412D01*
X10507412Y-6824412D01*
X10507412Y-6891588D01*
X10574588Y-6891588D01*
X10574588Y-7145588D02*
X10574588Y-7078412D01*
X10507412Y-7078412D01*
X10507412Y-7145588D01*
X10574588Y-7145588D01*
X10574588Y-7399588D02*
X10574588Y-7332412D01*
X10507412Y-7332412D01*
X10507412Y-7399588D01*
X10574588Y-7399588D01*
X10574588Y-7653588D02*
X10574588Y-7586412D01*
X10507412Y-7586412D01*
X10507412Y-7653588D01*
X10574588Y-7653588D01*
X10574588Y-7907588D02*
X10574588Y-7840412D01*
X10507412Y-7840412D01*
X10507412Y-7907588D01*
X10574588Y-7907588D01*
X10574588Y-8161588D02*
X10574588Y-8094412D01*
X10507412Y-8094412D01*
X10507412Y-8161588D01*
X10574588Y-8161588D01*
X11590588Y-6891588D02*
X11590588Y-6824412D01*
X11523412Y-6824412D01*
X11523412Y-6891588D01*
X11590588Y-6891588D01*
X11590588Y-7145588D02*
X11590588Y-7078412D01*
X11523412Y-7078412D01*
X11523412Y-7145588D01*
X11590588Y-7145588D01*
X11590588Y-7399588D02*
X11590588Y-7332412D01*
X11523412Y-7332412D01*
X11523412Y-7399588D01*
X11590588Y-7399588D01*
X11590588Y-7653588D02*
X11590588Y-7586412D01*
X11523412Y-7586412D01*
X11523412Y-7653588D01*
X11590588Y-7653588D01*
X11590588Y-7907588D02*
X11590588Y-7840412D01*
X11523412Y-7840412D01*
X11523412Y-7907588D01*
X11590588Y-7907588D01*
X11590588Y-8161588D02*
X11590588Y-8094412D01*
X11523412Y-8094412D01*
X11523412Y-8161588D01*
X11590588Y-8161588D01*
X10668000Y-6146000D02*
X10718000Y-6096000D01*
X10668000Y-6046000D01*
X10618000Y-6096000D01*
X10668000Y-6146000D01*
X10795000Y-2717000D02*
X10845000Y-2667000D01*
X10795000Y-2617000D01*
X10745000Y-2667000D01*
X10795000Y-2717000D01*
X10922000Y-6146000D02*
X10972000Y-6096000D01*
X10922000Y-6046000D01*
X10872000Y-6096000D01*
X10922000Y-6146000D01*
X11049000Y-2717000D02*
X11099000Y-2667000D01*
X11049000Y-2617000D01*
X10999000Y-2667000D01*
X11049000Y-2717000D01*
X11176000Y-6146000D02*
X11226000Y-6096000D01*
X11176000Y-6046000D01*
X11126000Y-6096000D01*
X11176000Y-6146000D01*
X11430000Y-6146000D02*
X11480000Y-6096000D01*
X11430000Y-6046000D01*
X11380000Y-6096000D01*
X11430000Y-6146000D01*
X15366000Y-11988000D02*
X15416000Y-11938000D01*
X15366000Y-11888000D01*
X15316000Y-11938000D01*
X15366000Y-11988000D01*
X15367000Y-11480000D02*
X15417000Y-11430000D01*
X15367000Y-11380000D01*
X15317000Y-11430000D01*
X15367000Y-11480000D01*
X15621000Y-6273500D02*
X15671000Y-6223500D01*
X15621000Y-6173500D01*
X15571000Y-6223500D01*
X15621000Y-6273500D01*
X15621000Y-6527500D02*
X15671000Y-6477500D01*
X15621000Y-6427500D01*
X15571000Y-6477500D01*
X15621000Y-6527500D01*
X15621000Y-6781500D02*
X15671000Y-6731500D01*
X15621000Y-6681500D01*
X15571000Y-6731500D01*
X15621000Y-6781500D01*
X15621000Y-7035500D02*
X15671000Y-6985500D01*
X15621000Y-6935500D01*
X15571000Y-6985500D01*
X15621000Y-7035500D01*
X15621000Y-7289500D02*
X15671000Y-7239500D01*
X15621000Y-7189500D01*
X15571000Y-7239500D01*
X15621000Y-7289500D01*
X15621000Y-7925000D02*
X15671000Y-7875000D01*
X15621000Y-7825000D01*
X15571000Y-7875000D01*
X15621000Y-7925000D01*
X15621000Y-8179000D02*
X15671000Y-8129000D01*
X15621000Y-8079000D01*
X15571000Y-8129000D01*
X15621000Y-8179000D01*
X15621000Y-8433000D02*
X15671000Y-8383000D01*
X15621000Y-8333000D01*
X15571000Y-8383000D01*
X15621000Y-8433000D01*
X15621000Y-8687000D02*
X15671000Y-8637000D01*
X15621000Y-8587000D01*
X15571000Y-8637000D01*
X15621000Y-8687000D01*
D12*
X11624000Y-8703000D02*
X11744000Y-8823000D01*
X11744000Y-8703000D02*
X11624000Y-8823000D01*
X11744000Y-8763000D02*
G75*
G02*
X11624000Y-8763000I-60000J0D01*
G01*
X11624000Y-8763000D02*
G75*
G02*
X11744000Y-8763000I60000J0D01*
G01*
X11624000Y-9084000D02*
X11744000Y-9204000D01*
X11744000Y-9084000D02*
X11624000Y-9204000D01*
X11744000Y-9144000D02*
G75*
G02*
X11624000Y-9144000I-60000J0D01*
G01*
X11624000Y-9144000D02*
G75*
G02*
X11744000Y-9144000I60000J0D01*
G01*
D13*
X4497000Y-7545000D02*
X4647000Y-7695000D01*
X4647000Y-7545000D02*
X4497000Y-7695000D01*
X4572000Y-7545000D02*
X4572000Y-7695000D01*
X4497000Y-7620000D02*
X4647000Y-7620000D01*
D14*
X4245000Y-3740000D02*
X4405000Y-3900000D01*
X4405000Y-3740000D02*
X4245000Y-3900000D01*
X4381569Y-3876569D02*
X4381569Y-3763431D01*
X4268431Y-3763431D01*
X4268431Y-3876569D01*
X4381569Y-3876569D01*
X4245000Y-5721000D02*
X4405000Y-5881000D01*
X4405000Y-5721000D02*
X4245000Y-5881000D01*
X4381569Y-5857569D02*
X4381569Y-5744431D01*
X4268431Y-5744431D01*
X4268431Y-5857569D01*
X4381569Y-5857569D01*
X4245000Y-9242000D02*
X4405000Y-9402000D01*
X4405000Y-9242000D02*
X4245000Y-9402000D01*
X4381569Y-9378569D02*
X4381569Y-9265431D01*
X4268431Y-9265431D01*
X4268431Y-9378569D01*
X4381569Y-9378569D01*
X4245000Y-11223000D02*
X4405000Y-11383000D01*
X4405000Y-11223000D02*
X4245000Y-11383000D01*
X4381569Y-11359569D02*
X4381569Y-11246431D01*
X4268431Y-11246431D01*
X4268431Y-11359569D01*
X4381569Y-11359569D01*
X4625000Y-4130000D02*
X4785000Y-4290000D01*
X4785000Y-4130000D02*
X4625000Y-4290000D01*
X4761569Y-4266569D02*
X4761569Y-4153431D01*
X4648431Y-4153431D01*
X4648431Y-4266569D01*
X4761569Y-4266569D01*
X4625000Y-6111000D02*
X4785000Y-6271000D01*
X4785000Y-6111000D02*
X4625000Y-6271000D01*
X4761569Y-6247569D02*
X4761569Y-6134431D01*
X4648431Y-6134431D01*
X4648431Y-6247569D01*
X4761569Y-6247569D01*
X4625000Y-9632000D02*
X4785000Y-9792000D01*
X4785000Y-9632000D02*
X4625000Y-9792000D01*
X4761569Y-9768569D02*
X4761569Y-9655431D01*
X4648431Y-9655431D01*
X4648431Y-9768569D01*
X4761569Y-9768569D01*
X4625000Y-11613000D02*
X4785000Y-11773000D01*
X4785000Y-11613000D02*
X4625000Y-11773000D01*
X4761569Y-11749569D02*
X4761569Y-11636431D01*
X4648431Y-11636431D01*
X4648431Y-11749569D01*
X4761569Y-11749569D01*
X4725000Y-3330000D02*
X4885000Y-3490000D01*
X4885000Y-3330000D02*
X4725000Y-3490000D01*
X4861569Y-3466569D02*
X4861569Y-3353431D01*
X4748431Y-3353431D01*
X4748431Y-3466569D01*
X4861569Y-3466569D01*
X4725000Y-5311000D02*
X4885000Y-5471000D01*
X4885000Y-5311000D02*
X4725000Y-5471000D01*
X4861569Y-5447569D02*
X4861569Y-5334431D01*
X4748431Y-5334431D01*
X4748431Y-5447569D01*
X4861569Y-5447569D01*
X4725000Y-8832000D02*
X4885000Y-8992000D01*
X4885000Y-8832000D02*
X4725000Y-8992000D01*
X4861569Y-8968569D02*
X4861569Y-8855431D01*
X4748431Y-8855431D01*
X4748431Y-8968569D01*
X4861569Y-8968569D01*
X4725000Y-10813000D02*
X4885000Y-10973000D01*
X4885000Y-10813000D02*
X4725000Y-10973000D01*
X4861569Y-10949569D02*
X4861569Y-10836431D01*
X4748431Y-10836431D01*
X4748431Y-10949569D01*
X4861569Y-10949569D01*
D15*
X4355000Y-2950000D02*
X4535000Y-3130000D01*
X4535000Y-2950000D02*
X4355000Y-3130000D01*
X4445000Y-3130000D02*
X4535000Y-3040000D01*
X4445000Y-2950000D01*
X4355000Y-3040000D01*
X4445000Y-3130000D01*
D10*
X4515000Y-2950000D02*
X4375000Y-2950000D01*
X4375000Y-3130000D02*
G75*
G02*
X4375000Y-2950000I0J90000D01*
G01*
X4375000Y-3130000D02*
X4515000Y-3130000D01*
X4515000Y-3130000D02*
G75*
G03*
X4515000Y-2950000I0J90000D01*
G01*
D15*
X4355000Y-4550000D02*
X4535000Y-4730000D01*
X4535000Y-4550000D02*
X4355000Y-4730000D01*
X4445000Y-4730000D02*
X4535000Y-4640000D01*
X4445000Y-4550000D01*
X4355000Y-4640000D01*
X4445000Y-4730000D01*
D10*
X4515000Y-4550000D02*
X4375000Y-4550000D01*
X4375000Y-4730000D02*
G75*
G02*
X4375000Y-4550000I0J90000D01*
G01*
X4375000Y-4730000D02*
X4515000Y-4730000D01*
X4515000Y-4730000D02*
G75*
G03*
X4515000Y-4550000I0J90000D01*
G01*
D15*
X4355000Y-4931000D02*
X4535000Y-5111000D01*
X4535000Y-4931000D02*
X4355000Y-5111000D01*
X4445000Y-5111000D02*
X4535000Y-5021000D01*
X4445000Y-4931000D01*
X4355000Y-5021000D01*
X4445000Y-5111000D01*
D10*
X4515000Y-4931000D02*
X4375000Y-4931000D01*
X4375000Y-5111000D02*
G75*
G02*
X4375000Y-4931000I0J90000D01*
G01*
X4375000Y-5111000D02*
X4515000Y-5111000D01*
X4515000Y-5111000D02*
G75*
G03*
X4515000Y-4931000I0J90000D01*
G01*
D15*
X4355000Y-6531000D02*
X4535000Y-6711000D01*
X4535000Y-6531000D02*
X4355000Y-6711000D01*
X4445000Y-6711000D02*
X4535000Y-6621000D01*
X4445000Y-6531000D01*
X4355000Y-6621000D01*
X4445000Y-6711000D01*
D10*
X4515000Y-6531000D02*
X4375000Y-6531000D01*
X4375000Y-6711000D02*
G75*
G02*
X4375000Y-6531000I0J90000D01*
G01*
X4375000Y-6711000D02*
X4515000Y-6711000D01*
X4515000Y-6711000D02*
G75*
G03*
X4515000Y-6531000I0J90000D01*
G01*
D15*
X4355000Y-8452000D02*
X4535000Y-8632000D01*
X4535000Y-8452000D02*
X4355000Y-8632000D01*
X4445000Y-8632000D02*
X4535000Y-8542000D01*
X4445000Y-8452000D01*
X4355000Y-8542000D01*
X4445000Y-8632000D01*
D10*
X4515000Y-8452000D02*
X4375000Y-8452000D01*
X4375000Y-8632000D02*
G75*
G02*
X4375000Y-8452000I0J90000D01*
G01*
X4375000Y-8632000D02*
X4515000Y-8632000D01*
X4515000Y-8632000D02*
G75*
G03*
X4515000Y-8452000I0J90000D01*
G01*
D15*
X4355000Y-10052000D02*
X4535000Y-10232000D01*
X4535000Y-10052000D02*
X4355000Y-10232000D01*
X4445000Y-10232000D02*
X4535000Y-10142000D01*
X4445000Y-10052000D01*
X4355000Y-10142000D01*
X4445000Y-10232000D01*
D10*
X4515000Y-10052000D02*
X4375000Y-10052000D01*
X4375000Y-10232000D02*
G75*
G02*
X4375000Y-10052000I0J90000D01*
G01*
X4375000Y-10232000D02*
X4515000Y-10232000D01*
X4515000Y-10232000D02*
G75*
G03*
X4515000Y-10052000I0J90000D01*
G01*
D15*
X4355000Y-10433000D02*
X4535000Y-10613000D01*
X4535000Y-10433000D02*
X4355000Y-10613000D01*
X4445000Y-10613000D02*
X4535000Y-10523000D01*
X4445000Y-10433000D01*
X4355000Y-10523000D01*
X4445000Y-10613000D01*
D10*
X4515000Y-10433000D02*
X4375000Y-10433000D01*
X4375000Y-10613000D02*
G75*
G02*
X4375000Y-10433000I0J90000D01*
G01*
X4375000Y-10613000D02*
X4515000Y-10613000D01*
X4515000Y-10613000D02*
G75*
G03*
X4515000Y-10433000I0J90000D01*
G01*
D15*
X4355000Y-12033000D02*
X4535000Y-12213000D01*
X4535000Y-12033000D02*
X4355000Y-12213000D01*
X4445000Y-12213000D02*
X4535000Y-12123000D01*
X4445000Y-12033000D01*
X4355000Y-12123000D01*
X4445000Y-12213000D01*
D10*
X4515000Y-12033000D02*
X4375000Y-12033000D01*
X4375000Y-12213000D02*
G75*
G02*
X4375000Y-12033000I0J90000D01*
G01*
X4375000Y-12213000D02*
X4515000Y-12213000D01*
X4515000Y-12213000D02*
G75*
G03*
X4515000Y-12033000I0J90000D01*
G01*
D11*
X15621000Y-9933000D02*
X15621000Y-10133000D01*
X15521000Y-10033000D02*
X15721000Y-10033000D01*
X15721000Y-10033000D02*
G75*
G02*
X15521000Y-10033000I-100000J0D01*
G01*
X15521000Y-10033000D02*
G75*
G02*
X15721000Y-10033000I100000J0D01*
G01*
X15621000Y-10441000D02*
X15621000Y-10641000D01*
X15521000Y-10541000D02*
X15721000Y-10541000D01*
X15721000Y-10541000D02*
G75*
G02*
X15521000Y-10541000I-100000J0D01*
G01*
X15521000Y-10541000D02*
G75*
G02*
X15721000Y-10541000I100000J0D01*
G01*
D16*
X4239783Y-7297782D02*
X4239783Y-7142217D01*
X4084217Y-7142217D01*
X4084217Y-7297782D01*
X4239783Y-7297782D01*
X4272000Y-7220000D02*
G75*
G02*
X4052000Y-7220000I-110000J0D01*
G01*
X4052000Y-7220000D02*
G75*
G02*
X4272000Y-7220000I110000J0D01*
G01*
X4239783Y-8107782D02*
X4239783Y-7952217D01*
X4084217Y-7952217D01*
X4084217Y-8107782D01*
X4239783Y-8107782D01*
X4272000Y-8030000D02*
G75*
G02*
X4052000Y-8030000I-110000J0D01*
G01*
X4052000Y-8030000D02*
G75*
G02*
X4272000Y-8030000I110000J0D01*
G01*
X5059783Y-7297782D02*
X5059783Y-7142217D01*
X4904218Y-7142217D01*
X4904218Y-7297782D01*
X5059783Y-7297782D01*
X5092000Y-7220000D02*
G75*
G02*
X4872000Y-7220000I-110000J0D01*
G01*
X4872000Y-7220000D02*
G75*
G02*
X5092000Y-7220000I110000J0D01*
G01*
X5059783Y-8107782D02*
X5059783Y-7952217D01*
X4904218Y-7952217D01*
X4904218Y-8107782D01*
X5059783Y-8107782D01*
X5092000Y-8030000D02*
G75*
G02*
X4872000Y-8030000I-110000J0D01*
G01*
X4872000Y-8030000D02*
G75*
G02*
X5092000Y-8030000I110000J0D01*
G01*
D17*
X5461000Y-3081000D02*
X5621000Y-2921000D01*
X5461000Y-2761000D01*
X5301000Y-2921000D01*
X5461000Y-3081000D01*
X5621000Y-2921000D02*
G75*
G02*
X5301000Y-2921000I-160000J0D01*
G01*
X5301000Y-2921000D02*
G75*
G02*
X5621000Y-2921000I160000J0D01*
G01*
X5461000Y-12733000D02*
X5621000Y-12573000D01*
X5461000Y-12413000D01*
X5301000Y-12573000D01*
X5461000Y-12733000D01*
X5621000Y-12573000D02*
G75*
G02*
X5301000Y-12573000I-160000J0D01*
G01*
X5301000Y-12573000D02*
G75*
G02*
X5621000Y-12573000I160000J0D01*
G01*
X15621000Y-3081000D02*
X15781000Y-2921000D01*
X15621000Y-2761000D01*
X15461000Y-2921000D01*
X15621000Y-3081000D01*
X15781000Y-2921000D02*
G75*
G02*
X15461000Y-2921000I-160000J0D01*
G01*
X15461000Y-2921000D02*
G75*
G02*
X15781000Y-2921000I160000J0D01*
G01*
X15621000Y-12733000D02*
X15781000Y-12573000D01*
X15621000Y-12413000D01*
X15461000Y-12573000D01*
X15621000Y-12733000D01*
X15781000Y-12573000D02*
G75*
G02*
X15461000Y-12573000I-160000J0D01*
G01*
X15461000Y-12573000D02*
G75*
G02*
X15781000Y-12573000I160000J0D01*
G01*
D11*
X4256277Y-13524484D02*
X4256277Y-13324484D01*
X4256277Y-13324484D02*
X4303896Y-13324484D01*
X4303896Y-13324484D02*
X4332467Y-13334008D01*
X4332467Y-13334008D02*
X4351515Y-13353055D01*
X4351515Y-13353055D02*
X4361039Y-13372103D01*
X4361039Y-13372103D02*
X4370563Y-13410198D01*
X4370563Y-13410198D02*
X4370563Y-13438769D01*
X4370563Y-13438769D02*
X4361039Y-13476865D01*
X4361039Y-13476865D02*
X4351515Y-13495912D01*
X4351515Y-13495912D02*
X4332467Y-13514960D01*
X4332467Y-13514960D02*
X4303896Y-13524484D01*
X4303896Y-13524484D02*
X4256277Y-13524484D01*
X4456277Y-13524484D02*
X4456277Y-13391150D01*
X4456277Y-13429246D02*
X4465801Y-13410198D01*
X4465801Y-13410198D02*
X4475324Y-13400674D01*
X4475324Y-13400674D02*
X4494372Y-13391150D01*
X4494372Y-13391150D02*
X4513420Y-13391150D01*
X4580086Y-13524484D02*
X4580086Y-13391150D01*
X4580086Y-13324484D02*
X4570563Y-13334008D01*
X4570563Y-13334008D02*
X4580086Y-13343531D01*
X4580086Y-13343531D02*
X4589610Y-13334008D01*
X4589610Y-13334008D02*
X4580086Y-13324484D01*
X4580086Y-13324484D02*
X4580086Y-13343531D01*
X4703896Y-13524484D02*
X4684848Y-13514960D01*
X4684848Y-13514960D02*
X4675324Y-13495912D01*
X4675324Y-13495912D02*
X4675324Y-13324484D01*
X4808658Y-13524484D02*
X4789610Y-13514960D01*
X4789610Y-13514960D02*
X4780086Y-13495912D01*
X4780086Y-13495912D02*
X4780086Y-13324484D01*
X5037229Y-13524484D02*
X5037229Y-13324484D01*
X5037229Y-13324484D02*
X5103896Y-13467341D01*
X5103896Y-13467341D02*
X5170563Y-13324484D01*
X5170563Y-13324484D02*
X5170563Y-13524484D01*
X5351515Y-13524484D02*
X5351515Y-13419722D01*
X5351515Y-13419722D02*
X5341991Y-13400674D01*
X5341991Y-13400674D02*
X5322944Y-13391150D01*
X5322944Y-13391150D02*
X5284848Y-13391150D01*
X5284848Y-13391150D02*
X5265801Y-13400674D01*
X5351515Y-13514960D02*
X5332467Y-13524484D01*
X5332467Y-13524484D02*
X5284848Y-13524484D01*
X5284848Y-13524484D02*
X5265801Y-13514960D01*
X5265801Y-13514960D02*
X5256277Y-13495912D01*
X5256277Y-13495912D02*
X5256277Y-13476865D01*
X5256277Y-13476865D02*
X5265801Y-13457817D01*
X5265801Y-13457817D02*
X5284848Y-13448293D01*
X5284848Y-13448293D02*
X5332467Y-13448293D01*
X5332467Y-13448293D02*
X5351515Y-13438769D01*
X5446753Y-13391150D02*
X5446753Y-13591150D01*
X5446753Y-13400674D02*
X5465801Y-13391150D01*
X5465801Y-13391150D02*
X5503896Y-13391150D01*
X5503896Y-13391150D02*
X5522944Y-13400674D01*
X5522944Y-13400674D02*
X5532467Y-13410198D01*
X5532467Y-13410198D02*
X5541991Y-13429246D01*
X5541991Y-13429246D02*
X5541991Y-13486388D01*
X5541991Y-13486388D02*
X5532467Y-13505436D01*
X5532467Y-13505436D02*
X5522944Y-13514960D01*
X5522944Y-13514960D02*
X5503896Y-13524484D01*
X5503896Y-13524484D02*
X5465801Y-13524484D01*
X5465801Y-13524484D02*
X5446753Y-13514960D01*
X5627705Y-13505436D02*
X5637229Y-13514960D01*
X5637229Y-13514960D02*
X5627705Y-13524484D01*
X5627705Y-13524484D02*
X5618182Y-13514960D01*
X5618182Y-13514960D02*
X5627705Y-13505436D01*
X5627705Y-13505436D02*
X5627705Y-13524484D01*
X5627705Y-13400674D02*
X5637229Y-13410198D01*
X5637229Y-13410198D02*
X5627705Y-13419722D01*
X5627705Y-13419722D02*
X5618182Y-13410198D01*
X5618182Y-13410198D02*
X5627705Y-13400674D01*
X5627705Y-13400674D02*
X5627705Y-13419722D01*
D10*
X3955500Y-13833000D02*
X3995500Y-13873000D01*
X3995500Y-13833000D02*
X3955500Y-13873000D01*
D11*
X4294372Y-13744484D02*
X4313420Y-13744484D01*
X4313420Y-13744484D02*
X4332467Y-13754008D01*
X4332467Y-13754008D02*
X4341991Y-13763531D01*
X4341991Y-13763531D02*
X4351515Y-13782579D01*
X4351515Y-13782579D02*
X4361039Y-13820674D01*
X4361039Y-13820674D02*
X4361039Y-13868293D01*
X4361039Y-13868293D02*
X4351515Y-13906388D01*
X4351515Y-13906388D02*
X4341991Y-13925436D01*
X4341991Y-13925436D02*
X4332467Y-13934960D01*
X4332467Y-13934960D02*
X4313420Y-13944484D01*
X4313420Y-13944484D02*
X4294372Y-13944484D01*
X4294372Y-13944484D02*
X4275324Y-13934960D01*
X4275324Y-13934960D02*
X4265801Y-13925436D01*
X4265801Y-13925436D02*
X4256277Y-13906388D01*
X4256277Y-13906388D02*
X4246753Y-13868293D01*
X4246753Y-13868293D02*
X4246753Y-13820674D01*
X4246753Y-13820674D02*
X4256277Y-13782579D01*
X4256277Y-13782579D02*
X4265801Y-13763531D01*
X4265801Y-13763531D02*
X4275324Y-13754008D01*
X4275324Y-13754008D02*
X4294372Y-13744484D01*
X4446753Y-13925436D02*
X4456277Y-13934960D01*
X4456277Y-13934960D02*
X4446753Y-13944484D01*
X4446753Y-13944484D02*
X4437229Y-13934960D01*
X4437229Y-13934960D02*
X4446753Y-13925436D01*
X4446753Y-13925436D02*
X4446753Y-13944484D01*
X4627705Y-13811150D02*
X4627705Y-13944484D01*
X4580086Y-13734960D02*
X4532467Y-13877817D01*
X4532467Y-13877817D02*
X4656277Y-13877817D01*
X4770563Y-13744484D02*
X4789610Y-13744484D01*
X4789610Y-13744484D02*
X4808658Y-13754008D01*
X4808658Y-13754008D02*
X4818182Y-13763531D01*
X4818182Y-13763531D02*
X4827705Y-13782579D01*
X4827705Y-13782579D02*
X4837229Y-13820674D01*
X4837229Y-13820674D02*
X4837229Y-13868293D01*
X4837229Y-13868293D02*
X4827705Y-13906388D01*
X4827705Y-13906388D02*
X4818182Y-13925436D01*
X4818182Y-13925436D02*
X4808658Y-13934960D01*
X4808658Y-13934960D02*
X4789610Y-13944484D01*
X4789610Y-13944484D02*
X4770563Y-13944484D01*
X4770563Y-13944484D02*
X4751515Y-13934960D01*
X4751515Y-13934960D02*
X4741991Y-13925436D01*
X4741991Y-13925436D02*
X4732467Y-13906388D01*
X4732467Y-13906388D02*
X4722944Y-13868293D01*
X4722944Y-13868293D02*
X4722944Y-13820674D01*
X4722944Y-13820674D02*
X4732467Y-13782579D01*
X4732467Y-13782579D02*
X4741991Y-13763531D01*
X4741991Y-13763531D02*
X4751515Y-13754008D01*
X4751515Y-13754008D02*
X4770563Y-13744484D01*
X4961039Y-13744484D02*
X4980086Y-13744484D01*
X4980086Y-13744484D02*
X4999134Y-13754008D01*
X4999134Y-13754008D02*
X5008658Y-13763531D01*
X5008658Y-13763531D02*
X5018182Y-13782579D01*
X5018182Y-13782579D02*
X5027705Y-13820674D01*
X5027705Y-13820674D02*
X5027705Y-13868293D01*
X5027705Y-13868293D02*
X5018182Y-13906388D01*
X5018182Y-13906388D02*
X5008658Y-13925436D01*
X5008658Y-13925436D02*
X4999134Y-13934960D01*
X4999134Y-13934960D02*
X4980086Y-13944484D01*
X4980086Y-13944484D02*
X4961039Y-13944484D01*
X4961039Y-13944484D02*
X4941991Y-13934960D01*
X4941991Y-13934960D02*
X4932467Y-13925436D01*
X4932467Y-13925436D02*
X4922944Y-13906388D01*
X4922944Y-13906388D02*
X4913420Y-13868293D01*
X4913420Y-13868293D02*
X4913420Y-13820674D01*
X4913420Y-13820674D02*
X4922944Y-13782579D01*
X4922944Y-13782579D02*
X4932467Y-13763531D01*
X4932467Y-13763531D02*
X4941991Y-13754008D01*
X4941991Y-13754008D02*
X4961039Y-13744484D01*
X5113420Y-13944484D02*
X5113420Y-13811150D01*
X5113420Y-13830198D02*
X5122944Y-13820674D01*
X5122944Y-13820674D02*
X5141991Y-13811150D01*
X5141991Y-13811150D02*
X5170563Y-13811150D01*
X5170563Y-13811150D02*
X5189610Y-13820674D01*
X5189610Y-13820674D02*
X5199134Y-13839722D01*
X5199134Y-13839722D02*
X5199134Y-13944484D01*
X5199134Y-13839722D02*
X5208658Y-13820674D01*
X5208658Y-13820674D02*
X5227705Y-13811150D01*
X5227705Y-13811150D02*
X5256277Y-13811150D01*
X5256277Y-13811150D02*
X5275325Y-13820674D01*
X5275325Y-13820674D02*
X5284848Y-13839722D01*
X5284848Y-13839722D02*
X5284848Y-13944484D01*
X5380086Y-13944484D02*
X5380086Y-13811150D01*
X5380086Y-13830198D02*
X5389610Y-13820674D01*
X5389610Y-13820674D02*
X5408658Y-13811150D01*
X5408658Y-13811150D02*
X5437229Y-13811150D01*
X5437229Y-13811150D02*
X5456277Y-13820674D01*
X5456277Y-13820674D02*
X5465801Y-13839722D01*
X5465801Y-13839722D02*
X5465801Y-13944484D01*
X5465801Y-13839722D02*
X5475325Y-13820674D01*
X5475325Y-13820674D02*
X5494372Y-13811150D01*
X5494372Y-13811150D02*
X5522944Y-13811150D01*
X5522944Y-13811150D02*
X5541991Y-13820674D01*
X5541991Y-13820674D02*
X5551515Y-13839722D01*
X5551515Y-13839722D02*
X5551515Y-13944484D01*
X5941991Y-13734960D02*
X5770563Y-13992103D01*
X6199134Y-13744484D02*
X6218182Y-13744484D01*
X6218182Y-13744484D02*
X6237229Y-13754008D01*
X6237229Y-13754008D02*
X6246753Y-13763531D01*
X6246753Y-13763531D02*
X6256277Y-13782579D01*
X6256277Y-13782579D02*
X6265801Y-13820674D01*
X6265801Y-13820674D02*
X6265801Y-13868293D01*
X6265801Y-13868293D02*
X6256277Y-13906388D01*
X6256277Y-13906388D02*
X6246753Y-13925436D01*
X6246753Y-13925436D02*
X6237229Y-13934960D01*
X6237229Y-13934960D02*
X6218182Y-13944484D01*
X6218182Y-13944484D02*
X6199134Y-13944484D01*
X6199134Y-13944484D02*
X6180086Y-13934960D01*
X6180086Y-13934960D02*
X6170563Y-13925436D01*
X6170563Y-13925436D02*
X6161039Y-13906388D01*
X6161039Y-13906388D02*
X6151515Y-13868293D01*
X6151515Y-13868293D02*
X6151515Y-13820674D01*
X6151515Y-13820674D02*
X6161039Y-13782579D01*
X6161039Y-13782579D02*
X6170563Y-13763531D01*
X6170563Y-13763531D02*
X6180086Y-13754008D01*
X6180086Y-13754008D02*
X6199134Y-13744484D01*
X6351515Y-13925436D02*
X6361039Y-13934960D01*
X6361039Y-13934960D02*
X6351515Y-13944484D01*
X6351515Y-13944484D02*
X6341991Y-13934960D01*
X6341991Y-13934960D02*
X6351515Y-13925436D01*
X6351515Y-13925436D02*
X6351515Y-13944484D01*
X6484848Y-13744484D02*
X6503896Y-13744484D01*
X6503896Y-13744484D02*
X6522944Y-13754008D01*
X6522944Y-13754008D02*
X6532467Y-13763531D01*
X6532467Y-13763531D02*
X6541991Y-13782579D01*
X6541991Y-13782579D02*
X6551515Y-13820674D01*
X6551515Y-13820674D02*
X6551515Y-13868293D01*
X6551515Y-13868293D02*
X6541991Y-13906388D01*
X6541991Y-13906388D02*
X6532467Y-13925436D01*
X6532467Y-13925436D02*
X6522944Y-13934960D01*
X6522944Y-13934960D02*
X6503896Y-13944484D01*
X6503896Y-13944484D02*
X6484848Y-13944484D01*
X6484848Y-13944484D02*
X6465801Y-13934960D01*
X6465801Y-13934960D02*
X6456277Y-13925436D01*
X6456277Y-13925436D02*
X6446753Y-13906388D01*
X6446753Y-13906388D02*
X6437229Y-13868293D01*
X6437229Y-13868293D02*
X6437229Y-13820674D01*
X6437229Y-13820674D02*
X6446753Y-13782579D01*
X6446753Y-13782579D02*
X6456277Y-13763531D01*
X6456277Y-13763531D02*
X6465801Y-13754008D01*
X6465801Y-13754008D02*
X6484848Y-13744484D01*
X6741991Y-13944484D02*
X6627706Y-13944484D01*
X6684848Y-13944484D02*
X6684848Y-13744484D01*
X6684848Y-13744484D02*
X6665801Y-13773055D01*
X6665801Y-13773055D02*
X6646753Y-13792103D01*
X6646753Y-13792103D02*
X6627706Y-13801627D01*
X6922944Y-13744484D02*
X6827706Y-13744484D01*
X6827706Y-13744484D02*
X6818182Y-13839722D01*
X6818182Y-13839722D02*
X6827706Y-13830198D01*
X6827706Y-13830198D02*
X6846753Y-13820674D01*
X6846753Y-13820674D02*
X6894372Y-13820674D01*
X6894372Y-13820674D02*
X6913420Y-13830198D01*
X6913420Y-13830198D02*
X6922944Y-13839722D01*
X6922944Y-13839722D02*
X6932467Y-13858769D01*
X6932467Y-13858769D02*
X6932467Y-13906388D01*
X6932467Y-13906388D02*
X6922944Y-13925436D01*
X6922944Y-13925436D02*
X6913420Y-13934960D01*
X6913420Y-13934960D02*
X6894372Y-13944484D01*
X6894372Y-13944484D02*
X6846753Y-13944484D01*
X6846753Y-13944484D02*
X6827706Y-13934960D01*
X6827706Y-13934960D02*
X6818182Y-13925436D01*
X6999134Y-13744484D02*
X7132467Y-13744484D01*
X7132467Y-13744484D02*
X7046753Y-13944484D01*
X7199134Y-13744484D02*
X7199134Y-13782579D01*
X7275325Y-13744484D02*
X7275325Y-13782579D01*
X7570563Y-14020674D02*
X7561039Y-14011150D01*
X7561039Y-14011150D02*
X7541991Y-13982579D01*
X7541991Y-13982579D02*
X7532468Y-13963531D01*
X7532468Y-13963531D02*
X7522944Y-13934960D01*
X7522944Y-13934960D02*
X7513420Y-13887341D01*
X7513420Y-13887341D02*
X7513420Y-13849246D01*
X7513420Y-13849246D02*
X7522944Y-13801627D01*
X7522944Y-13801627D02*
X7532468Y-13773055D01*
X7532468Y-13773055D02*
X7541991Y-13754008D01*
X7541991Y-13754008D02*
X7561039Y-13725436D01*
X7561039Y-13725436D02*
X7570563Y-13715912D01*
X7675325Y-13830198D02*
X7656277Y-13820674D01*
X7656277Y-13820674D02*
X7646753Y-13811150D01*
X7646753Y-13811150D02*
X7637229Y-13792103D01*
X7637229Y-13792103D02*
X7637229Y-13782579D01*
X7637229Y-13782579D02*
X7646753Y-13763531D01*
X7646753Y-13763531D02*
X7656277Y-13754008D01*
X7656277Y-13754008D02*
X7675325Y-13744484D01*
X7675325Y-13744484D02*
X7713420Y-13744484D01*
X7713420Y-13744484D02*
X7732468Y-13754008D01*
X7732468Y-13754008D02*
X7741991Y-13763531D01*
X7741991Y-13763531D02*
X7751515Y-13782579D01*
X7751515Y-13782579D02*
X7751515Y-13792103D01*
X7751515Y-13792103D02*
X7741991Y-13811150D01*
X7741991Y-13811150D02*
X7732468Y-13820674D01*
X7732468Y-13820674D02*
X7713420Y-13830198D01*
X7713420Y-13830198D02*
X7675325Y-13830198D01*
X7675325Y-13830198D02*
X7656277Y-13839722D01*
X7656277Y-13839722D02*
X7646753Y-13849246D01*
X7646753Y-13849246D02*
X7637229Y-13868293D01*
X7637229Y-13868293D02*
X7637229Y-13906388D01*
X7637229Y-13906388D02*
X7646753Y-13925436D01*
X7646753Y-13925436D02*
X7656277Y-13934960D01*
X7656277Y-13934960D02*
X7675325Y-13944484D01*
X7675325Y-13944484D02*
X7713420Y-13944484D01*
X7713420Y-13944484D02*
X7732468Y-13934960D01*
X7732468Y-13934960D02*
X7741991Y-13925436D01*
X7741991Y-13925436D02*
X7751515Y-13906388D01*
X7751515Y-13906388D02*
X7751515Y-13868293D01*
X7751515Y-13868293D02*
X7741991Y-13849246D01*
X7741991Y-13849246D02*
X7732468Y-13839722D01*
X7732468Y-13839722D02*
X7713420Y-13830198D01*
X7989610Y-13944484D02*
X7989610Y-13744484D01*
X8075325Y-13944484D02*
X8075325Y-13839722D01*
X8075325Y-13839722D02*
X8065801Y-13820674D01*
X8065801Y-13820674D02*
X8046753Y-13811150D01*
X8046753Y-13811150D02*
X8018182Y-13811150D01*
X8018182Y-13811150D02*
X7999134Y-13820674D01*
X7999134Y-13820674D02*
X7989610Y-13830198D01*
X8199134Y-13944484D02*
X8180087Y-13934960D01*
X8180087Y-13934960D02*
X8170563Y-13925436D01*
X8170563Y-13925436D02*
X8161039Y-13906388D01*
X8161039Y-13906388D02*
X8161039Y-13849246D01*
X8161039Y-13849246D02*
X8170563Y-13830198D01*
X8170563Y-13830198D02*
X8180087Y-13820674D01*
X8180087Y-13820674D02*
X8199134Y-13811150D01*
X8199134Y-13811150D02*
X8227706Y-13811150D01*
X8227706Y-13811150D02*
X8246753Y-13820674D01*
X8246753Y-13820674D02*
X8256277Y-13830198D01*
X8256277Y-13830198D02*
X8265801Y-13849246D01*
X8265801Y-13849246D02*
X8265801Y-13906388D01*
X8265801Y-13906388D02*
X8256277Y-13925436D01*
X8256277Y-13925436D02*
X8246753Y-13934960D01*
X8246753Y-13934960D02*
X8227706Y-13944484D01*
X8227706Y-13944484D02*
X8199134Y-13944484D01*
X8380087Y-13944484D02*
X8361039Y-13934960D01*
X8361039Y-13934960D02*
X8351515Y-13915912D01*
X8351515Y-13915912D02*
X8351515Y-13744484D01*
X8532468Y-13934960D02*
X8513420Y-13944484D01*
X8513420Y-13944484D02*
X8475325Y-13944484D01*
X8475325Y-13944484D02*
X8456277Y-13934960D01*
X8456277Y-13934960D02*
X8446753Y-13915912D01*
X8446753Y-13915912D02*
X8446753Y-13839722D01*
X8446753Y-13839722D02*
X8456277Y-13820674D01*
X8456277Y-13820674D02*
X8475325Y-13811150D01*
X8475325Y-13811150D02*
X8513420Y-13811150D01*
X8513420Y-13811150D02*
X8532468Y-13820674D01*
X8532468Y-13820674D02*
X8541992Y-13839722D01*
X8541992Y-13839722D02*
X8541992Y-13858769D01*
X8541992Y-13858769D02*
X8446753Y-13877817D01*
X8618182Y-13934960D02*
X8637230Y-13944484D01*
X8637230Y-13944484D02*
X8675325Y-13944484D01*
X8675325Y-13944484D02*
X8694373Y-13934960D01*
X8694373Y-13934960D02*
X8703896Y-13915912D01*
X8703896Y-13915912D02*
X8703896Y-13906388D01*
X8703896Y-13906388D02*
X8694373Y-13887341D01*
X8694373Y-13887341D02*
X8675325Y-13877817D01*
X8675325Y-13877817D02*
X8646753Y-13877817D01*
X8646753Y-13877817D02*
X8627706Y-13868293D01*
X8627706Y-13868293D02*
X8618182Y-13849246D01*
X8618182Y-13849246D02*
X8618182Y-13839722D01*
X8618182Y-13839722D02*
X8627706Y-13820674D01*
X8627706Y-13820674D02*
X8646753Y-13811150D01*
X8646753Y-13811150D02*
X8675325Y-13811150D01*
X8675325Y-13811150D02*
X8694373Y-13820674D01*
X8770563Y-14020674D02*
X8780087Y-14011150D01*
X8780087Y-14011150D02*
X8799134Y-13982579D01*
X8799134Y-13982579D02*
X8808658Y-13963531D01*
X8808658Y-13963531D02*
X8818182Y-13934960D01*
X8818182Y-13934960D02*
X8827706Y-13887341D01*
X8827706Y-13887341D02*
X8827706Y-13849246D01*
X8827706Y-13849246D02*
X8818182Y-13801627D01*
X8818182Y-13801627D02*
X8808658Y-13773055D01*
X8808658Y-13773055D02*
X8799134Y-13754008D01*
X8799134Y-13754008D02*
X8780087Y-13725436D01*
X8780087Y-13725436D02*
X8770563Y-13715912D01*
D10*
X3995500Y-14117000D02*
G75*
G02*
X3915500Y-14117000I-40000J0D01*
G01*
X3915500Y-14117000D02*
G75*
G02*
X3995500Y-14117000I40000J0D01*
G01*
D11*
X4294372Y-14008484D02*
X4313420Y-14008484D01*
X4313420Y-14008484D02*
X4332467Y-14018008D01*
X4332467Y-14018008D02*
X4341991Y-14027531D01*
X4341991Y-14027531D02*
X4351515Y-14046579D01*
X4351515Y-14046579D02*
X4361039Y-14084674D01*
X4361039Y-14084674D02*
X4361039Y-14132293D01*
X4361039Y-14132293D02*
X4351515Y-14170388D01*
X4351515Y-14170388D02*
X4341991Y-14189436D01*
X4341991Y-14189436D02*
X4332467Y-14198960D01*
X4332467Y-14198960D02*
X4313420Y-14208484D01*
X4313420Y-14208484D02*
X4294372Y-14208484D01*
X4294372Y-14208484D02*
X4275324Y-14198960D01*
X4275324Y-14198960D02*
X4265801Y-14189436D01*
X4265801Y-14189436D02*
X4256277Y-14170388D01*
X4256277Y-14170388D02*
X4246753Y-14132293D01*
X4246753Y-14132293D02*
X4246753Y-14084674D01*
X4246753Y-14084674D02*
X4256277Y-14046579D01*
X4256277Y-14046579D02*
X4265801Y-14027531D01*
X4265801Y-14027531D02*
X4275324Y-14018008D01*
X4275324Y-14018008D02*
X4294372Y-14008484D01*
X4446753Y-14189436D02*
X4456277Y-14198960D01*
X4456277Y-14198960D02*
X4446753Y-14208484D01*
X4446753Y-14208484D02*
X4437229Y-14198960D01*
X4437229Y-14198960D02*
X4446753Y-14189436D01*
X4446753Y-14189436D02*
X4446753Y-14208484D01*
X4570563Y-14094198D02*
X4551515Y-14084674D01*
X4551515Y-14084674D02*
X4541991Y-14075150D01*
X4541991Y-14075150D02*
X4532467Y-14056103D01*
X4532467Y-14056103D02*
X4532467Y-14046579D01*
X4532467Y-14046579D02*
X4541991Y-14027531D01*
X4541991Y-14027531D02*
X4551515Y-14018008D01*
X4551515Y-14018008D02*
X4570563Y-14008484D01*
X4570563Y-14008484D02*
X4608658Y-14008484D01*
X4608658Y-14008484D02*
X4627705Y-14018008D01*
X4627705Y-14018008D02*
X4637229Y-14027531D01*
X4637229Y-14027531D02*
X4646753Y-14046579D01*
X4646753Y-14046579D02*
X4646753Y-14056103D01*
X4646753Y-14056103D02*
X4637229Y-14075150D01*
X4637229Y-14075150D02*
X4627705Y-14084674D01*
X4627705Y-14084674D02*
X4608658Y-14094198D01*
X4608658Y-14094198D02*
X4570563Y-14094198D01*
X4570563Y-14094198D02*
X4551515Y-14103722D01*
X4551515Y-14103722D02*
X4541991Y-14113246D01*
X4541991Y-14113246D02*
X4532467Y-14132293D01*
X4532467Y-14132293D02*
X4532467Y-14170388D01*
X4532467Y-14170388D02*
X4541991Y-14189436D01*
X4541991Y-14189436D02*
X4551515Y-14198960D01*
X4551515Y-14198960D02*
X4570563Y-14208484D01*
X4570563Y-14208484D02*
X4608658Y-14208484D01*
X4608658Y-14208484D02*
X4627705Y-14198960D01*
X4627705Y-14198960D02*
X4637229Y-14189436D01*
X4637229Y-14189436D02*
X4646753Y-14170388D01*
X4646753Y-14170388D02*
X4646753Y-14132293D01*
X4646753Y-14132293D02*
X4637229Y-14113246D01*
X4637229Y-14113246D02*
X4627705Y-14103722D01*
X4627705Y-14103722D02*
X4608658Y-14094198D01*
X4770563Y-14008484D02*
X4789610Y-14008484D01*
X4789610Y-14008484D02*
X4808658Y-14018008D01*
X4808658Y-14018008D02*
X4818182Y-14027531D01*
X4818182Y-14027531D02*
X4827705Y-14046579D01*
X4827705Y-14046579D02*
X4837229Y-14084674D01*
X4837229Y-14084674D02*
X4837229Y-14132293D01*
X4837229Y-14132293D02*
X4827705Y-14170388D01*
X4827705Y-14170388D02*
X4818182Y-14189436D01*
X4818182Y-14189436D02*
X4808658Y-14198960D01*
X4808658Y-14198960D02*
X4789610Y-14208484D01*
X4789610Y-14208484D02*
X4770563Y-14208484D01*
X4770563Y-14208484D02*
X4751515Y-14198960D01*
X4751515Y-14198960D02*
X4741991Y-14189436D01*
X4741991Y-14189436D02*
X4732467Y-14170388D01*
X4732467Y-14170388D02*
X4722944Y-14132293D01*
X4722944Y-14132293D02*
X4722944Y-14084674D01*
X4722944Y-14084674D02*
X4732467Y-14046579D01*
X4732467Y-14046579D02*
X4741991Y-14027531D01*
X4741991Y-14027531D02*
X4751515Y-14018008D01*
X4751515Y-14018008D02*
X4770563Y-14008484D01*
X4961039Y-14008484D02*
X4980086Y-14008484D01*
X4980086Y-14008484D02*
X4999134Y-14018008D01*
X4999134Y-14018008D02*
X5008658Y-14027531D01*
X5008658Y-14027531D02*
X5018182Y-14046579D01*
X5018182Y-14046579D02*
X5027705Y-14084674D01*
X5027705Y-14084674D02*
X5027705Y-14132293D01*
X5027705Y-14132293D02*
X5018182Y-14170388D01*
X5018182Y-14170388D02*
X5008658Y-14189436D01*
X5008658Y-14189436D02*
X4999134Y-14198960D01*
X4999134Y-14198960D02*
X4980086Y-14208484D01*
X4980086Y-14208484D02*
X4961039Y-14208484D01*
X4961039Y-14208484D02*
X4941991Y-14198960D01*
X4941991Y-14198960D02*
X4932467Y-14189436D01*
X4932467Y-14189436D02*
X4922944Y-14170388D01*
X4922944Y-14170388D02*
X4913420Y-14132293D01*
X4913420Y-14132293D02*
X4913420Y-14084674D01*
X4913420Y-14084674D02*
X4922944Y-14046579D01*
X4922944Y-14046579D02*
X4932467Y-14027531D01*
X4932467Y-14027531D02*
X4941991Y-14018008D01*
X4941991Y-14018008D02*
X4961039Y-14008484D01*
X5113420Y-14208484D02*
X5113420Y-14075150D01*
X5113420Y-14094198D02*
X5122944Y-14084674D01*
X5122944Y-14084674D02*
X5141991Y-14075150D01*
X5141991Y-14075150D02*
X5170563Y-14075150D01*
X5170563Y-14075150D02*
X5189610Y-14084674D01*
X5189610Y-14084674D02*
X5199134Y-14103722D01*
X5199134Y-14103722D02*
X5199134Y-14208484D01*
X5199134Y-14103722D02*
X5208658Y-14084674D01*
X5208658Y-14084674D02*
X5227705Y-14075150D01*
X5227705Y-14075150D02*
X5256277Y-14075150D01*
X5256277Y-14075150D02*
X5275325Y-14084674D01*
X5275325Y-14084674D02*
X5284848Y-14103722D01*
X5284848Y-14103722D02*
X5284848Y-14208484D01*
X5380086Y-14208484D02*
X5380086Y-14075150D01*
X5380086Y-14094198D02*
X5389610Y-14084674D01*
X5389610Y-14084674D02*
X5408658Y-14075150D01*
X5408658Y-14075150D02*
X5437229Y-14075150D01*
X5437229Y-14075150D02*
X5456277Y-14084674D01*
X5456277Y-14084674D02*
X5465801Y-14103722D01*
X5465801Y-14103722D02*
X5465801Y-14208484D01*
X5465801Y-14103722D02*
X5475325Y-14084674D01*
X5475325Y-14084674D02*
X5494372Y-14075150D01*
X5494372Y-14075150D02*
X5522944Y-14075150D01*
X5522944Y-14075150D02*
X5541991Y-14084674D01*
X5541991Y-14084674D02*
X5551515Y-14103722D01*
X5551515Y-14103722D02*
X5551515Y-14208484D01*
X5941991Y-13998960D02*
X5770563Y-14256103D01*
X6199134Y-14008484D02*
X6218182Y-14008484D01*
X6218182Y-14008484D02*
X6237229Y-14018008D01*
X6237229Y-14018008D02*
X6246753Y-14027531D01*
X6246753Y-14027531D02*
X6256277Y-14046579D01*
X6256277Y-14046579D02*
X6265801Y-14084674D01*
X6265801Y-14084674D02*
X6265801Y-14132293D01*
X6265801Y-14132293D02*
X6256277Y-14170388D01*
X6256277Y-14170388D02*
X6246753Y-14189436D01*
X6246753Y-14189436D02*
X6237229Y-14198960D01*
X6237229Y-14198960D02*
X6218182Y-14208484D01*
X6218182Y-14208484D02*
X6199134Y-14208484D01*
X6199134Y-14208484D02*
X6180086Y-14198960D01*
X6180086Y-14198960D02*
X6170563Y-14189436D01*
X6170563Y-14189436D02*
X6161039Y-14170388D01*
X6161039Y-14170388D02*
X6151515Y-14132293D01*
X6151515Y-14132293D02*
X6151515Y-14084674D01*
X6151515Y-14084674D02*
X6161039Y-14046579D01*
X6161039Y-14046579D02*
X6170563Y-14027531D01*
X6170563Y-14027531D02*
X6180086Y-14018008D01*
X6180086Y-14018008D02*
X6199134Y-14008484D01*
X6351515Y-14189436D02*
X6361039Y-14198960D01*
X6361039Y-14198960D02*
X6351515Y-14208484D01*
X6351515Y-14208484D02*
X6341991Y-14198960D01*
X6341991Y-14198960D02*
X6351515Y-14189436D01*
X6351515Y-14189436D02*
X6351515Y-14208484D01*
X6484848Y-14008484D02*
X6503896Y-14008484D01*
X6503896Y-14008484D02*
X6522944Y-14018008D01*
X6522944Y-14018008D02*
X6532467Y-14027531D01*
X6532467Y-14027531D02*
X6541991Y-14046579D01*
X6541991Y-14046579D02*
X6551515Y-14084674D01*
X6551515Y-14084674D02*
X6551515Y-14132293D01*
X6551515Y-14132293D02*
X6541991Y-14170388D01*
X6541991Y-14170388D02*
X6532467Y-14189436D01*
X6532467Y-14189436D02*
X6522944Y-14198960D01*
X6522944Y-14198960D02*
X6503896Y-14208484D01*
X6503896Y-14208484D02*
X6484848Y-14208484D01*
X6484848Y-14208484D02*
X6465801Y-14198960D01*
X6465801Y-14198960D02*
X6456277Y-14189436D01*
X6456277Y-14189436D02*
X6446753Y-14170388D01*
X6446753Y-14170388D02*
X6437229Y-14132293D01*
X6437229Y-14132293D02*
X6437229Y-14084674D01*
X6437229Y-14084674D02*
X6446753Y-14046579D01*
X6446753Y-14046579D02*
X6456277Y-14027531D01*
X6456277Y-14027531D02*
X6465801Y-14018008D01*
X6465801Y-14018008D02*
X6484848Y-14008484D01*
X6618182Y-14008484D02*
X6741991Y-14008484D01*
X6741991Y-14008484D02*
X6675325Y-14084674D01*
X6675325Y-14084674D02*
X6703896Y-14084674D01*
X6703896Y-14084674D02*
X6722944Y-14094198D01*
X6722944Y-14094198D02*
X6732467Y-14103722D01*
X6732467Y-14103722D02*
X6741991Y-14122769D01*
X6741991Y-14122769D02*
X6741991Y-14170388D01*
X6741991Y-14170388D02*
X6732467Y-14189436D01*
X6732467Y-14189436D02*
X6722944Y-14198960D01*
X6722944Y-14198960D02*
X6703896Y-14208484D01*
X6703896Y-14208484D02*
X6646753Y-14208484D01*
X6646753Y-14208484D02*
X6627706Y-14198960D01*
X6627706Y-14198960D02*
X6618182Y-14189436D01*
X6932467Y-14208484D02*
X6818182Y-14208484D01*
X6875325Y-14208484D02*
X6875325Y-14008484D01*
X6875325Y-14008484D02*
X6856277Y-14037055D01*
X6856277Y-14037055D02*
X6837229Y-14056103D01*
X6837229Y-14056103D02*
X6818182Y-14065627D01*
X7113420Y-14008484D02*
X7018182Y-14008484D01*
X7018182Y-14008484D02*
X7008658Y-14103722D01*
X7008658Y-14103722D02*
X7018182Y-14094198D01*
X7018182Y-14094198D02*
X7037229Y-14084674D01*
X7037229Y-14084674D02*
X7084848Y-14084674D01*
X7084848Y-14084674D02*
X7103896Y-14094198D01*
X7103896Y-14094198D02*
X7113420Y-14103722D01*
X7113420Y-14103722D02*
X7122944Y-14122769D01*
X7122944Y-14122769D02*
X7122944Y-14170388D01*
X7122944Y-14170388D02*
X7113420Y-14189436D01*
X7113420Y-14189436D02*
X7103896Y-14198960D01*
X7103896Y-14198960D02*
X7084848Y-14208484D01*
X7084848Y-14208484D02*
X7037229Y-14208484D01*
X7037229Y-14208484D02*
X7018182Y-14198960D01*
X7018182Y-14198960D02*
X7008658Y-14189436D01*
X7199134Y-14008484D02*
X7199134Y-14046579D01*
X7275325Y-14008484D02*
X7275325Y-14046579D01*
X7570563Y-14284674D02*
X7561039Y-14275150D01*
X7561039Y-14275150D02*
X7541991Y-14246579D01*
X7541991Y-14246579D02*
X7532468Y-14227531D01*
X7532468Y-14227531D02*
X7522944Y-14198960D01*
X7522944Y-14198960D02*
X7513420Y-14151341D01*
X7513420Y-14151341D02*
X7513420Y-14113246D01*
X7513420Y-14113246D02*
X7522944Y-14065627D01*
X7522944Y-14065627D02*
X7532468Y-14037055D01*
X7532468Y-14037055D02*
X7541991Y-14018008D01*
X7541991Y-14018008D02*
X7561039Y-13989436D01*
X7561039Y-13989436D02*
X7570563Y-13979912D01*
X7741991Y-14008484D02*
X7646753Y-14008484D01*
X7646753Y-14008484D02*
X7637229Y-14103722D01*
X7637229Y-14103722D02*
X7646753Y-14094198D01*
X7646753Y-14094198D02*
X7665801Y-14084674D01*
X7665801Y-14084674D02*
X7713420Y-14084674D01*
X7713420Y-14084674D02*
X7732468Y-14094198D01*
X7732468Y-14094198D02*
X7741991Y-14103722D01*
X7741991Y-14103722D02*
X7751515Y-14122769D01*
X7751515Y-14122769D02*
X7751515Y-14170388D01*
X7751515Y-14170388D02*
X7741991Y-14189436D01*
X7741991Y-14189436D02*
X7732468Y-14198960D01*
X7732468Y-14198960D02*
X7713420Y-14208484D01*
X7713420Y-14208484D02*
X7665801Y-14208484D01*
X7665801Y-14208484D02*
X7646753Y-14198960D01*
X7646753Y-14198960D02*
X7637229Y-14189436D01*
X7922944Y-14075150D02*
X7922944Y-14208484D01*
X7875325Y-13998960D02*
X7827706Y-14141817D01*
X7827706Y-14141817D02*
X7951515Y-14141817D01*
X8180087Y-14208484D02*
X8180087Y-14008484D01*
X8265801Y-14208484D02*
X8265801Y-14103722D01*
X8265801Y-14103722D02*
X8256277Y-14084674D01*
X8256277Y-14084674D02*
X8237230Y-14075150D01*
X8237230Y-14075150D02*
X8208658Y-14075150D01*
X8208658Y-14075150D02*
X8189610Y-14084674D01*
X8189610Y-14084674D02*
X8180087Y-14094198D01*
X8389611Y-14208484D02*
X8370563Y-14198960D01*
X8370563Y-14198960D02*
X8361039Y-14189436D01*
X8361039Y-14189436D02*
X8351515Y-14170388D01*
X8351515Y-14170388D02*
X8351515Y-14113246D01*
X8351515Y-14113246D02*
X8361039Y-14094198D01*
X8361039Y-14094198D02*
X8370563Y-14084674D01*
X8370563Y-14084674D02*
X8389611Y-14075150D01*
X8389611Y-14075150D02*
X8418182Y-14075150D01*
X8418182Y-14075150D02*
X8437230Y-14084674D01*
X8437230Y-14084674D02*
X8446753Y-14094198D01*
X8446753Y-14094198D02*
X8456277Y-14113246D01*
X8456277Y-14113246D02*
X8456277Y-14170388D01*
X8456277Y-14170388D02*
X8446753Y-14189436D01*
X8446753Y-14189436D02*
X8437230Y-14198960D01*
X8437230Y-14198960D02*
X8418182Y-14208484D01*
X8418182Y-14208484D02*
X8389611Y-14208484D01*
X8570563Y-14208484D02*
X8551515Y-14198960D01*
X8551515Y-14198960D02*
X8541992Y-14179912D01*
X8541992Y-14179912D02*
X8541992Y-14008484D01*
X8722944Y-14198960D02*
X8703896Y-14208484D01*
X8703896Y-14208484D02*
X8665801Y-14208484D01*
X8665801Y-14208484D02*
X8646753Y-14198960D01*
X8646753Y-14198960D02*
X8637230Y-14179912D01*
X8637230Y-14179912D02*
X8637230Y-14103722D01*
X8637230Y-14103722D02*
X8646753Y-14084674D01*
X8646753Y-14084674D02*
X8665801Y-14075150D01*
X8665801Y-14075150D02*
X8703896Y-14075150D01*
X8703896Y-14075150D02*
X8722944Y-14084674D01*
X8722944Y-14084674D02*
X8732468Y-14103722D01*
X8732468Y-14103722D02*
X8732468Y-14122769D01*
X8732468Y-14122769D02*
X8637230Y-14141817D01*
X8808658Y-14198960D02*
X8827706Y-14208484D01*
X8827706Y-14208484D02*
X8865801Y-14208484D01*
X8865801Y-14208484D02*
X8884849Y-14198960D01*
X8884849Y-14198960D02*
X8894373Y-14179912D01*
X8894373Y-14179912D02*
X8894373Y-14170388D01*
X8894373Y-14170388D02*
X8884849Y-14151341D01*
X8884849Y-14151341D02*
X8865801Y-14141817D01*
X8865801Y-14141817D02*
X8837230Y-14141817D01*
X8837230Y-14141817D02*
X8818182Y-14132293D01*
X8818182Y-14132293D02*
X8808658Y-14113246D01*
X8808658Y-14113246D02*
X8808658Y-14103722D01*
X8808658Y-14103722D02*
X8818182Y-14084674D01*
X8818182Y-14084674D02*
X8837230Y-14075150D01*
X8837230Y-14075150D02*
X8865801Y-14075150D01*
X8865801Y-14075150D02*
X8884849Y-14084674D01*
X8961039Y-14284674D02*
X8970563Y-14275150D01*
X8970563Y-14275150D02*
X8989611Y-14246579D01*
X8989611Y-14246579D02*
X8999134Y-14227531D01*
X8999134Y-14227531D02*
X9008658Y-14198960D01*
X9008658Y-14198960D02*
X9018182Y-14151341D01*
X9018182Y-14151341D02*
X9018182Y-14113246D01*
X9018182Y-14113246D02*
X9008658Y-14065627D01*
X9008658Y-14065627D02*
X8999134Y-14037055D01*
X8999134Y-14037055D02*
X8989611Y-14018008D01*
X8989611Y-14018008D02*
X8970563Y-13989436D01*
X8970563Y-13989436D02*
X8961039Y-13979912D01*
D10*
X3950500Y-14336000D02*
X3950500Y-14426000D01*
X3905500Y-14381000D02*
X3995500Y-14381000D01*
D11*
X4294372Y-14272484D02*
X4313420Y-14272484D01*
X4313420Y-14272484D02*
X4332467Y-14282008D01*
X4332467Y-14282008D02*
X4341991Y-14291531D01*
X4341991Y-14291531D02*
X4351515Y-14310579D01*
X4351515Y-14310579D02*
X4361039Y-14348674D01*
X4361039Y-14348674D02*
X4361039Y-14396293D01*
X4361039Y-14396293D02*
X4351515Y-14434388D01*
X4351515Y-14434388D02*
X4341991Y-14453436D01*
X4341991Y-14453436D02*
X4332467Y-14462960D01*
X4332467Y-14462960D02*
X4313420Y-14472484D01*
X4313420Y-14472484D02*
X4294372Y-14472484D01*
X4294372Y-14472484D02*
X4275324Y-14462960D01*
X4275324Y-14462960D02*
X4265801Y-14453436D01*
X4265801Y-14453436D02*
X4256277Y-14434388D01*
X4256277Y-14434388D02*
X4246753Y-14396293D01*
X4246753Y-14396293D02*
X4246753Y-14348674D01*
X4246753Y-14348674D02*
X4256277Y-14310579D01*
X4256277Y-14310579D02*
X4265801Y-14291531D01*
X4265801Y-14291531D02*
X4275324Y-14282008D01*
X4275324Y-14282008D02*
X4294372Y-14272484D01*
X4446753Y-14453436D02*
X4456277Y-14462960D01*
X4456277Y-14462960D02*
X4446753Y-14472484D01*
X4446753Y-14472484D02*
X4437229Y-14462960D01*
X4437229Y-14462960D02*
X4446753Y-14453436D01*
X4446753Y-14453436D02*
X4446753Y-14472484D01*
X4551515Y-14472484D02*
X4589610Y-14472484D01*
X4589610Y-14472484D02*
X4608658Y-14462960D01*
X4608658Y-14462960D02*
X4618182Y-14453436D01*
X4618182Y-14453436D02*
X4637229Y-14424865D01*
X4637229Y-14424865D02*
X4646753Y-14386769D01*
X4646753Y-14386769D02*
X4646753Y-14310579D01*
X4646753Y-14310579D02*
X4637229Y-14291531D01*
X4637229Y-14291531D02*
X4627705Y-14282008D01*
X4627705Y-14282008D02*
X4608658Y-14272484D01*
X4608658Y-14272484D02*
X4570563Y-14272484D01*
X4570563Y-14272484D02*
X4551515Y-14282008D01*
X4551515Y-14282008D02*
X4541991Y-14291531D01*
X4541991Y-14291531D02*
X4532467Y-14310579D01*
X4532467Y-14310579D02*
X4532467Y-14358198D01*
X4532467Y-14358198D02*
X4541991Y-14377246D01*
X4541991Y-14377246D02*
X4551515Y-14386769D01*
X4551515Y-14386769D02*
X4570563Y-14396293D01*
X4570563Y-14396293D02*
X4608658Y-14396293D01*
X4608658Y-14396293D02*
X4627705Y-14386769D01*
X4627705Y-14386769D02*
X4637229Y-14377246D01*
X4637229Y-14377246D02*
X4646753Y-14358198D01*
X4770563Y-14272484D02*
X4789610Y-14272484D01*
X4789610Y-14272484D02*
X4808658Y-14282008D01*
X4808658Y-14282008D02*
X4818182Y-14291531D01*
X4818182Y-14291531D02*
X4827705Y-14310579D01*
X4827705Y-14310579D02*
X4837229Y-14348674D01*
X4837229Y-14348674D02*
X4837229Y-14396293D01*
X4837229Y-14396293D02*
X4827705Y-14434388D01*
X4827705Y-14434388D02*
X4818182Y-14453436D01*
X4818182Y-14453436D02*
X4808658Y-14462960D01*
X4808658Y-14462960D02*
X4789610Y-14472484D01*
X4789610Y-14472484D02*
X4770563Y-14472484D01*
X4770563Y-14472484D02*
X4751515Y-14462960D01*
X4751515Y-14462960D02*
X4741991Y-14453436D01*
X4741991Y-14453436D02*
X4732467Y-14434388D01*
X4732467Y-14434388D02*
X4722944Y-14396293D01*
X4722944Y-14396293D02*
X4722944Y-14348674D01*
X4722944Y-14348674D02*
X4732467Y-14310579D01*
X4732467Y-14310579D02*
X4741991Y-14291531D01*
X4741991Y-14291531D02*
X4751515Y-14282008D01*
X4751515Y-14282008D02*
X4770563Y-14272484D01*
X4961039Y-14272484D02*
X4980086Y-14272484D01*
X4980086Y-14272484D02*
X4999134Y-14282008D01*
X4999134Y-14282008D02*
X5008658Y-14291531D01*
X5008658Y-14291531D02*
X5018182Y-14310579D01*
X5018182Y-14310579D02*
X5027705Y-14348674D01*
X5027705Y-14348674D02*
X5027705Y-14396293D01*
X5027705Y-14396293D02*
X5018182Y-14434388D01*
X5018182Y-14434388D02*
X5008658Y-14453436D01*
X5008658Y-14453436D02*
X4999134Y-14462960D01*
X4999134Y-14462960D02*
X4980086Y-14472484D01*
X4980086Y-14472484D02*
X4961039Y-14472484D01*
X4961039Y-14472484D02*
X4941991Y-14462960D01*
X4941991Y-14462960D02*
X4932467Y-14453436D01*
X4932467Y-14453436D02*
X4922944Y-14434388D01*
X4922944Y-14434388D02*
X4913420Y-14396293D01*
X4913420Y-14396293D02*
X4913420Y-14348674D01*
X4913420Y-14348674D02*
X4922944Y-14310579D01*
X4922944Y-14310579D02*
X4932467Y-14291531D01*
X4932467Y-14291531D02*
X4941991Y-14282008D01*
X4941991Y-14282008D02*
X4961039Y-14272484D01*
X5113420Y-14472484D02*
X5113420Y-14339150D01*
X5113420Y-14358198D02*
X5122944Y-14348674D01*
X5122944Y-14348674D02*
X5141991Y-14339150D01*
X5141991Y-14339150D02*
X5170563Y-14339150D01*
X5170563Y-14339150D02*
X5189610Y-14348674D01*
X5189610Y-14348674D02*
X5199134Y-14367722D01*
X5199134Y-14367722D02*
X5199134Y-14472484D01*
X5199134Y-14367722D02*
X5208658Y-14348674D01*
X5208658Y-14348674D02*
X5227705Y-14339150D01*
X5227705Y-14339150D02*
X5256277Y-14339150D01*
X5256277Y-14339150D02*
X5275325Y-14348674D01*
X5275325Y-14348674D02*
X5284848Y-14367722D01*
X5284848Y-14367722D02*
X5284848Y-14472484D01*
X5380086Y-14472484D02*
X5380086Y-14339150D01*
X5380086Y-14358198D02*
X5389610Y-14348674D01*
X5389610Y-14348674D02*
X5408658Y-14339150D01*
X5408658Y-14339150D02*
X5437229Y-14339150D01*
X5437229Y-14339150D02*
X5456277Y-14348674D01*
X5456277Y-14348674D02*
X5465801Y-14367722D01*
X5465801Y-14367722D02*
X5465801Y-14472484D01*
X5465801Y-14367722D02*
X5475325Y-14348674D01*
X5475325Y-14348674D02*
X5494372Y-14339150D01*
X5494372Y-14339150D02*
X5522944Y-14339150D01*
X5522944Y-14339150D02*
X5541991Y-14348674D01*
X5541991Y-14348674D02*
X5551515Y-14367722D01*
X5551515Y-14367722D02*
X5551515Y-14472484D01*
X5941991Y-14262960D02*
X5770563Y-14520103D01*
X6199134Y-14272484D02*
X6218182Y-14272484D01*
X6218182Y-14272484D02*
X6237229Y-14282008D01*
X6237229Y-14282008D02*
X6246753Y-14291531D01*
X6246753Y-14291531D02*
X6256277Y-14310579D01*
X6256277Y-14310579D02*
X6265801Y-14348674D01*
X6265801Y-14348674D02*
X6265801Y-14396293D01*
X6265801Y-14396293D02*
X6256277Y-14434388D01*
X6256277Y-14434388D02*
X6246753Y-14453436D01*
X6246753Y-14453436D02*
X6237229Y-14462960D01*
X6237229Y-14462960D02*
X6218182Y-14472484D01*
X6218182Y-14472484D02*
X6199134Y-14472484D01*
X6199134Y-14472484D02*
X6180086Y-14462960D01*
X6180086Y-14462960D02*
X6170563Y-14453436D01*
X6170563Y-14453436D02*
X6161039Y-14434388D01*
X6161039Y-14434388D02*
X6151515Y-14396293D01*
X6151515Y-14396293D02*
X6151515Y-14348674D01*
X6151515Y-14348674D02*
X6161039Y-14310579D01*
X6161039Y-14310579D02*
X6170563Y-14291531D01*
X6170563Y-14291531D02*
X6180086Y-14282008D01*
X6180086Y-14282008D02*
X6199134Y-14272484D01*
X6351515Y-14453436D02*
X6361039Y-14462960D01*
X6361039Y-14462960D02*
X6351515Y-14472484D01*
X6351515Y-14472484D02*
X6341991Y-14462960D01*
X6341991Y-14462960D02*
X6351515Y-14453436D01*
X6351515Y-14453436D02*
X6351515Y-14472484D01*
X6484848Y-14272484D02*
X6503896Y-14272484D01*
X6503896Y-14272484D02*
X6522944Y-14282008D01*
X6522944Y-14282008D02*
X6532467Y-14291531D01*
X6532467Y-14291531D02*
X6541991Y-14310579D01*
X6541991Y-14310579D02*
X6551515Y-14348674D01*
X6551515Y-14348674D02*
X6551515Y-14396293D01*
X6551515Y-14396293D02*
X6541991Y-14434388D01*
X6541991Y-14434388D02*
X6532467Y-14453436D01*
X6532467Y-14453436D02*
X6522944Y-14462960D01*
X6522944Y-14462960D02*
X6503896Y-14472484D01*
X6503896Y-14472484D02*
X6484848Y-14472484D01*
X6484848Y-14472484D02*
X6465801Y-14462960D01*
X6465801Y-14462960D02*
X6456277Y-14453436D01*
X6456277Y-14453436D02*
X6446753Y-14434388D01*
X6446753Y-14434388D02*
X6437229Y-14396293D01*
X6437229Y-14396293D02*
X6437229Y-14348674D01*
X6437229Y-14348674D02*
X6446753Y-14310579D01*
X6446753Y-14310579D02*
X6456277Y-14291531D01*
X6456277Y-14291531D02*
X6465801Y-14282008D01*
X6465801Y-14282008D02*
X6484848Y-14272484D01*
X6618182Y-14272484D02*
X6741991Y-14272484D01*
X6741991Y-14272484D02*
X6675325Y-14348674D01*
X6675325Y-14348674D02*
X6703896Y-14348674D01*
X6703896Y-14348674D02*
X6722944Y-14358198D01*
X6722944Y-14358198D02*
X6732467Y-14367722D01*
X6732467Y-14367722D02*
X6741991Y-14386769D01*
X6741991Y-14386769D02*
X6741991Y-14434388D01*
X6741991Y-14434388D02*
X6732467Y-14453436D01*
X6732467Y-14453436D02*
X6722944Y-14462960D01*
X6722944Y-14462960D02*
X6703896Y-14472484D01*
X6703896Y-14472484D02*
X6646753Y-14472484D01*
X6646753Y-14472484D02*
X6627706Y-14462960D01*
X6627706Y-14462960D02*
X6618182Y-14453436D01*
X6922944Y-14272484D02*
X6827706Y-14272484D01*
X6827706Y-14272484D02*
X6818182Y-14367722D01*
X6818182Y-14367722D02*
X6827706Y-14358198D01*
X6827706Y-14358198D02*
X6846753Y-14348674D01*
X6846753Y-14348674D02*
X6894372Y-14348674D01*
X6894372Y-14348674D02*
X6913420Y-14358198D01*
X6913420Y-14358198D02*
X6922944Y-14367722D01*
X6922944Y-14367722D02*
X6932467Y-14386769D01*
X6932467Y-14386769D02*
X6932467Y-14434388D01*
X6932467Y-14434388D02*
X6922944Y-14453436D01*
X6922944Y-14453436D02*
X6913420Y-14462960D01*
X6913420Y-14462960D02*
X6894372Y-14472484D01*
X6894372Y-14472484D02*
X6846753Y-14472484D01*
X6846753Y-14472484D02*
X6827706Y-14462960D01*
X6827706Y-14462960D02*
X6818182Y-14453436D01*
X7103896Y-14339150D02*
X7103896Y-14472484D01*
X7056277Y-14262960D02*
X7008658Y-14405817D01*
X7008658Y-14405817D02*
X7132467Y-14405817D01*
X7199134Y-14272484D02*
X7199134Y-14310579D01*
X7275325Y-14272484D02*
X7275325Y-14310579D01*
X7570563Y-14548674D02*
X7561039Y-14539150D01*
X7561039Y-14539150D02*
X7541991Y-14510579D01*
X7541991Y-14510579D02*
X7532468Y-14491531D01*
X7532468Y-14491531D02*
X7522944Y-14462960D01*
X7522944Y-14462960D02*
X7513420Y-14415341D01*
X7513420Y-14415341D02*
X7513420Y-14377246D01*
X7513420Y-14377246D02*
X7522944Y-14329627D01*
X7522944Y-14329627D02*
X7532468Y-14301055D01*
X7532468Y-14301055D02*
X7541991Y-14282008D01*
X7541991Y-14282008D02*
X7561039Y-14253436D01*
X7561039Y-14253436D02*
X7570563Y-14243912D01*
X7751515Y-14472484D02*
X7637229Y-14472484D01*
X7694372Y-14472484D02*
X7694372Y-14272484D01*
X7694372Y-14272484D02*
X7675325Y-14301055D01*
X7675325Y-14301055D02*
X7656277Y-14320103D01*
X7656277Y-14320103D02*
X7637229Y-14329627D01*
X7875325Y-14272484D02*
X7894372Y-14272484D01*
X7894372Y-14272484D02*
X7913420Y-14282008D01*
X7913420Y-14282008D02*
X7922944Y-14291531D01*
X7922944Y-14291531D02*
X7932468Y-14310579D01*
X7932468Y-14310579D02*
X7941991Y-14348674D01*
X7941991Y-14348674D02*
X7941991Y-14396293D01*
X7941991Y-14396293D02*
X7932468Y-14434388D01*
X7932468Y-14434388D02*
X7922944Y-14453436D01*
X7922944Y-14453436D02*
X7913420Y-14462960D01*
X7913420Y-14462960D02*
X7894372Y-14472484D01*
X7894372Y-14472484D02*
X7875325Y-14472484D01*
X7875325Y-14472484D02*
X7856277Y-14462960D01*
X7856277Y-14462960D02*
X7846753Y-14453436D01*
X7846753Y-14453436D02*
X7837229Y-14434388D01*
X7837229Y-14434388D02*
X7827706Y-14396293D01*
X7827706Y-14396293D02*
X7827706Y-14348674D01*
X7827706Y-14348674D02*
X7837229Y-14310579D01*
X7837229Y-14310579D02*
X7846753Y-14291531D01*
X7846753Y-14291531D02*
X7856277Y-14282008D01*
X7856277Y-14282008D02*
X7875325Y-14272484D01*
X8180087Y-14472484D02*
X8180087Y-14272484D01*
X8265801Y-14472484D02*
X8265801Y-14367722D01*
X8265801Y-14367722D02*
X8256277Y-14348674D01*
X8256277Y-14348674D02*
X8237230Y-14339150D01*
X8237230Y-14339150D02*
X8208658Y-14339150D01*
X8208658Y-14339150D02*
X8189610Y-14348674D01*
X8189610Y-14348674D02*
X8180087Y-14358198D01*
X8389611Y-14472484D02*
X8370563Y-14462960D01*
X8370563Y-14462960D02*
X8361039Y-14453436D01*
X8361039Y-14453436D02*
X8351515Y-14434388D01*
X8351515Y-14434388D02*
X8351515Y-14377246D01*
X8351515Y-14377246D02*
X8361039Y-14358198D01*
X8361039Y-14358198D02*
X8370563Y-14348674D01*
X8370563Y-14348674D02*
X8389611Y-14339150D01*
X8389611Y-14339150D02*
X8418182Y-14339150D01*
X8418182Y-14339150D02*
X8437230Y-14348674D01*
X8437230Y-14348674D02*
X8446753Y-14358198D01*
X8446753Y-14358198D02*
X8456277Y-14377246D01*
X8456277Y-14377246D02*
X8456277Y-14434388D01*
X8456277Y-14434388D02*
X8446753Y-14453436D01*
X8446753Y-14453436D02*
X8437230Y-14462960D01*
X8437230Y-14462960D02*
X8418182Y-14472484D01*
X8418182Y-14472484D02*
X8389611Y-14472484D01*
X8570563Y-14472484D02*
X8551515Y-14462960D01*
X8551515Y-14462960D02*
X8541992Y-14443912D01*
X8541992Y-14443912D02*
X8541992Y-14272484D01*
X8722944Y-14462960D02*
X8703896Y-14472484D01*
X8703896Y-14472484D02*
X8665801Y-14472484D01*
X8665801Y-14472484D02*
X8646753Y-14462960D01*
X8646753Y-14462960D02*
X8637230Y-14443912D01*
X8637230Y-14443912D02*
X8637230Y-14367722D01*
X8637230Y-14367722D02*
X8646753Y-14348674D01*
X8646753Y-14348674D02*
X8665801Y-14339150D01*
X8665801Y-14339150D02*
X8703896Y-14339150D01*
X8703896Y-14339150D02*
X8722944Y-14348674D01*
X8722944Y-14348674D02*
X8732468Y-14367722D01*
X8732468Y-14367722D02*
X8732468Y-14386769D01*
X8732468Y-14386769D02*
X8637230Y-14405817D01*
X8808658Y-14462960D02*
X8827706Y-14472484D01*
X8827706Y-14472484D02*
X8865801Y-14472484D01*
X8865801Y-14472484D02*
X8884849Y-14462960D01*
X8884849Y-14462960D02*
X8894373Y-14443912D01*
X8894373Y-14443912D02*
X8894373Y-14434388D01*
X8894373Y-14434388D02*
X8884849Y-14415341D01*
X8884849Y-14415341D02*
X8865801Y-14405817D01*
X8865801Y-14405817D02*
X8837230Y-14405817D01*
X8837230Y-14405817D02*
X8818182Y-14396293D01*
X8818182Y-14396293D02*
X8808658Y-14377246D01*
X8808658Y-14377246D02*
X8808658Y-14367722D01*
X8808658Y-14367722D02*
X8818182Y-14348674D01*
X8818182Y-14348674D02*
X8837230Y-14339150D01*
X8837230Y-14339150D02*
X8865801Y-14339150D01*
X8865801Y-14339150D02*
X8884849Y-14348674D01*
X8961039Y-14548674D02*
X8970563Y-14539150D01*
X8970563Y-14539150D02*
X8989611Y-14510579D01*
X8989611Y-14510579D02*
X8999134Y-14491531D01*
X8999134Y-14491531D02*
X9008658Y-14462960D01*
X9008658Y-14462960D02*
X9018182Y-14415341D01*
X9018182Y-14415341D02*
X9018182Y-14377246D01*
X9018182Y-14377246D02*
X9008658Y-14329627D01*
X9008658Y-14329627D02*
X8999134Y-14301055D01*
X8999134Y-14301055D02*
X8989611Y-14282008D01*
X8989611Y-14282008D02*
X8970563Y-14253436D01*
X8970563Y-14253436D02*
X8961039Y-14243912D01*
D10*
X3981588Y-14678588D02*
X3981588Y-14611412D01*
X3914412Y-14611412D01*
X3914412Y-14678588D01*
X3981588Y-14678588D01*
D11*
X4294372Y-14536484D02*
X4313420Y-14536484D01*
X4313420Y-14536484D02*
X4332467Y-14546008D01*
X4332467Y-14546008D02*
X4341991Y-14555531D01*
X4341991Y-14555531D02*
X4351515Y-14574579D01*
X4351515Y-14574579D02*
X4361039Y-14612674D01*
X4361039Y-14612674D02*
X4361039Y-14660293D01*
X4361039Y-14660293D02*
X4351515Y-14698388D01*
X4351515Y-14698388D02*
X4341991Y-14717436D01*
X4341991Y-14717436D02*
X4332467Y-14726960D01*
X4332467Y-14726960D02*
X4313420Y-14736484D01*
X4313420Y-14736484D02*
X4294372Y-14736484D01*
X4294372Y-14736484D02*
X4275324Y-14726960D01*
X4275324Y-14726960D02*
X4265801Y-14717436D01*
X4265801Y-14717436D02*
X4256277Y-14698388D01*
X4256277Y-14698388D02*
X4246753Y-14660293D01*
X4246753Y-14660293D02*
X4246753Y-14612674D01*
X4246753Y-14612674D02*
X4256277Y-14574579D01*
X4256277Y-14574579D02*
X4265801Y-14555531D01*
X4265801Y-14555531D02*
X4275324Y-14546008D01*
X4275324Y-14546008D02*
X4294372Y-14536484D01*
X4446753Y-14717436D02*
X4456277Y-14726960D01*
X4456277Y-14726960D02*
X4446753Y-14736484D01*
X4446753Y-14736484D02*
X4437229Y-14726960D01*
X4437229Y-14726960D02*
X4446753Y-14717436D01*
X4446753Y-14717436D02*
X4446753Y-14736484D01*
X4551515Y-14736484D02*
X4589610Y-14736484D01*
X4589610Y-14736484D02*
X4608658Y-14726960D01*
X4608658Y-14726960D02*
X4618182Y-14717436D01*
X4618182Y-14717436D02*
X4637229Y-14688865D01*
X4637229Y-14688865D02*
X4646753Y-14650769D01*
X4646753Y-14650769D02*
X4646753Y-14574579D01*
X4646753Y-14574579D02*
X4637229Y-14555531D01*
X4637229Y-14555531D02*
X4627705Y-14546008D01*
X4627705Y-14546008D02*
X4608658Y-14536484D01*
X4608658Y-14536484D02*
X4570563Y-14536484D01*
X4570563Y-14536484D02*
X4551515Y-14546008D01*
X4551515Y-14546008D02*
X4541991Y-14555531D01*
X4541991Y-14555531D02*
X4532467Y-14574579D01*
X4532467Y-14574579D02*
X4532467Y-14622198D01*
X4532467Y-14622198D02*
X4541991Y-14641246D01*
X4541991Y-14641246D02*
X4551515Y-14650769D01*
X4551515Y-14650769D02*
X4570563Y-14660293D01*
X4570563Y-14660293D02*
X4608658Y-14660293D01*
X4608658Y-14660293D02*
X4627705Y-14650769D01*
X4627705Y-14650769D02*
X4637229Y-14641246D01*
X4637229Y-14641246D02*
X4646753Y-14622198D01*
X4827705Y-14536484D02*
X4732467Y-14536484D01*
X4732467Y-14536484D02*
X4722944Y-14631722D01*
X4722944Y-14631722D02*
X4732467Y-14622198D01*
X4732467Y-14622198D02*
X4751515Y-14612674D01*
X4751515Y-14612674D02*
X4799134Y-14612674D01*
X4799134Y-14612674D02*
X4818182Y-14622198D01*
X4818182Y-14622198D02*
X4827705Y-14631722D01*
X4827705Y-14631722D02*
X4837229Y-14650769D01*
X4837229Y-14650769D02*
X4837229Y-14698388D01*
X4837229Y-14698388D02*
X4827705Y-14717436D01*
X4827705Y-14717436D02*
X4818182Y-14726960D01*
X4818182Y-14726960D02*
X4799134Y-14736484D01*
X4799134Y-14736484D02*
X4751515Y-14736484D01*
X4751515Y-14736484D02*
X4732467Y-14726960D01*
X4732467Y-14726960D02*
X4722944Y-14717436D01*
X4961039Y-14536484D02*
X4980086Y-14536484D01*
X4980086Y-14536484D02*
X4999134Y-14546008D01*
X4999134Y-14546008D02*
X5008658Y-14555531D01*
X5008658Y-14555531D02*
X5018182Y-14574579D01*
X5018182Y-14574579D02*
X5027705Y-14612674D01*
X5027705Y-14612674D02*
X5027705Y-14660293D01*
X5027705Y-14660293D02*
X5018182Y-14698388D01*
X5018182Y-14698388D02*
X5008658Y-14717436D01*
X5008658Y-14717436D02*
X4999134Y-14726960D01*
X4999134Y-14726960D02*
X4980086Y-14736484D01*
X4980086Y-14736484D02*
X4961039Y-14736484D01*
X4961039Y-14736484D02*
X4941991Y-14726960D01*
X4941991Y-14726960D02*
X4932467Y-14717436D01*
X4932467Y-14717436D02*
X4922944Y-14698388D01*
X4922944Y-14698388D02*
X4913420Y-14660293D01*
X4913420Y-14660293D02*
X4913420Y-14612674D01*
X4913420Y-14612674D02*
X4922944Y-14574579D01*
X4922944Y-14574579D02*
X4932467Y-14555531D01*
X4932467Y-14555531D02*
X4941991Y-14546008D01*
X4941991Y-14546008D02*
X4961039Y-14536484D01*
X5113420Y-14736484D02*
X5113420Y-14603150D01*
X5113420Y-14622198D02*
X5122944Y-14612674D01*
X5122944Y-14612674D02*
X5141991Y-14603150D01*
X5141991Y-14603150D02*
X5170563Y-14603150D01*
X5170563Y-14603150D02*
X5189610Y-14612674D01*
X5189610Y-14612674D02*
X5199134Y-14631722D01*
X5199134Y-14631722D02*
X5199134Y-14736484D01*
X5199134Y-14631722D02*
X5208658Y-14612674D01*
X5208658Y-14612674D02*
X5227705Y-14603150D01*
X5227705Y-14603150D02*
X5256277Y-14603150D01*
X5256277Y-14603150D02*
X5275325Y-14612674D01*
X5275325Y-14612674D02*
X5284848Y-14631722D01*
X5284848Y-14631722D02*
X5284848Y-14736484D01*
X5380086Y-14736484D02*
X5380086Y-14603150D01*
X5380086Y-14622198D02*
X5389610Y-14612674D01*
X5389610Y-14612674D02*
X5408658Y-14603150D01*
X5408658Y-14603150D02*
X5437229Y-14603150D01*
X5437229Y-14603150D02*
X5456277Y-14612674D01*
X5456277Y-14612674D02*
X5465801Y-14631722D01*
X5465801Y-14631722D02*
X5465801Y-14736484D01*
X5465801Y-14631722D02*
X5475325Y-14612674D01*
X5475325Y-14612674D02*
X5494372Y-14603150D01*
X5494372Y-14603150D02*
X5522944Y-14603150D01*
X5522944Y-14603150D02*
X5541991Y-14612674D01*
X5541991Y-14612674D02*
X5551515Y-14631722D01*
X5551515Y-14631722D02*
X5551515Y-14736484D01*
X5941991Y-14526960D02*
X5770563Y-14784103D01*
X6199134Y-14536484D02*
X6218182Y-14536484D01*
X6218182Y-14536484D02*
X6237229Y-14546008D01*
X6237229Y-14546008D02*
X6246753Y-14555531D01*
X6246753Y-14555531D02*
X6256277Y-14574579D01*
X6256277Y-14574579D02*
X6265801Y-14612674D01*
X6265801Y-14612674D02*
X6265801Y-14660293D01*
X6265801Y-14660293D02*
X6256277Y-14698388D01*
X6256277Y-14698388D02*
X6246753Y-14717436D01*
X6246753Y-14717436D02*
X6237229Y-14726960D01*
X6237229Y-14726960D02*
X6218182Y-14736484D01*
X6218182Y-14736484D02*
X6199134Y-14736484D01*
X6199134Y-14736484D02*
X6180086Y-14726960D01*
X6180086Y-14726960D02*
X6170563Y-14717436D01*
X6170563Y-14717436D02*
X6161039Y-14698388D01*
X6161039Y-14698388D02*
X6151515Y-14660293D01*
X6151515Y-14660293D02*
X6151515Y-14612674D01*
X6151515Y-14612674D02*
X6161039Y-14574579D01*
X6161039Y-14574579D02*
X6170563Y-14555531D01*
X6170563Y-14555531D02*
X6180086Y-14546008D01*
X6180086Y-14546008D02*
X6199134Y-14536484D01*
X6351515Y-14717436D02*
X6361039Y-14726960D01*
X6361039Y-14726960D02*
X6351515Y-14736484D01*
X6351515Y-14736484D02*
X6341991Y-14726960D01*
X6341991Y-14726960D02*
X6351515Y-14717436D01*
X6351515Y-14717436D02*
X6351515Y-14736484D01*
X6484848Y-14536484D02*
X6503896Y-14536484D01*
X6503896Y-14536484D02*
X6522944Y-14546008D01*
X6522944Y-14546008D02*
X6532467Y-14555531D01*
X6532467Y-14555531D02*
X6541991Y-14574579D01*
X6541991Y-14574579D02*
X6551515Y-14612674D01*
X6551515Y-14612674D02*
X6551515Y-14660293D01*
X6551515Y-14660293D02*
X6541991Y-14698388D01*
X6541991Y-14698388D02*
X6532467Y-14717436D01*
X6532467Y-14717436D02*
X6522944Y-14726960D01*
X6522944Y-14726960D02*
X6503896Y-14736484D01*
X6503896Y-14736484D02*
X6484848Y-14736484D01*
X6484848Y-14736484D02*
X6465801Y-14726960D01*
X6465801Y-14726960D02*
X6456277Y-14717436D01*
X6456277Y-14717436D02*
X6446753Y-14698388D01*
X6446753Y-14698388D02*
X6437229Y-14660293D01*
X6437229Y-14660293D02*
X6437229Y-14612674D01*
X6437229Y-14612674D02*
X6446753Y-14574579D01*
X6446753Y-14574579D02*
X6456277Y-14555531D01*
X6456277Y-14555531D02*
X6465801Y-14546008D01*
X6465801Y-14546008D02*
X6484848Y-14536484D01*
X6618182Y-14536484D02*
X6741991Y-14536484D01*
X6741991Y-14536484D02*
X6675325Y-14612674D01*
X6675325Y-14612674D02*
X6703896Y-14612674D01*
X6703896Y-14612674D02*
X6722944Y-14622198D01*
X6722944Y-14622198D02*
X6732467Y-14631722D01*
X6732467Y-14631722D02*
X6741991Y-14650769D01*
X6741991Y-14650769D02*
X6741991Y-14698388D01*
X6741991Y-14698388D02*
X6732467Y-14717436D01*
X6732467Y-14717436D02*
X6722944Y-14726960D01*
X6722944Y-14726960D02*
X6703896Y-14736484D01*
X6703896Y-14736484D02*
X6646753Y-14736484D01*
X6646753Y-14736484D02*
X6627706Y-14726960D01*
X6627706Y-14726960D02*
X6618182Y-14717436D01*
X6808658Y-14536484D02*
X6941991Y-14536484D01*
X6941991Y-14536484D02*
X6856277Y-14736484D01*
X7103896Y-14603150D02*
X7103896Y-14736484D01*
X7056277Y-14526960D02*
X7008658Y-14669817D01*
X7008658Y-14669817D02*
X7132467Y-14669817D01*
X7199134Y-14536484D02*
X7199134Y-14574579D01*
X7275325Y-14536484D02*
X7275325Y-14574579D01*
X7570563Y-14812674D02*
X7561039Y-14803150D01*
X7561039Y-14803150D02*
X7541991Y-14774579D01*
X7541991Y-14774579D02*
X7532468Y-14755531D01*
X7532468Y-14755531D02*
X7522944Y-14726960D01*
X7522944Y-14726960D02*
X7513420Y-14679341D01*
X7513420Y-14679341D02*
X7513420Y-14641246D01*
X7513420Y-14641246D02*
X7522944Y-14593627D01*
X7522944Y-14593627D02*
X7532468Y-14565055D01*
X7532468Y-14565055D02*
X7541991Y-14546008D01*
X7541991Y-14546008D02*
X7561039Y-14517436D01*
X7561039Y-14517436D02*
X7570563Y-14507912D01*
X7732468Y-14536484D02*
X7694372Y-14536484D01*
X7694372Y-14536484D02*
X7675325Y-14546008D01*
X7675325Y-14546008D02*
X7665801Y-14555531D01*
X7665801Y-14555531D02*
X7646753Y-14584103D01*
X7646753Y-14584103D02*
X7637229Y-14622198D01*
X7637229Y-14622198D02*
X7637229Y-14698388D01*
X7637229Y-14698388D02*
X7646753Y-14717436D01*
X7646753Y-14717436D02*
X7656277Y-14726960D01*
X7656277Y-14726960D02*
X7675325Y-14736484D01*
X7675325Y-14736484D02*
X7713420Y-14736484D01*
X7713420Y-14736484D02*
X7732468Y-14726960D01*
X7732468Y-14726960D02*
X7741991Y-14717436D01*
X7741991Y-14717436D02*
X7751515Y-14698388D01*
X7751515Y-14698388D02*
X7751515Y-14650769D01*
X7751515Y-14650769D02*
X7741991Y-14631722D01*
X7741991Y-14631722D02*
X7732468Y-14622198D01*
X7732468Y-14622198D02*
X7713420Y-14612674D01*
X7713420Y-14612674D02*
X7675325Y-14612674D01*
X7675325Y-14612674D02*
X7656277Y-14622198D01*
X7656277Y-14622198D02*
X7646753Y-14631722D01*
X7646753Y-14631722D02*
X7637229Y-14650769D01*
X7875325Y-14536484D02*
X7894372Y-14536484D01*
X7894372Y-14536484D02*
X7913420Y-14546008D01*
X7913420Y-14546008D02*
X7922944Y-14555531D01*
X7922944Y-14555531D02*
X7932468Y-14574579D01*
X7932468Y-14574579D02*
X7941991Y-14612674D01*
X7941991Y-14612674D02*
X7941991Y-14660293D01*
X7941991Y-14660293D02*
X7932468Y-14698388D01*
X7932468Y-14698388D02*
X7922944Y-14717436D01*
X7922944Y-14717436D02*
X7913420Y-14726960D01*
X7913420Y-14726960D02*
X7894372Y-14736484D01*
X7894372Y-14736484D02*
X7875325Y-14736484D01*
X7875325Y-14736484D02*
X7856277Y-14726960D01*
X7856277Y-14726960D02*
X7846753Y-14717436D01*
X7846753Y-14717436D02*
X7837229Y-14698388D01*
X7837229Y-14698388D02*
X7827706Y-14660293D01*
X7827706Y-14660293D02*
X7827706Y-14612674D01*
X7827706Y-14612674D02*
X7837229Y-14574579D01*
X7837229Y-14574579D02*
X7846753Y-14555531D01*
X7846753Y-14555531D02*
X7856277Y-14546008D01*
X7856277Y-14546008D02*
X7875325Y-14536484D01*
X8180087Y-14736484D02*
X8180087Y-14536484D01*
X8265801Y-14736484D02*
X8265801Y-14631722D01*
X8265801Y-14631722D02*
X8256277Y-14612674D01*
X8256277Y-14612674D02*
X8237230Y-14603150D01*
X8237230Y-14603150D02*
X8208658Y-14603150D01*
X8208658Y-14603150D02*
X8189610Y-14612674D01*
X8189610Y-14612674D02*
X8180087Y-14622198D01*
X8389611Y-14736484D02*
X8370563Y-14726960D01*
X8370563Y-14726960D02*
X8361039Y-14717436D01*
X8361039Y-14717436D02*
X8351515Y-14698388D01*
X8351515Y-14698388D02*
X8351515Y-14641246D01*
X8351515Y-14641246D02*
X8361039Y-14622198D01*
X8361039Y-14622198D02*
X8370563Y-14612674D01*
X8370563Y-14612674D02*
X8389611Y-14603150D01*
X8389611Y-14603150D02*
X8418182Y-14603150D01*
X8418182Y-14603150D02*
X8437230Y-14612674D01*
X8437230Y-14612674D02*
X8446753Y-14622198D01*
X8446753Y-14622198D02*
X8456277Y-14641246D01*
X8456277Y-14641246D02*
X8456277Y-14698388D01*
X8456277Y-14698388D02*
X8446753Y-14717436D01*
X8446753Y-14717436D02*
X8437230Y-14726960D01*
X8437230Y-14726960D02*
X8418182Y-14736484D01*
X8418182Y-14736484D02*
X8389611Y-14736484D01*
X8570563Y-14736484D02*
X8551515Y-14726960D01*
X8551515Y-14726960D02*
X8541992Y-14707912D01*
X8541992Y-14707912D02*
X8541992Y-14536484D01*
X8722944Y-14726960D02*
X8703896Y-14736484D01*
X8703896Y-14736484D02*
X8665801Y-14736484D01*
X8665801Y-14736484D02*
X8646753Y-14726960D01*
X8646753Y-14726960D02*
X8637230Y-14707912D01*
X8637230Y-14707912D02*
X8637230Y-14631722D01*
X8637230Y-14631722D02*
X8646753Y-14612674D01*
X8646753Y-14612674D02*
X8665801Y-14603150D01*
X8665801Y-14603150D02*
X8703896Y-14603150D01*
X8703896Y-14603150D02*
X8722944Y-14612674D01*
X8722944Y-14612674D02*
X8732468Y-14631722D01*
X8732468Y-14631722D02*
X8732468Y-14650769D01*
X8732468Y-14650769D02*
X8637230Y-14669817D01*
X8808658Y-14726960D02*
X8827706Y-14736484D01*
X8827706Y-14736484D02*
X8865801Y-14736484D01*
X8865801Y-14736484D02*
X8884849Y-14726960D01*
X8884849Y-14726960D02*
X8894373Y-14707912D01*
X8894373Y-14707912D02*
X8894373Y-14698388D01*
X8894373Y-14698388D02*
X8884849Y-14679341D01*
X8884849Y-14679341D02*
X8865801Y-14669817D01*
X8865801Y-14669817D02*
X8837230Y-14669817D01*
X8837230Y-14669817D02*
X8818182Y-14660293D01*
X8818182Y-14660293D02*
X8808658Y-14641246D01*
X8808658Y-14641246D02*
X8808658Y-14631722D01*
X8808658Y-14631722D02*
X8818182Y-14612674D01*
X8818182Y-14612674D02*
X8837230Y-14603150D01*
X8837230Y-14603150D02*
X8865801Y-14603150D01*
X8865801Y-14603150D02*
X8884849Y-14612674D01*
X8961039Y-14812674D02*
X8970563Y-14803150D01*
X8970563Y-14803150D02*
X8989611Y-14774579D01*
X8989611Y-14774579D02*
X8999134Y-14755531D01*
X8999134Y-14755531D02*
X9008658Y-14726960D01*
X9008658Y-14726960D02*
X9018182Y-14679341D01*
X9018182Y-14679341D02*
X9018182Y-14641246D01*
X9018182Y-14641246D02*
X9008658Y-14593627D01*
X9008658Y-14593627D02*
X8999134Y-14565055D01*
X8999134Y-14565055D02*
X8989611Y-14546008D01*
X8989611Y-14546008D02*
X8970563Y-14517436D01*
X8970563Y-14517436D02*
X8961039Y-14507912D01*
D10*
X3945500Y-14959000D02*
X3995500Y-14909000D01*
X3945500Y-14859000D01*
X3895500Y-14909000D01*
X3945500Y-14959000D01*
D11*
X4361039Y-15000484D02*
X4246753Y-15000484D01*
X4303896Y-15000484D02*
X4303896Y-14800484D01*
X4303896Y-14800484D02*
X4284848Y-14829055D01*
X4284848Y-14829055D02*
X4265801Y-14848103D01*
X4265801Y-14848103D02*
X4246753Y-14857627D01*
X4446753Y-14981436D02*
X4456277Y-14990960D01*
X4456277Y-14990960D02*
X4446753Y-15000484D01*
X4446753Y-15000484D02*
X4437229Y-14990960D01*
X4437229Y-14990960D02*
X4446753Y-14981436D01*
X4446753Y-14981436D02*
X4446753Y-15000484D01*
X4580086Y-14800484D02*
X4599134Y-14800484D01*
X4599134Y-14800484D02*
X4618182Y-14810008D01*
X4618182Y-14810008D02*
X4627705Y-14819531D01*
X4627705Y-14819531D02*
X4637229Y-14838579D01*
X4637229Y-14838579D02*
X4646753Y-14876674D01*
X4646753Y-14876674D02*
X4646753Y-14924293D01*
X4646753Y-14924293D02*
X4637229Y-14962388D01*
X4637229Y-14962388D02*
X4627705Y-14981436D01*
X4627705Y-14981436D02*
X4618182Y-14990960D01*
X4618182Y-14990960D02*
X4599134Y-15000484D01*
X4599134Y-15000484D02*
X4580086Y-15000484D01*
X4580086Y-15000484D02*
X4561039Y-14990960D01*
X4561039Y-14990960D02*
X4551515Y-14981436D01*
X4551515Y-14981436D02*
X4541991Y-14962388D01*
X4541991Y-14962388D02*
X4532467Y-14924293D01*
X4532467Y-14924293D02*
X4532467Y-14876674D01*
X4532467Y-14876674D02*
X4541991Y-14838579D01*
X4541991Y-14838579D02*
X4551515Y-14819531D01*
X4551515Y-14819531D02*
X4561039Y-14810008D01*
X4561039Y-14810008D02*
X4580086Y-14800484D01*
X4770563Y-14800484D02*
X4789610Y-14800484D01*
X4789610Y-14800484D02*
X4808658Y-14810008D01*
X4808658Y-14810008D02*
X4818182Y-14819531D01*
X4818182Y-14819531D02*
X4827705Y-14838579D01*
X4827705Y-14838579D02*
X4837229Y-14876674D01*
X4837229Y-14876674D02*
X4837229Y-14924293D01*
X4837229Y-14924293D02*
X4827705Y-14962388D01*
X4827705Y-14962388D02*
X4818182Y-14981436D01*
X4818182Y-14981436D02*
X4808658Y-14990960D01*
X4808658Y-14990960D02*
X4789610Y-15000484D01*
X4789610Y-15000484D02*
X4770563Y-15000484D01*
X4770563Y-15000484D02*
X4751515Y-14990960D01*
X4751515Y-14990960D02*
X4741991Y-14981436D01*
X4741991Y-14981436D02*
X4732467Y-14962388D01*
X4732467Y-14962388D02*
X4722944Y-14924293D01*
X4722944Y-14924293D02*
X4722944Y-14876674D01*
X4722944Y-14876674D02*
X4732467Y-14838579D01*
X4732467Y-14838579D02*
X4741991Y-14819531D01*
X4741991Y-14819531D02*
X4751515Y-14810008D01*
X4751515Y-14810008D02*
X4770563Y-14800484D01*
X4961039Y-14800484D02*
X4980086Y-14800484D01*
X4980086Y-14800484D02*
X4999134Y-14810008D01*
X4999134Y-14810008D02*
X5008658Y-14819531D01*
X5008658Y-14819531D02*
X5018182Y-14838579D01*
X5018182Y-14838579D02*
X5027705Y-14876674D01*
X5027705Y-14876674D02*
X5027705Y-14924293D01*
X5027705Y-14924293D02*
X5018182Y-14962388D01*
X5018182Y-14962388D02*
X5008658Y-14981436D01*
X5008658Y-14981436D02*
X4999134Y-14990960D01*
X4999134Y-14990960D02*
X4980086Y-15000484D01*
X4980086Y-15000484D02*
X4961039Y-15000484D01*
X4961039Y-15000484D02*
X4941991Y-14990960D01*
X4941991Y-14990960D02*
X4932467Y-14981436D01*
X4932467Y-14981436D02*
X4922944Y-14962388D01*
X4922944Y-14962388D02*
X4913420Y-14924293D01*
X4913420Y-14924293D02*
X4913420Y-14876674D01*
X4913420Y-14876674D02*
X4922944Y-14838579D01*
X4922944Y-14838579D02*
X4932467Y-14819531D01*
X4932467Y-14819531D02*
X4941991Y-14810008D01*
X4941991Y-14810008D02*
X4961039Y-14800484D01*
X5113420Y-15000484D02*
X5113420Y-14867150D01*
X5113420Y-14886198D02*
X5122944Y-14876674D01*
X5122944Y-14876674D02*
X5141991Y-14867150D01*
X5141991Y-14867150D02*
X5170563Y-14867150D01*
X5170563Y-14867150D02*
X5189610Y-14876674D01*
X5189610Y-14876674D02*
X5199134Y-14895722D01*
X5199134Y-14895722D02*
X5199134Y-15000484D01*
X5199134Y-14895722D02*
X5208658Y-14876674D01*
X5208658Y-14876674D02*
X5227705Y-14867150D01*
X5227705Y-14867150D02*
X5256277Y-14867150D01*
X5256277Y-14867150D02*
X5275325Y-14876674D01*
X5275325Y-14876674D02*
X5284848Y-14895722D01*
X5284848Y-14895722D02*
X5284848Y-15000484D01*
X5380086Y-15000484D02*
X5380086Y-14867150D01*
X5380086Y-14886198D02*
X5389610Y-14876674D01*
X5389610Y-14876674D02*
X5408658Y-14867150D01*
X5408658Y-14867150D02*
X5437229Y-14867150D01*
X5437229Y-14867150D02*
X5456277Y-14876674D01*
X5456277Y-14876674D02*
X5465801Y-14895722D01*
X5465801Y-14895722D02*
X5465801Y-15000484D01*
X5465801Y-14895722D02*
X5475325Y-14876674D01*
X5475325Y-14876674D02*
X5494372Y-14867150D01*
X5494372Y-14867150D02*
X5522944Y-14867150D01*
X5522944Y-14867150D02*
X5541991Y-14876674D01*
X5541991Y-14876674D02*
X5551515Y-14895722D01*
X5551515Y-14895722D02*
X5551515Y-15000484D01*
X5941991Y-14790960D02*
X5770563Y-15048103D01*
X6199134Y-14800484D02*
X6218182Y-14800484D01*
X6218182Y-14800484D02*
X6237229Y-14810008D01*
X6237229Y-14810008D02*
X6246753Y-14819531D01*
X6246753Y-14819531D02*
X6256277Y-14838579D01*
X6256277Y-14838579D02*
X6265801Y-14876674D01*
X6265801Y-14876674D02*
X6265801Y-14924293D01*
X6265801Y-14924293D02*
X6256277Y-14962388D01*
X6256277Y-14962388D02*
X6246753Y-14981436D01*
X6246753Y-14981436D02*
X6237229Y-14990960D01*
X6237229Y-14990960D02*
X6218182Y-15000484D01*
X6218182Y-15000484D02*
X6199134Y-15000484D01*
X6199134Y-15000484D02*
X6180086Y-14990960D01*
X6180086Y-14990960D02*
X6170563Y-14981436D01*
X6170563Y-14981436D02*
X6161039Y-14962388D01*
X6161039Y-14962388D02*
X6151515Y-14924293D01*
X6151515Y-14924293D02*
X6151515Y-14876674D01*
X6151515Y-14876674D02*
X6161039Y-14838579D01*
X6161039Y-14838579D02*
X6170563Y-14819531D01*
X6170563Y-14819531D02*
X6180086Y-14810008D01*
X6180086Y-14810008D02*
X6199134Y-14800484D01*
X6351515Y-14981436D02*
X6361039Y-14990960D01*
X6361039Y-14990960D02*
X6351515Y-15000484D01*
X6351515Y-15000484D02*
X6341991Y-14990960D01*
X6341991Y-14990960D02*
X6351515Y-14981436D01*
X6351515Y-14981436D02*
X6351515Y-15000484D01*
X6484848Y-14800484D02*
X6503896Y-14800484D01*
X6503896Y-14800484D02*
X6522944Y-14810008D01*
X6522944Y-14810008D02*
X6532467Y-14819531D01*
X6532467Y-14819531D02*
X6541991Y-14838579D01*
X6541991Y-14838579D02*
X6551515Y-14876674D01*
X6551515Y-14876674D02*
X6551515Y-14924293D01*
X6551515Y-14924293D02*
X6541991Y-14962388D01*
X6541991Y-14962388D02*
X6532467Y-14981436D01*
X6532467Y-14981436D02*
X6522944Y-14990960D01*
X6522944Y-14990960D02*
X6503896Y-15000484D01*
X6503896Y-15000484D02*
X6484848Y-15000484D01*
X6484848Y-15000484D02*
X6465801Y-14990960D01*
X6465801Y-14990960D02*
X6456277Y-14981436D01*
X6456277Y-14981436D02*
X6446753Y-14962388D01*
X6446753Y-14962388D02*
X6437229Y-14924293D01*
X6437229Y-14924293D02*
X6437229Y-14876674D01*
X6437229Y-14876674D02*
X6446753Y-14838579D01*
X6446753Y-14838579D02*
X6456277Y-14819531D01*
X6456277Y-14819531D02*
X6465801Y-14810008D01*
X6465801Y-14810008D02*
X6484848Y-14800484D01*
X6618182Y-14800484D02*
X6741991Y-14800484D01*
X6741991Y-14800484D02*
X6675325Y-14876674D01*
X6675325Y-14876674D02*
X6703896Y-14876674D01*
X6703896Y-14876674D02*
X6722944Y-14886198D01*
X6722944Y-14886198D02*
X6732467Y-14895722D01*
X6732467Y-14895722D02*
X6741991Y-14914769D01*
X6741991Y-14914769D02*
X6741991Y-14962388D01*
X6741991Y-14962388D02*
X6732467Y-14981436D01*
X6732467Y-14981436D02*
X6722944Y-14990960D01*
X6722944Y-14990960D02*
X6703896Y-15000484D01*
X6703896Y-15000484D02*
X6646753Y-15000484D01*
X6646753Y-15000484D02*
X6627706Y-14990960D01*
X6627706Y-14990960D02*
X6618182Y-14981436D01*
X6837229Y-15000484D02*
X6875325Y-15000484D01*
X6875325Y-15000484D02*
X6894372Y-14990960D01*
X6894372Y-14990960D02*
X6903896Y-14981436D01*
X6903896Y-14981436D02*
X6922944Y-14952865D01*
X6922944Y-14952865D02*
X6932467Y-14914769D01*
X6932467Y-14914769D02*
X6932467Y-14838579D01*
X6932467Y-14838579D02*
X6922944Y-14819531D01*
X6922944Y-14819531D02*
X6913420Y-14810008D01*
X6913420Y-14810008D02*
X6894372Y-14800484D01*
X6894372Y-14800484D02*
X6856277Y-14800484D01*
X6856277Y-14800484D02*
X6837229Y-14810008D01*
X6837229Y-14810008D02*
X6827706Y-14819531D01*
X6827706Y-14819531D02*
X6818182Y-14838579D01*
X6818182Y-14838579D02*
X6818182Y-14886198D01*
X6818182Y-14886198D02*
X6827706Y-14905246D01*
X6827706Y-14905246D02*
X6837229Y-14914769D01*
X6837229Y-14914769D02*
X6856277Y-14924293D01*
X6856277Y-14924293D02*
X6894372Y-14924293D01*
X6894372Y-14924293D02*
X6913420Y-14914769D01*
X6913420Y-14914769D02*
X6922944Y-14905246D01*
X6922944Y-14905246D02*
X6932467Y-14886198D01*
X7103896Y-14867150D02*
X7103896Y-15000484D01*
X7056277Y-14790960D02*
X7008658Y-14933817D01*
X7008658Y-14933817D02*
X7132467Y-14933817D01*
X7199134Y-14800484D02*
X7199134Y-14838579D01*
X7275325Y-14800484D02*
X7275325Y-14838579D01*
X7570563Y-15076674D02*
X7561039Y-15067150D01*
X7561039Y-15067150D02*
X7541991Y-15038579D01*
X7541991Y-15038579D02*
X7532468Y-15019531D01*
X7532468Y-15019531D02*
X7522944Y-14990960D01*
X7522944Y-14990960D02*
X7513420Y-14943341D01*
X7513420Y-14943341D02*
X7513420Y-14905246D01*
X7513420Y-14905246D02*
X7522944Y-14857627D01*
X7522944Y-14857627D02*
X7532468Y-14829055D01*
X7532468Y-14829055D02*
X7541991Y-14810008D01*
X7541991Y-14810008D02*
X7561039Y-14781436D01*
X7561039Y-14781436D02*
X7570563Y-14771912D01*
X7751515Y-15000484D02*
X7637229Y-15000484D01*
X7694372Y-15000484D02*
X7694372Y-14800484D01*
X7694372Y-14800484D02*
X7675325Y-14829055D01*
X7675325Y-14829055D02*
X7656277Y-14848103D01*
X7656277Y-14848103D02*
X7637229Y-14857627D01*
X7818182Y-14800484D02*
X7951515Y-14800484D01*
X7951515Y-14800484D02*
X7865801Y-15000484D01*
X8180087Y-15000484D02*
X8180087Y-14800484D01*
X8265801Y-15000484D02*
X8265801Y-14895722D01*
X8265801Y-14895722D02*
X8256277Y-14876674D01*
X8256277Y-14876674D02*
X8237230Y-14867150D01*
X8237230Y-14867150D02*
X8208658Y-14867150D01*
X8208658Y-14867150D02*
X8189610Y-14876674D01*
X8189610Y-14876674D02*
X8180087Y-14886198D01*
X8389611Y-15000484D02*
X8370563Y-14990960D01*
X8370563Y-14990960D02*
X8361039Y-14981436D01*
X8361039Y-14981436D02*
X8351515Y-14962388D01*
X8351515Y-14962388D02*
X8351515Y-14905246D01*
X8351515Y-14905246D02*
X8361039Y-14886198D01*
X8361039Y-14886198D02*
X8370563Y-14876674D01*
X8370563Y-14876674D02*
X8389611Y-14867150D01*
X8389611Y-14867150D02*
X8418182Y-14867150D01*
X8418182Y-14867150D02*
X8437230Y-14876674D01*
X8437230Y-14876674D02*
X8446753Y-14886198D01*
X8446753Y-14886198D02*
X8456277Y-14905246D01*
X8456277Y-14905246D02*
X8456277Y-14962388D01*
X8456277Y-14962388D02*
X8446753Y-14981436D01*
X8446753Y-14981436D02*
X8437230Y-14990960D01*
X8437230Y-14990960D02*
X8418182Y-15000484D01*
X8418182Y-15000484D02*
X8389611Y-15000484D01*
X8570563Y-15000484D02*
X8551515Y-14990960D01*
X8551515Y-14990960D02*
X8541992Y-14971912D01*
X8541992Y-14971912D02*
X8541992Y-14800484D01*
X8722944Y-14990960D02*
X8703896Y-15000484D01*
X8703896Y-15000484D02*
X8665801Y-15000484D01*
X8665801Y-15000484D02*
X8646753Y-14990960D01*
X8646753Y-14990960D02*
X8637230Y-14971912D01*
X8637230Y-14971912D02*
X8637230Y-14895722D01*
X8637230Y-14895722D02*
X8646753Y-14876674D01*
X8646753Y-14876674D02*
X8665801Y-14867150D01*
X8665801Y-14867150D02*
X8703896Y-14867150D01*
X8703896Y-14867150D02*
X8722944Y-14876674D01*
X8722944Y-14876674D02*
X8732468Y-14895722D01*
X8732468Y-14895722D02*
X8732468Y-14914769D01*
X8732468Y-14914769D02*
X8637230Y-14933817D01*
X8808658Y-14990960D02*
X8827706Y-15000484D01*
X8827706Y-15000484D02*
X8865801Y-15000484D01*
X8865801Y-15000484D02*
X8884849Y-14990960D01*
X8884849Y-14990960D02*
X8894373Y-14971912D01*
X8894373Y-14971912D02*
X8894373Y-14962388D01*
X8894373Y-14962388D02*
X8884849Y-14943341D01*
X8884849Y-14943341D02*
X8865801Y-14933817D01*
X8865801Y-14933817D02*
X8837230Y-14933817D01*
X8837230Y-14933817D02*
X8818182Y-14924293D01*
X8818182Y-14924293D02*
X8808658Y-14905246D01*
X8808658Y-14905246D02*
X8808658Y-14895722D01*
X8808658Y-14895722D02*
X8818182Y-14876674D01*
X8818182Y-14876674D02*
X8837230Y-14867150D01*
X8837230Y-14867150D02*
X8865801Y-14867150D01*
X8865801Y-14867150D02*
X8884849Y-14876674D01*
X8961039Y-15076674D02*
X8970563Y-15067150D01*
X8970563Y-15067150D02*
X8989611Y-15038579D01*
X8989611Y-15038579D02*
X8999134Y-15019531D01*
X8999134Y-15019531D02*
X9008658Y-14990960D01*
X9008658Y-14990960D02*
X9018182Y-14943341D01*
X9018182Y-14943341D02*
X9018182Y-14905246D01*
X9018182Y-14905246D02*
X9008658Y-14857627D01*
X9008658Y-14857627D02*
X8999134Y-14829055D01*
X8999134Y-14829055D02*
X8989611Y-14810008D01*
X8989611Y-14810008D02*
X8970563Y-14781436D01*
X8970563Y-14781436D02*
X8961039Y-14771912D01*
D12*
X3875500Y-15113000D02*
X3995500Y-15233000D01*
X3995500Y-15113000D02*
X3875500Y-15233000D01*
X3995500Y-15173000D02*
G75*
G02*
X3875500Y-15173000I-60000J0D01*
G01*
X3875500Y-15173000D02*
G75*
G02*
X3995500Y-15173000I60000J0D01*
G01*
D11*
X4361039Y-15264484D02*
X4246753Y-15264484D01*
X4303896Y-15264484D02*
X4303896Y-15064484D01*
X4303896Y-15064484D02*
X4284848Y-15093055D01*
X4284848Y-15093055D02*
X4265801Y-15112103D01*
X4265801Y-15112103D02*
X4246753Y-15121627D01*
X4446753Y-15245436D02*
X4456277Y-15254960D01*
X4456277Y-15254960D02*
X4446753Y-15264484D01*
X4446753Y-15264484D02*
X4437229Y-15254960D01*
X4437229Y-15254960D02*
X4446753Y-15245436D01*
X4446753Y-15245436D02*
X4446753Y-15264484D01*
X4532467Y-15083531D02*
X4541991Y-15074008D01*
X4541991Y-15074008D02*
X4561039Y-15064484D01*
X4561039Y-15064484D02*
X4608658Y-15064484D01*
X4608658Y-15064484D02*
X4627705Y-15074008D01*
X4627705Y-15074008D02*
X4637229Y-15083531D01*
X4637229Y-15083531D02*
X4646753Y-15102579D01*
X4646753Y-15102579D02*
X4646753Y-15121627D01*
X4646753Y-15121627D02*
X4637229Y-15150198D01*
X4637229Y-15150198D02*
X4522944Y-15264484D01*
X4522944Y-15264484D02*
X4646753Y-15264484D01*
X4770563Y-15064484D02*
X4789610Y-15064484D01*
X4789610Y-15064484D02*
X4808658Y-15074008D01*
X4808658Y-15074008D02*
X4818182Y-15083531D01*
X4818182Y-15083531D02*
X4827705Y-15102579D01*
X4827705Y-15102579D02*
X4837229Y-15140674D01*
X4837229Y-15140674D02*
X4837229Y-15188293D01*
X4837229Y-15188293D02*
X4827705Y-15226388D01*
X4827705Y-15226388D02*
X4818182Y-15245436D01*
X4818182Y-15245436D02*
X4808658Y-15254960D01*
X4808658Y-15254960D02*
X4789610Y-15264484D01*
X4789610Y-15264484D02*
X4770563Y-15264484D01*
X4770563Y-15264484D02*
X4751515Y-15254960D01*
X4751515Y-15254960D02*
X4741991Y-15245436D01*
X4741991Y-15245436D02*
X4732467Y-15226388D01*
X4732467Y-15226388D02*
X4722944Y-15188293D01*
X4722944Y-15188293D02*
X4722944Y-15140674D01*
X4722944Y-15140674D02*
X4732467Y-15102579D01*
X4732467Y-15102579D02*
X4741991Y-15083531D01*
X4741991Y-15083531D02*
X4751515Y-15074008D01*
X4751515Y-15074008D02*
X4770563Y-15064484D01*
X4961039Y-15064484D02*
X4980086Y-15064484D01*
X4980086Y-15064484D02*
X4999134Y-15074008D01*
X4999134Y-15074008D02*
X5008658Y-15083531D01*
X5008658Y-15083531D02*
X5018182Y-15102579D01*
X5018182Y-15102579D02*
X5027705Y-15140674D01*
X5027705Y-15140674D02*
X5027705Y-15188293D01*
X5027705Y-15188293D02*
X5018182Y-15226388D01*
X5018182Y-15226388D02*
X5008658Y-15245436D01*
X5008658Y-15245436D02*
X4999134Y-15254960D01*
X4999134Y-15254960D02*
X4980086Y-15264484D01*
X4980086Y-15264484D02*
X4961039Y-15264484D01*
X4961039Y-15264484D02*
X4941991Y-15254960D01*
X4941991Y-15254960D02*
X4932467Y-15245436D01*
X4932467Y-15245436D02*
X4922944Y-15226388D01*
X4922944Y-15226388D02*
X4913420Y-15188293D01*
X4913420Y-15188293D02*
X4913420Y-15140674D01*
X4913420Y-15140674D02*
X4922944Y-15102579D01*
X4922944Y-15102579D02*
X4932467Y-15083531D01*
X4932467Y-15083531D02*
X4941991Y-15074008D01*
X4941991Y-15074008D02*
X4961039Y-15064484D01*
X5113420Y-15264484D02*
X5113420Y-15131150D01*
X5113420Y-15150198D02*
X5122944Y-15140674D01*
X5122944Y-15140674D02*
X5141991Y-15131150D01*
X5141991Y-15131150D02*
X5170563Y-15131150D01*
X5170563Y-15131150D02*
X5189610Y-15140674D01*
X5189610Y-15140674D02*
X5199134Y-15159722D01*
X5199134Y-15159722D02*
X5199134Y-15264484D01*
X5199134Y-15159722D02*
X5208658Y-15140674D01*
X5208658Y-15140674D02*
X5227705Y-15131150D01*
X5227705Y-15131150D02*
X5256277Y-15131150D01*
X5256277Y-15131150D02*
X5275325Y-15140674D01*
X5275325Y-15140674D02*
X5284848Y-15159722D01*
X5284848Y-15159722D02*
X5284848Y-15264484D01*
X5380086Y-15264484D02*
X5380086Y-15131150D01*
X5380086Y-15150198D02*
X5389610Y-15140674D01*
X5389610Y-15140674D02*
X5408658Y-15131150D01*
X5408658Y-15131150D02*
X5437229Y-15131150D01*
X5437229Y-15131150D02*
X5456277Y-15140674D01*
X5456277Y-15140674D02*
X5465801Y-15159722D01*
X5465801Y-15159722D02*
X5465801Y-15264484D01*
X5465801Y-15159722D02*
X5475325Y-15140674D01*
X5475325Y-15140674D02*
X5494372Y-15131150D01*
X5494372Y-15131150D02*
X5522944Y-15131150D01*
X5522944Y-15131150D02*
X5541991Y-15140674D01*
X5541991Y-15140674D02*
X5551515Y-15159722D01*
X5551515Y-15159722D02*
X5551515Y-15264484D01*
X5941991Y-15054960D02*
X5770563Y-15312103D01*
X6199134Y-15064484D02*
X6218182Y-15064484D01*
X6218182Y-15064484D02*
X6237229Y-15074008D01*
X6237229Y-15074008D02*
X6246753Y-15083531D01*
X6246753Y-15083531D02*
X6256277Y-15102579D01*
X6256277Y-15102579D02*
X6265801Y-15140674D01*
X6265801Y-15140674D02*
X6265801Y-15188293D01*
X6265801Y-15188293D02*
X6256277Y-15226388D01*
X6256277Y-15226388D02*
X6246753Y-15245436D01*
X6246753Y-15245436D02*
X6237229Y-15254960D01*
X6237229Y-15254960D02*
X6218182Y-15264484D01*
X6218182Y-15264484D02*
X6199134Y-15264484D01*
X6199134Y-15264484D02*
X6180086Y-15254960D01*
X6180086Y-15254960D02*
X6170563Y-15245436D01*
X6170563Y-15245436D02*
X6161039Y-15226388D01*
X6161039Y-15226388D02*
X6151515Y-15188293D01*
X6151515Y-15188293D02*
X6151515Y-15140674D01*
X6151515Y-15140674D02*
X6161039Y-15102579D01*
X6161039Y-15102579D02*
X6170563Y-15083531D01*
X6170563Y-15083531D02*
X6180086Y-15074008D01*
X6180086Y-15074008D02*
X6199134Y-15064484D01*
X6351515Y-15245436D02*
X6361039Y-15254960D01*
X6361039Y-15254960D02*
X6351515Y-15264484D01*
X6351515Y-15264484D02*
X6341991Y-15254960D01*
X6341991Y-15254960D02*
X6351515Y-15245436D01*
X6351515Y-15245436D02*
X6351515Y-15264484D01*
X6484848Y-15064484D02*
X6503896Y-15064484D01*
X6503896Y-15064484D02*
X6522944Y-15074008D01*
X6522944Y-15074008D02*
X6532467Y-15083531D01*
X6532467Y-15083531D02*
X6541991Y-15102579D01*
X6541991Y-15102579D02*
X6551515Y-15140674D01*
X6551515Y-15140674D02*
X6551515Y-15188293D01*
X6551515Y-15188293D02*
X6541991Y-15226388D01*
X6541991Y-15226388D02*
X6532467Y-15245436D01*
X6532467Y-15245436D02*
X6522944Y-15254960D01*
X6522944Y-15254960D02*
X6503896Y-15264484D01*
X6503896Y-15264484D02*
X6484848Y-15264484D01*
X6484848Y-15264484D02*
X6465801Y-15254960D01*
X6465801Y-15254960D02*
X6456277Y-15245436D01*
X6456277Y-15245436D02*
X6446753Y-15226388D01*
X6446753Y-15226388D02*
X6437229Y-15188293D01*
X6437229Y-15188293D02*
X6437229Y-15140674D01*
X6437229Y-15140674D02*
X6446753Y-15102579D01*
X6446753Y-15102579D02*
X6456277Y-15083531D01*
X6456277Y-15083531D02*
X6465801Y-15074008D01*
X6465801Y-15074008D02*
X6484848Y-15064484D01*
X6722944Y-15131150D02*
X6722944Y-15264484D01*
X6675325Y-15054960D02*
X6627706Y-15197817D01*
X6627706Y-15197817D02*
X6751515Y-15197817D01*
X6808658Y-15064484D02*
X6941991Y-15064484D01*
X6941991Y-15064484D02*
X6856277Y-15264484D01*
X7008658Y-15083531D02*
X7018182Y-15074008D01*
X7018182Y-15074008D02*
X7037229Y-15064484D01*
X7037229Y-15064484D02*
X7084848Y-15064484D01*
X7084848Y-15064484D02*
X7103896Y-15074008D01*
X7103896Y-15074008D02*
X7113420Y-15083531D01*
X7113420Y-15083531D02*
X7122944Y-15102579D01*
X7122944Y-15102579D02*
X7122944Y-15121627D01*
X7122944Y-15121627D02*
X7113420Y-15150198D01*
X7113420Y-15150198D02*
X6999134Y-15264484D01*
X6999134Y-15264484D02*
X7122944Y-15264484D01*
X7199134Y-15064484D02*
X7199134Y-15102579D01*
X7275325Y-15064484D02*
X7275325Y-15102579D01*
X7570563Y-15340674D02*
X7561039Y-15331150D01*
X7561039Y-15331150D02*
X7541991Y-15302579D01*
X7541991Y-15302579D02*
X7532468Y-15283531D01*
X7532468Y-15283531D02*
X7522944Y-15254960D01*
X7522944Y-15254960D02*
X7513420Y-15207341D01*
X7513420Y-15207341D02*
X7513420Y-15169246D01*
X7513420Y-15169246D02*
X7522944Y-15121627D01*
X7522944Y-15121627D02*
X7532468Y-15093055D01*
X7532468Y-15093055D02*
X7541991Y-15074008D01*
X7541991Y-15074008D02*
X7561039Y-15045436D01*
X7561039Y-15045436D02*
X7570563Y-15035912D01*
X7637229Y-15083531D02*
X7646753Y-15074008D01*
X7646753Y-15074008D02*
X7665801Y-15064484D01*
X7665801Y-15064484D02*
X7713420Y-15064484D01*
X7713420Y-15064484D02*
X7732468Y-15074008D01*
X7732468Y-15074008D02*
X7741991Y-15083531D01*
X7741991Y-15083531D02*
X7751515Y-15102579D01*
X7751515Y-15102579D02*
X7751515Y-15121627D01*
X7751515Y-15121627D02*
X7741991Y-15150198D01*
X7741991Y-15150198D02*
X7627706Y-15264484D01*
X7627706Y-15264484D02*
X7751515Y-15264484D01*
X7989610Y-15264484D02*
X7989610Y-15064484D01*
X8075325Y-15264484D02*
X8075325Y-15159722D01*
X8075325Y-15159722D02*
X8065801Y-15140674D01*
X8065801Y-15140674D02*
X8046753Y-15131150D01*
X8046753Y-15131150D02*
X8018182Y-15131150D01*
X8018182Y-15131150D02*
X7999134Y-15140674D01*
X7999134Y-15140674D02*
X7989610Y-15150198D01*
X8199134Y-15264484D02*
X8180087Y-15254960D01*
X8180087Y-15254960D02*
X8170563Y-15245436D01*
X8170563Y-15245436D02*
X8161039Y-15226388D01*
X8161039Y-15226388D02*
X8161039Y-15169246D01*
X8161039Y-15169246D02*
X8170563Y-15150198D01*
X8170563Y-15150198D02*
X8180087Y-15140674D01*
X8180087Y-15140674D02*
X8199134Y-15131150D01*
X8199134Y-15131150D02*
X8227706Y-15131150D01*
X8227706Y-15131150D02*
X8246753Y-15140674D01*
X8246753Y-15140674D02*
X8256277Y-15150198D01*
X8256277Y-15150198D02*
X8265801Y-15169246D01*
X8265801Y-15169246D02*
X8265801Y-15226388D01*
X8265801Y-15226388D02*
X8256277Y-15245436D01*
X8256277Y-15245436D02*
X8246753Y-15254960D01*
X8246753Y-15254960D02*
X8227706Y-15264484D01*
X8227706Y-15264484D02*
X8199134Y-15264484D01*
X8380087Y-15264484D02*
X8361039Y-15254960D01*
X8361039Y-15254960D02*
X8351515Y-15235912D01*
X8351515Y-15235912D02*
X8351515Y-15064484D01*
X8532468Y-15254960D02*
X8513420Y-15264484D01*
X8513420Y-15264484D02*
X8475325Y-15264484D01*
X8475325Y-15264484D02*
X8456277Y-15254960D01*
X8456277Y-15254960D02*
X8446753Y-15235912D01*
X8446753Y-15235912D02*
X8446753Y-15159722D01*
X8446753Y-15159722D02*
X8456277Y-15140674D01*
X8456277Y-15140674D02*
X8475325Y-15131150D01*
X8475325Y-15131150D02*
X8513420Y-15131150D01*
X8513420Y-15131150D02*
X8532468Y-15140674D01*
X8532468Y-15140674D02*
X8541992Y-15159722D01*
X8541992Y-15159722D02*
X8541992Y-15178769D01*
X8541992Y-15178769D02*
X8446753Y-15197817D01*
X8618182Y-15254960D02*
X8637230Y-15264484D01*
X8637230Y-15264484D02*
X8675325Y-15264484D01*
X8675325Y-15264484D02*
X8694373Y-15254960D01*
X8694373Y-15254960D02*
X8703896Y-15235912D01*
X8703896Y-15235912D02*
X8703896Y-15226388D01*
X8703896Y-15226388D02*
X8694373Y-15207341D01*
X8694373Y-15207341D02*
X8675325Y-15197817D01*
X8675325Y-15197817D02*
X8646753Y-15197817D01*
X8646753Y-15197817D02*
X8627706Y-15188293D01*
X8627706Y-15188293D02*
X8618182Y-15169246D01*
X8618182Y-15169246D02*
X8618182Y-15159722D01*
X8618182Y-15159722D02*
X8627706Y-15140674D01*
X8627706Y-15140674D02*
X8646753Y-15131150D01*
X8646753Y-15131150D02*
X8675325Y-15131150D01*
X8675325Y-15131150D02*
X8694373Y-15140674D01*
X8770563Y-15340674D02*
X8780087Y-15331150D01*
X8780087Y-15331150D02*
X8799134Y-15302579D01*
X8799134Y-15302579D02*
X8808658Y-15283531D01*
X8808658Y-15283531D02*
X8818182Y-15254960D01*
X8818182Y-15254960D02*
X8827706Y-15207341D01*
X8827706Y-15207341D02*
X8827706Y-15169246D01*
X8827706Y-15169246D02*
X8818182Y-15121627D01*
X8818182Y-15121627D02*
X8808658Y-15093055D01*
X8808658Y-15093055D02*
X8799134Y-15074008D01*
X8799134Y-15074008D02*
X8780087Y-15045436D01*
X8780087Y-15045436D02*
X8770563Y-15035912D01*
D13*
X3845500Y-15362000D02*
X3995500Y-15512000D01*
X3995500Y-15362000D02*
X3845500Y-15512000D01*
X3920500Y-15362000D02*
X3920500Y-15512000D01*
X3845500Y-15437000D02*
X3995500Y-15437000D01*
D11*
X4361039Y-15528484D02*
X4246753Y-15528484D01*
X4303896Y-15528484D02*
X4303896Y-15328484D01*
X4303896Y-15328484D02*
X4284848Y-15357055D01*
X4284848Y-15357055D02*
X4265801Y-15376103D01*
X4265801Y-15376103D02*
X4246753Y-15385627D01*
X4446753Y-15509436D02*
X4456277Y-15518960D01*
X4456277Y-15518960D02*
X4446753Y-15528484D01*
X4446753Y-15528484D02*
X4437229Y-15518960D01*
X4437229Y-15518960D02*
X4446753Y-15509436D01*
X4446753Y-15509436D02*
X4446753Y-15528484D01*
X4637229Y-15328484D02*
X4541991Y-15328484D01*
X4541991Y-15328484D02*
X4532467Y-15423722D01*
X4532467Y-15423722D02*
X4541991Y-15414198D01*
X4541991Y-15414198D02*
X4561039Y-15404674D01*
X4561039Y-15404674D02*
X4608658Y-15404674D01*
X4608658Y-15404674D02*
X4627705Y-15414198D01*
X4627705Y-15414198D02*
X4637229Y-15423722D01*
X4637229Y-15423722D02*
X4646753Y-15442769D01*
X4646753Y-15442769D02*
X4646753Y-15490388D01*
X4646753Y-15490388D02*
X4637229Y-15509436D01*
X4637229Y-15509436D02*
X4627705Y-15518960D01*
X4627705Y-15518960D02*
X4608658Y-15528484D01*
X4608658Y-15528484D02*
X4561039Y-15528484D01*
X4561039Y-15528484D02*
X4541991Y-15518960D01*
X4541991Y-15518960D02*
X4532467Y-15509436D01*
X4770563Y-15328484D02*
X4789610Y-15328484D01*
X4789610Y-15328484D02*
X4808658Y-15338008D01*
X4808658Y-15338008D02*
X4818182Y-15347531D01*
X4818182Y-15347531D02*
X4827705Y-15366579D01*
X4827705Y-15366579D02*
X4837229Y-15404674D01*
X4837229Y-15404674D02*
X4837229Y-15452293D01*
X4837229Y-15452293D02*
X4827705Y-15490388D01*
X4827705Y-15490388D02*
X4818182Y-15509436D01*
X4818182Y-15509436D02*
X4808658Y-15518960D01*
X4808658Y-15518960D02*
X4789610Y-15528484D01*
X4789610Y-15528484D02*
X4770563Y-15528484D01*
X4770563Y-15528484D02*
X4751515Y-15518960D01*
X4751515Y-15518960D02*
X4741991Y-15509436D01*
X4741991Y-15509436D02*
X4732467Y-15490388D01*
X4732467Y-15490388D02*
X4722944Y-15452293D01*
X4722944Y-15452293D02*
X4722944Y-15404674D01*
X4722944Y-15404674D02*
X4732467Y-15366579D01*
X4732467Y-15366579D02*
X4741991Y-15347531D01*
X4741991Y-15347531D02*
X4751515Y-15338008D01*
X4751515Y-15338008D02*
X4770563Y-15328484D01*
X4961039Y-15328484D02*
X4980086Y-15328484D01*
X4980086Y-15328484D02*
X4999134Y-15338008D01*
X4999134Y-15338008D02*
X5008658Y-15347531D01*
X5008658Y-15347531D02*
X5018182Y-15366579D01*
X5018182Y-15366579D02*
X5027705Y-15404674D01*
X5027705Y-15404674D02*
X5027705Y-15452293D01*
X5027705Y-15452293D02*
X5018182Y-15490388D01*
X5018182Y-15490388D02*
X5008658Y-15509436D01*
X5008658Y-15509436D02*
X4999134Y-15518960D01*
X4999134Y-15518960D02*
X4980086Y-15528484D01*
X4980086Y-15528484D02*
X4961039Y-15528484D01*
X4961039Y-15528484D02*
X4941991Y-15518960D01*
X4941991Y-15518960D02*
X4932467Y-15509436D01*
X4932467Y-15509436D02*
X4922944Y-15490388D01*
X4922944Y-15490388D02*
X4913420Y-15452293D01*
X4913420Y-15452293D02*
X4913420Y-15404674D01*
X4913420Y-15404674D02*
X4922944Y-15366579D01*
X4922944Y-15366579D02*
X4932467Y-15347531D01*
X4932467Y-15347531D02*
X4941991Y-15338008D01*
X4941991Y-15338008D02*
X4961039Y-15328484D01*
X5113420Y-15528484D02*
X5113420Y-15395150D01*
X5113420Y-15414198D02*
X5122944Y-15404674D01*
X5122944Y-15404674D02*
X5141991Y-15395150D01*
X5141991Y-15395150D02*
X5170563Y-15395150D01*
X5170563Y-15395150D02*
X5189610Y-15404674D01*
X5189610Y-15404674D02*
X5199134Y-15423722D01*
X5199134Y-15423722D02*
X5199134Y-15528484D01*
X5199134Y-15423722D02*
X5208658Y-15404674D01*
X5208658Y-15404674D02*
X5227705Y-15395150D01*
X5227705Y-15395150D02*
X5256277Y-15395150D01*
X5256277Y-15395150D02*
X5275325Y-15404674D01*
X5275325Y-15404674D02*
X5284848Y-15423722D01*
X5284848Y-15423722D02*
X5284848Y-15528484D01*
X5380086Y-15528484D02*
X5380086Y-15395150D01*
X5380086Y-15414198D02*
X5389610Y-15404674D01*
X5389610Y-15404674D02*
X5408658Y-15395150D01*
X5408658Y-15395150D02*
X5437229Y-15395150D01*
X5437229Y-15395150D02*
X5456277Y-15404674D01*
X5456277Y-15404674D02*
X5465801Y-15423722D01*
X5465801Y-15423722D02*
X5465801Y-15528484D01*
X5465801Y-15423722D02*
X5475325Y-15404674D01*
X5475325Y-15404674D02*
X5494372Y-15395150D01*
X5494372Y-15395150D02*
X5522944Y-15395150D01*
X5522944Y-15395150D02*
X5541991Y-15404674D01*
X5541991Y-15404674D02*
X5551515Y-15423722D01*
X5551515Y-15423722D02*
X5551515Y-15528484D01*
X5941991Y-15318960D02*
X5770563Y-15576103D01*
X6199134Y-15328484D02*
X6218182Y-15328484D01*
X6218182Y-15328484D02*
X6237229Y-15338008D01*
X6237229Y-15338008D02*
X6246753Y-15347531D01*
X6246753Y-15347531D02*
X6256277Y-15366579D01*
X6256277Y-15366579D02*
X6265801Y-15404674D01*
X6265801Y-15404674D02*
X6265801Y-15452293D01*
X6265801Y-15452293D02*
X6256277Y-15490388D01*
X6256277Y-15490388D02*
X6246753Y-15509436D01*
X6246753Y-15509436D02*
X6237229Y-15518960D01*
X6237229Y-15518960D02*
X6218182Y-15528484D01*
X6218182Y-15528484D02*
X6199134Y-15528484D01*
X6199134Y-15528484D02*
X6180086Y-15518960D01*
X6180086Y-15518960D02*
X6170563Y-15509436D01*
X6170563Y-15509436D02*
X6161039Y-15490388D01*
X6161039Y-15490388D02*
X6151515Y-15452293D01*
X6151515Y-15452293D02*
X6151515Y-15404674D01*
X6151515Y-15404674D02*
X6161039Y-15366579D01*
X6161039Y-15366579D02*
X6170563Y-15347531D01*
X6170563Y-15347531D02*
X6180086Y-15338008D01*
X6180086Y-15338008D02*
X6199134Y-15328484D01*
X6351515Y-15509436D02*
X6361039Y-15518960D01*
X6361039Y-15518960D02*
X6351515Y-15528484D01*
X6351515Y-15528484D02*
X6341991Y-15518960D01*
X6341991Y-15518960D02*
X6351515Y-15509436D01*
X6351515Y-15509436D02*
X6351515Y-15528484D01*
X6484848Y-15328484D02*
X6503896Y-15328484D01*
X6503896Y-15328484D02*
X6522944Y-15338008D01*
X6522944Y-15338008D02*
X6532467Y-15347531D01*
X6532467Y-15347531D02*
X6541991Y-15366579D01*
X6541991Y-15366579D02*
X6551515Y-15404674D01*
X6551515Y-15404674D02*
X6551515Y-15452293D01*
X6551515Y-15452293D02*
X6541991Y-15490388D01*
X6541991Y-15490388D02*
X6532467Y-15509436D01*
X6532467Y-15509436D02*
X6522944Y-15518960D01*
X6522944Y-15518960D02*
X6503896Y-15528484D01*
X6503896Y-15528484D02*
X6484848Y-15528484D01*
X6484848Y-15528484D02*
X6465801Y-15518960D01*
X6465801Y-15518960D02*
X6456277Y-15509436D01*
X6456277Y-15509436D02*
X6446753Y-15490388D01*
X6446753Y-15490388D02*
X6437229Y-15452293D01*
X6437229Y-15452293D02*
X6437229Y-15404674D01*
X6437229Y-15404674D02*
X6446753Y-15366579D01*
X6446753Y-15366579D02*
X6456277Y-15347531D01*
X6456277Y-15347531D02*
X6465801Y-15338008D01*
X6465801Y-15338008D02*
X6484848Y-15328484D01*
X6732467Y-15328484D02*
X6637229Y-15328484D01*
X6637229Y-15328484D02*
X6627706Y-15423722D01*
X6627706Y-15423722D02*
X6637229Y-15414198D01*
X6637229Y-15414198D02*
X6656277Y-15404674D01*
X6656277Y-15404674D02*
X6703896Y-15404674D01*
X6703896Y-15404674D02*
X6722944Y-15414198D01*
X6722944Y-15414198D02*
X6732467Y-15423722D01*
X6732467Y-15423722D02*
X6741991Y-15442769D01*
X6741991Y-15442769D02*
X6741991Y-15490388D01*
X6741991Y-15490388D02*
X6732467Y-15509436D01*
X6732467Y-15509436D02*
X6722944Y-15518960D01*
X6722944Y-15518960D02*
X6703896Y-15528484D01*
X6703896Y-15528484D02*
X6656277Y-15528484D01*
X6656277Y-15528484D02*
X6637229Y-15518960D01*
X6637229Y-15518960D02*
X6627706Y-15509436D01*
X6837229Y-15528484D02*
X6875325Y-15528484D01*
X6875325Y-15528484D02*
X6894372Y-15518960D01*
X6894372Y-15518960D02*
X6903896Y-15509436D01*
X6903896Y-15509436D02*
X6922944Y-15480865D01*
X6922944Y-15480865D02*
X6932467Y-15442769D01*
X6932467Y-15442769D02*
X6932467Y-15366579D01*
X6932467Y-15366579D02*
X6922944Y-15347531D01*
X6922944Y-15347531D02*
X6913420Y-15338008D01*
X6913420Y-15338008D02*
X6894372Y-15328484D01*
X6894372Y-15328484D02*
X6856277Y-15328484D01*
X6856277Y-15328484D02*
X6837229Y-15338008D01*
X6837229Y-15338008D02*
X6827706Y-15347531D01*
X6827706Y-15347531D02*
X6818182Y-15366579D01*
X6818182Y-15366579D02*
X6818182Y-15414198D01*
X6818182Y-15414198D02*
X6827706Y-15433246D01*
X6827706Y-15433246D02*
X6837229Y-15442769D01*
X6837229Y-15442769D02*
X6856277Y-15452293D01*
X6856277Y-15452293D02*
X6894372Y-15452293D01*
X6894372Y-15452293D02*
X6913420Y-15442769D01*
X6913420Y-15442769D02*
X6922944Y-15433246D01*
X6922944Y-15433246D02*
X6932467Y-15414198D01*
X7122944Y-15528484D02*
X7008658Y-15528484D01*
X7065801Y-15528484D02*
X7065801Y-15328484D01*
X7065801Y-15328484D02*
X7046753Y-15357055D01*
X7046753Y-15357055D02*
X7027706Y-15376103D01*
X7027706Y-15376103D02*
X7008658Y-15385627D01*
X7199134Y-15328484D02*
X7199134Y-15366579D01*
X7275325Y-15328484D02*
X7275325Y-15366579D01*
X7570563Y-15604674D02*
X7561039Y-15595150D01*
X7561039Y-15595150D02*
X7541991Y-15566579D01*
X7541991Y-15566579D02*
X7532468Y-15547531D01*
X7532468Y-15547531D02*
X7522944Y-15518960D01*
X7522944Y-15518960D02*
X7513420Y-15471341D01*
X7513420Y-15471341D02*
X7513420Y-15433246D01*
X7513420Y-15433246D02*
X7522944Y-15385627D01*
X7522944Y-15385627D02*
X7532468Y-15357055D01*
X7532468Y-15357055D02*
X7541991Y-15338008D01*
X7541991Y-15338008D02*
X7561039Y-15309436D01*
X7561039Y-15309436D02*
X7570563Y-15299912D01*
X7751515Y-15528484D02*
X7637229Y-15528484D01*
X7694372Y-15528484D02*
X7694372Y-15328484D01*
X7694372Y-15328484D02*
X7675325Y-15357055D01*
X7675325Y-15357055D02*
X7656277Y-15376103D01*
X7656277Y-15376103D02*
X7637229Y-15385627D01*
X7989610Y-15528484D02*
X7989610Y-15328484D01*
X8075325Y-15528484D02*
X8075325Y-15423722D01*
X8075325Y-15423722D02*
X8065801Y-15404674D01*
X8065801Y-15404674D02*
X8046753Y-15395150D01*
X8046753Y-15395150D02*
X8018182Y-15395150D01*
X8018182Y-15395150D02*
X7999134Y-15404674D01*
X7999134Y-15404674D02*
X7989610Y-15414198D01*
X8199134Y-15528484D02*
X8180087Y-15518960D01*
X8180087Y-15518960D02*
X8170563Y-15509436D01*
X8170563Y-15509436D02*
X8161039Y-15490388D01*
X8161039Y-15490388D02*
X8161039Y-15433246D01*
X8161039Y-15433246D02*
X8170563Y-15414198D01*
X8170563Y-15414198D02*
X8180087Y-15404674D01*
X8180087Y-15404674D02*
X8199134Y-15395150D01*
X8199134Y-15395150D02*
X8227706Y-15395150D01*
X8227706Y-15395150D02*
X8246753Y-15404674D01*
X8246753Y-15404674D02*
X8256277Y-15414198D01*
X8256277Y-15414198D02*
X8265801Y-15433246D01*
X8265801Y-15433246D02*
X8265801Y-15490388D01*
X8265801Y-15490388D02*
X8256277Y-15509436D01*
X8256277Y-15509436D02*
X8246753Y-15518960D01*
X8246753Y-15518960D02*
X8227706Y-15528484D01*
X8227706Y-15528484D02*
X8199134Y-15528484D01*
X8380087Y-15528484D02*
X8361039Y-15518960D01*
X8361039Y-15518960D02*
X8351515Y-15499912D01*
X8351515Y-15499912D02*
X8351515Y-15328484D01*
X8532468Y-15518960D02*
X8513420Y-15528484D01*
X8513420Y-15528484D02*
X8475325Y-15528484D01*
X8475325Y-15528484D02*
X8456277Y-15518960D01*
X8456277Y-15518960D02*
X8446753Y-15499912D01*
X8446753Y-15499912D02*
X8446753Y-15423722D01*
X8446753Y-15423722D02*
X8456277Y-15404674D01*
X8456277Y-15404674D02*
X8475325Y-15395150D01*
X8475325Y-15395150D02*
X8513420Y-15395150D01*
X8513420Y-15395150D02*
X8532468Y-15404674D01*
X8532468Y-15404674D02*
X8541992Y-15423722D01*
X8541992Y-15423722D02*
X8541992Y-15442769D01*
X8541992Y-15442769D02*
X8446753Y-15461817D01*
X8608658Y-15604674D02*
X8618182Y-15595150D01*
X8618182Y-15595150D02*
X8637230Y-15566579D01*
X8637230Y-15566579D02*
X8646753Y-15547531D01*
X8646753Y-15547531D02*
X8656277Y-15518960D01*
X8656277Y-15518960D02*
X8665801Y-15471341D01*
X8665801Y-15471341D02*
X8665801Y-15433246D01*
X8665801Y-15433246D02*
X8656277Y-15385627D01*
X8656277Y-15385627D02*
X8646753Y-15357055D01*
X8646753Y-15357055D02*
X8637230Y-15338008D01*
X8637230Y-15338008D02*
X8618182Y-15309436D01*
X8618182Y-15309436D02*
X8608658Y-15299912D01*
D14*
X3835500Y-15627000D02*
X3995500Y-15787000D01*
X3995500Y-15627000D02*
X3835500Y-15787000D01*
X3972069Y-15763569D02*
X3972069Y-15650431D01*
X3858931Y-15650431D01*
X3858931Y-15763569D01*
X3972069Y-15763569D01*
D11*
X4361039Y-15798484D02*
X4246753Y-15798484D01*
X4303896Y-15798484D02*
X4303896Y-15598484D01*
X4303896Y-15598484D02*
X4284848Y-15627055D01*
X4284848Y-15627055D02*
X4265801Y-15646103D01*
X4265801Y-15646103D02*
X4246753Y-15655627D01*
X4446753Y-15779436D02*
X4456277Y-15788960D01*
X4456277Y-15788960D02*
X4446753Y-15798484D01*
X4446753Y-15798484D02*
X4437229Y-15788960D01*
X4437229Y-15788960D02*
X4446753Y-15779436D01*
X4446753Y-15779436D02*
X4446753Y-15798484D01*
X4627705Y-15598484D02*
X4589610Y-15598484D01*
X4589610Y-15598484D02*
X4570563Y-15608008D01*
X4570563Y-15608008D02*
X4561039Y-15617531D01*
X4561039Y-15617531D02*
X4541991Y-15646103D01*
X4541991Y-15646103D02*
X4532467Y-15684198D01*
X4532467Y-15684198D02*
X4532467Y-15760388D01*
X4532467Y-15760388D02*
X4541991Y-15779436D01*
X4541991Y-15779436D02*
X4551515Y-15788960D01*
X4551515Y-15788960D02*
X4570563Y-15798484D01*
X4570563Y-15798484D02*
X4608658Y-15798484D01*
X4608658Y-15798484D02*
X4627705Y-15788960D01*
X4627705Y-15788960D02*
X4637229Y-15779436D01*
X4637229Y-15779436D02*
X4646753Y-15760388D01*
X4646753Y-15760388D02*
X4646753Y-15712769D01*
X4646753Y-15712769D02*
X4637229Y-15693722D01*
X4637229Y-15693722D02*
X4627705Y-15684198D01*
X4627705Y-15684198D02*
X4608658Y-15674674D01*
X4608658Y-15674674D02*
X4570563Y-15674674D01*
X4570563Y-15674674D02*
X4551515Y-15684198D01*
X4551515Y-15684198D02*
X4541991Y-15693722D01*
X4541991Y-15693722D02*
X4532467Y-15712769D01*
X4770563Y-15598484D02*
X4789610Y-15598484D01*
X4789610Y-15598484D02*
X4808658Y-15608008D01*
X4808658Y-15608008D02*
X4818182Y-15617531D01*
X4818182Y-15617531D02*
X4827705Y-15636579D01*
X4827705Y-15636579D02*
X4837229Y-15674674D01*
X4837229Y-15674674D02*
X4837229Y-15722293D01*
X4837229Y-15722293D02*
X4827705Y-15760388D01*
X4827705Y-15760388D02*
X4818182Y-15779436D01*
X4818182Y-15779436D02*
X4808658Y-15788960D01*
X4808658Y-15788960D02*
X4789610Y-15798484D01*
X4789610Y-15798484D02*
X4770563Y-15798484D01*
X4770563Y-15798484D02*
X4751515Y-15788960D01*
X4751515Y-15788960D02*
X4741991Y-15779436D01*
X4741991Y-15779436D02*
X4732467Y-15760388D01*
X4732467Y-15760388D02*
X4722944Y-15722293D01*
X4722944Y-15722293D02*
X4722944Y-15674674D01*
X4722944Y-15674674D02*
X4732467Y-15636579D01*
X4732467Y-15636579D02*
X4741991Y-15617531D01*
X4741991Y-15617531D02*
X4751515Y-15608008D01*
X4751515Y-15608008D02*
X4770563Y-15598484D01*
X4961039Y-15598484D02*
X4980086Y-15598484D01*
X4980086Y-15598484D02*
X4999134Y-15608008D01*
X4999134Y-15608008D02*
X5008658Y-15617531D01*
X5008658Y-15617531D02*
X5018182Y-15636579D01*
X5018182Y-15636579D02*
X5027705Y-15674674D01*
X5027705Y-15674674D02*
X5027705Y-15722293D01*
X5027705Y-15722293D02*
X5018182Y-15760388D01*
X5018182Y-15760388D02*
X5008658Y-15779436D01*
X5008658Y-15779436D02*
X4999134Y-15788960D01*
X4999134Y-15788960D02*
X4980086Y-15798484D01*
X4980086Y-15798484D02*
X4961039Y-15798484D01*
X4961039Y-15798484D02*
X4941991Y-15788960D01*
X4941991Y-15788960D02*
X4932467Y-15779436D01*
X4932467Y-15779436D02*
X4922944Y-15760388D01*
X4922944Y-15760388D02*
X4913420Y-15722293D01*
X4913420Y-15722293D02*
X4913420Y-15674674D01*
X4913420Y-15674674D02*
X4922944Y-15636579D01*
X4922944Y-15636579D02*
X4932467Y-15617531D01*
X4932467Y-15617531D02*
X4941991Y-15608008D01*
X4941991Y-15608008D02*
X4961039Y-15598484D01*
X5113420Y-15798484D02*
X5113420Y-15665150D01*
X5113420Y-15684198D02*
X5122944Y-15674674D01*
X5122944Y-15674674D02*
X5141991Y-15665150D01*
X5141991Y-15665150D02*
X5170563Y-15665150D01*
X5170563Y-15665150D02*
X5189610Y-15674674D01*
X5189610Y-15674674D02*
X5199134Y-15693722D01*
X5199134Y-15693722D02*
X5199134Y-15798484D01*
X5199134Y-15693722D02*
X5208658Y-15674674D01*
X5208658Y-15674674D02*
X5227705Y-15665150D01*
X5227705Y-15665150D02*
X5256277Y-15665150D01*
X5256277Y-15665150D02*
X5275325Y-15674674D01*
X5275325Y-15674674D02*
X5284848Y-15693722D01*
X5284848Y-15693722D02*
X5284848Y-15798484D01*
X5380086Y-15798484D02*
X5380086Y-15665150D01*
X5380086Y-15684198D02*
X5389610Y-15674674D01*
X5389610Y-15674674D02*
X5408658Y-15665150D01*
X5408658Y-15665150D02*
X5437229Y-15665150D01*
X5437229Y-15665150D02*
X5456277Y-15674674D01*
X5456277Y-15674674D02*
X5465801Y-15693722D01*
X5465801Y-15693722D02*
X5465801Y-15798484D01*
X5465801Y-15693722D02*
X5475325Y-15674674D01*
X5475325Y-15674674D02*
X5494372Y-15665150D01*
X5494372Y-15665150D02*
X5522944Y-15665150D01*
X5522944Y-15665150D02*
X5541991Y-15674674D01*
X5541991Y-15674674D02*
X5551515Y-15693722D01*
X5551515Y-15693722D02*
X5551515Y-15798484D01*
X5941991Y-15588960D02*
X5770563Y-15846103D01*
X6199134Y-15598484D02*
X6218182Y-15598484D01*
X6218182Y-15598484D02*
X6237229Y-15608008D01*
X6237229Y-15608008D02*
X6246753Y-15617531D01*
X6246753Y-15617531D02*
X6256277Y-15636579D01*
X6256277Y-15636579D02*
X6265801Y-15674674D01*
X6265801Y-15674674D02*
X6265801Y-15722293D01*
X6265801Y-15722293D02*
X6256277Y-15760388D01*
X6256277Y-15760388D02*
X6246753Y-15779436D01*
X6246753Y-15779436D02*
X6237229Y-15788960D01*
X6237229Y-15788960D02*
X6218182Y-15798484D01*
X6218182Y-15798484D02*
X6199134Y-15798484D01*
X6199134Y-15798484D02*
X6180086Y-15788960D01*
X6180086Y-15788960D02*
X6170563Y-15779436D01*
X6170563Y-15779436D02*
X6161039Y-15760388D01*
X6161039Y-15760388D02*
X6151515Y-15722293D01*
X6151515Y-15722293D02*
X6151515Y-15674674D01*
X6151515Y-15674674D02*
X6161039Y-15636579D01*
X6161039Y-15636579D02*
X6170563Y-15617531D01*
X6170563Y-15617531D02*
X6180086Y-15608008D01*
X6180086Y-15608008D02*
X6199134Y-15598484D01*
X6351515Y-15779436D02*
X6361039Y-15788960D01*
X6361039Y-15788960D02*
X6351515Y-15798484D01*
X6351515Y-15798484D02*
X6341991Y-15788960D01*
X6341991Y-15788960D02*
X6351515Y-15779436D01*
X6351515Y-15779436D02*
X6351515Y-15798484D01*
X6484848Y-15598484D02*
X6503896Y-15598484D01*
X6503896Y-15598484D02*
X6522944Y-15608008D01*
X6522944Y-15608008D02*
X6532467Y-15617531D01*
X6532467Y-15617531D02*
X6541991Y-15636579D01*
X6541991Y-15636579D02*
X6551515Y-15674674D01*
X6551515Y-15674674D02*
X6551515Y-15722293D01*
X6551515Y-15722293D02*
X6541991Y-15760388D01*
X6541991Y-15760388D02*
X6532467Y-15779436D01*
X6532467Y-15779436D02*
X6522944Y-15788960D01*
X6522944Y-15788960D02*
X6503896Y-15798484D01*
X6503896Y-15798484D02*
X6484848Y-15798484D01*
X6484848Y-15798484D02*
X6465801Y-15788960D01*
X6465801Y-15788960D02*
X6456277Y-15779436D01*
X6456277Y-15779436D02*
X6446753Y-15760388D01*
X6446753Y-15760388D02*
X6437229Y-15722293D01*
X6437229Y-15722293D02*
X6437229Y-15674674D01*
X6437229Y-15674674D02*
X6446753Y-15636579D01*
X6446753Y-15636579D02*
X6456277Y-15617531D01*
X6456277Y-15617531D02*
X6465801Y-15608008D01*
X6465801Y-15608008D02*
X6484848Y-15598484D01*
X6722944Y-15598484D02*
X6684848Y-15598484D01*
X6684848Y-15598484D02*
X6665801Y-15608008D01*
X6665801Y-15608008D02*
X6656277Y-15617531D01*
X6656277Y-15617531D02*
X6637229Y-15646103D01*
X6637229Y-15646103D02*
X6627706Y-15684198D01*
X6627706Y-15684198D02*
X6627706Y-15760388D01*
X6627706Y-15760388D02*
X6637229Y-15779436D01*
X6637229Y-15779436D02*
X6646753Y-15788960D01*
X6646753Y-15788960D02*
X6665801Y-15798484D01*
X6665801Y-15798484D02*
X6703896Y-15798484D01*
X6703896Y-15798484D02*
X6722944Y-15788960D01*
X6722944Y-15788960D02*
X6732467Y-15779436D01*
X6732467Y-15779436D02*
X6741991Y-15760388D01*
X6741991Y-15760388D02*
X6741991Y-15712769D01*
X6741991Y-15712769D02*
X6732467Y-15693722D01*
X6732467Y-15693722D02*
X6722944Y-15684198D01*
X6722944Y-15684198D02*
X6703896Y-15674674D01*
X6703896Y-15674674D02*
X6665801Y-15674674D01*
X6665801Y-15674674D02*
X6646753Y-15684198D01*
X6646753Y-15684198D02*
X6637229Y-15693722D01*
X6637229Y-15693722D02*
X6627706Y-15712769D01*
X6808658Y-15598484D02*
X6932467Y-15598484D01*
X6932467Y-15598484D02*
X6865801Y-15674674D01*
X6865801Y-15674674D02*
X6894372Y-15674674D01*
X6894372Y-15674674D02*
X6913420Y-15684198D01*
X6913420Y-15684198D02*
X6922944Y-15693722D01*
X6922944Y-15693722D02*
X6932467Y-15712769D01*
X6932467Y-15712769D02*
X6932467Y-15760388D01*
X6932467Y-15760388D02*
X6922944Y-15779436D01*
X6922944Y-15779436D02*
X6913420Y-15788960D01*
X6913420Y-15788960D02*
X6894372Y-15798484D01*
X6894372Y-15798484D02*
X6837229Y-15798484D01*
X6837229Y-15798484D02*
X6818182Y-15788960D01*
X6818182Y-15788960D02*
X6808658Y-15779436D01*
X7056277Y-15598484D02*
X7075325Y-15598484D01*
X7075325Y-15598484D02*
X7094372Y-15608008D01*
X7094372Y-15608008D02*
X7103896Y-15617531D01*
X7103896Y-15617531D02*
X7113420Y-15636579D01*
X7113420Y-15636579D02*
X7122944Y-15674674D01*
X7122944Y-15674674D02*
X7122944Y-15722293D01*
X7122944Y-15722293D02*
X7113420Y-15760388D01*
X7113420Y-15760388D02*
X7103896Y-15779436D01*
X7103896Y-15779436D02*
X7094372Y-15788960D01*
X7094372Y-15788960D02*
X7075325Y-15798484D01*
X7075325Y-15798484D02*
X7056277Y-15798484D01*
X7056277Y-15798484D02*
X7037229Y-15788960D01*
X7037229Y-15788960D02*
X7027706Y-15779436D01*
X7027706Y-15779436D02*
X7018182Y-15760388D01*
X7018182Y-15760388D02*
X7008658Y-15722293D01*
X7008658Y-15722293D02*
X7008658Y-15674674D01*
X7008658Y-15674674D02*
X7018182Y-15636579D01*
X7018182Y-15636579D02*
X7027706Y-15617531D01*
X7027706Y-15617531D02*
X7037229Y-15608008D01*
X7037229Y-15608008D02*
X7056277Y-15598484D01*
X7199134Y-15598484D02*
X7199134Y-15636579D01*
X7275325Y-15598484D02*
X7275325Y-15636579D01*
X7570563Y-15874674D02*
X7561039Y-15865150D01*
X7561039Y-15865150D02*
X7541991Y-15836579D01*
X7541991Y-15836579D02*
X7532468Y-15817531D01*
X7532468Y-15817531D02*
X7522944Y-15788960D01*
X7522944Y-15788960D02*
X7513420Y-15741341D01*
X7513420Y-15741341D02*
X7513420Y-15703246D01*
X7513420Y-15703246D02*
X7522944Y-15655627D01*
X7522944Y-15655627D02*
X7532468Y-15627055D01*
X7532468Y-15627055D02*
X7541991Y-15608008D01*
X7541991Y-15608008D02*
X7561039Y-15579436D01*
X7561039Y-15579436D02*
X7570563Y-15569912D01*
X7751515Y-15798484D02*
X7637229Y-15798484D01*
X7694372Y-15798484D02*
X7694372Y-15598484D01*
X7694372Y-15598484D02*
X7675325Y-15627055D01*
X7675325Y-15627055D02*
X7656277Y-15646103D01*
X7656277Y-15646103D02*
X7637229Y-15655627D01*
X7827706Y-15617531D02*
X7837229Y-15608008D01*
X7837229Y-15608008D02*
X7856277Y-15598484D01*
X7856277Y-15598484D02*
X7903896Y-15598484D01*
X7903896Y-15598484D02*
X7922944Y-15608008D01*
X7922944Y-15608008D02*
X7932468Y-15617531D01*
X7932468Y-15617531D02*
X7941991Y-15636579D01*
X7941991Y-15636579D02*
X7941991Y-15655627D01*
X7941991Y-15655627D02*
X7932468Y-15684198D01*
X7932468Y-15684198D02*
X7818182Y-15798484D01*
X7818182Y-15798484D02*
X7941991Y-15798484D01*
X8180087Y-15798484D02*
X8180087Y-15598484D01*
X8265801Y-15798484D02*
X8265801Y-15693722D01*
X8265801Y-15693722D02*
X8256277Y-15674674D01*
X8256277Y-15674674D02*
X8237230Y-15665150D01*
X8237230Y-15665150D02*
X8208658Y-15665150D01*
X8208658Y-15665150D02*
X8189610Y-15674674D01*
X8189610Y-15674674D02*
X8180087Y-15684198D01*
X8389611Y-15798484D02*
X8370563Y-15788960D01*
X8370563Y-15788960D02*
X8361039Y-15779436D01*
X8361039Y-15779436D02*
X8351515Y-15760388D01*
X8351515Y-15760388D02*
X8351515Y-15703246D01*
X8351515Y-15703246D02*
X8361039Y-15684198D01*
X8361039Y-15684198D02*
X8370563Y-15674674D01*
X8370563Y-15674674D02*
X8389611Y-15665150D01*
X8389611Y-15665150D02*
X8418182Y-15665150D01*
X8418182Y-15665150D02*
X8437230Y-15674674D01*
X8437230Y-15674674D02*
X8446753Y-15684198D01*
X8446753Y-15684198D02*
X8456277Y-15703246D01*
X8456277Y-15703246D02*
X8456277Y-15760388D01*
X8456277Y-15760388D02*
X8446753Y-15779436D01*
X8446753Y-15779436D02*
X8437230Y-15788960D01*
X8437230Y-15788960D02*
X8418182Y-15798484D01*
X8418182Y-15798484D02*
X8389611Y-15798484D01*
X8570563Y-15798484D02*
X8551515Y-15788960D01*
X8551515Y-15788960D02*
X8541992Y-15769912D01*
X8541992Y-15769912D02*
X8541992Y-15598484D01*
X8722944Y-15788960D02*
X8703896Y-15798484D01*
X8703896Y-15798484D02*
X8665801Y-15798484D01*
X8665801Y-15798484D02*
X8646753Y-15788960D01*
X8646753Y-15788960D02*
X8637230Y-15769912D01*
X8637230Y-15769912D02*
X8637230Y-15693722D01*
X8637230Y-15693722D02*
X8646753Y-15674674D01*
X8646753Y-15674674D02*
X8665801Y-15665150D01*
X8665801Y-15665150D02*
X8703896Y-15665150D01*
X8703896Y-15665150D02*
X8722944Y-15674674D01*
X8722944Y-15674674D02*
X8732468Y-15693722D01*
X8732468Y-15693722D02*
X8732468Y-15712769D01*
X8732468Y-15712769D02*
X8637230Y-15731817D01*
X8808658Y-15788960D02*
X8827706Y-15798484D01*
X8827706Y-15798484D02*
X8865801Y-15798484D01*
X8865801Y-15798484D02*
X8884849Y-15788960D01*
X8884849Y-15788960D02*
X8894373Y-15769912D01*
X8894373Y-15769912D02*
X8894373Y-15760388D01*
X8894373Y-15760388D02*
X8884849Y-15741341D01*
X8884849Y-15741341D02*
X8865801Y-15731817D01*
X8865801Y-15731817D02*
X8837230Y-15731817D01*
X8837230Y-15731817D02*
X8818182Y-15722293D01*
X8818182Y-15722293D02*
X8808658Y-15703246D01*
X8808658Y-15703246D02*
X8808658Y-15693722D01*
X8808658Y-15693722D02*
X8818182Y-15674674D01*
X8818182Y-15674674D02*
X8837230Y-15665150D01*
X8837230Y-15665150D02*
X8865801Y-15665150D01*
X8865801Y-15665150D02*
X8884849Y-15674674D01*
X8961039Y-15874674D02*
X8970563Y-15865150D01*
X8970563Y-15865150D02*
X8989611Y-15836579D01*
X8989611Y-15836579D02*
X8999134Y-15817531D01*
X8999134Y-15817531D02*
X9008658Y-15788960D01*
X9008658Y-15788960D02*
X9018182Y-15741341D01*
X9018182Y-15741341D02*
X9018182Y-15703246D01*
X9018182Y-15703246D02*
X9008658Y-15655627D01*
X9008658Y-15655627D02*
X8999134Y-15627055D01*
X8999134Y-15627055D02*
X8989611Y-15608008D01*
X8989611Y-15608008D02*
X8970563Y-15579436D01*
X8970563Y-15579436D02*
X8961039Y-15569912D01*
D15*
X3815500Y-15897000D02*
X3995500Y-16077000D01*
X3995500Y-15897000D02*
X3815500Y-16077000D01*
X3905500Y-16077000D02*
X3995500Y-15987000D01*
X3905500Y-15897000D01*
X3815500Y-15987000D01*
X3905500Y-16077000D01*
D11*
X4361039Y-16078484D02*
X4246753Y-16078484D01*
X4303896Y-16078484D02*
X4303896Y-15878484D01*
X4303896Y-15878484D02*
X4284848Y-15907055D01*
X4284848Y-15907055D02*
X4265801Y-15926103D01*
X4265801Y-15926103D02*
X4246753Y-15935627D01*
X4446753Y-16059436D02*
X4456277Y-16068960D01*
X4456277Y-16068960D02*
X4446753Y-16078484D01*
X4446753Y-16078484D02*
X4437229Y-16068960D01*
X4437229Y-16068960D02*
X4446753Y-16059436D01*
X4446753Y-16059436D02*
X4446753Y-16078484D01*
X4570563Y-15964198D02*
X4551515Y-15954674D01*
X4551515Y-15954674D02*
X4541991Y-15945150D01*
X4541991Y-15945150D02*
X4532467Y-15926103D01*
X4532467Y-15926103D02*
X4532467Y-15916579D01*
X4532467Y-15916579D02*
X4541991Y-15897531D01*
X4541991Y-15897531D02*
X4551515Y-15888008D01*
X4551515Y-15888008D02*
X4570563Y-15878484D01*
X4570563Y-15878484D02*
X4608658Y-15878484D01*
X4608658Y-15878484D02*
X4627705Y-15888008D01*
X4627705Y-15888008D02*
X4637229Y-15897531D01*
X4637229Y-15897531D02*
X4646753Y-15916579D01*
X4646753Y-15916579D02*
X4646753Y-15926103D01*
X4646753Y-15926103D02*
X4637229Y-15945150D01*
X4637229Y-15945150D02*
X4627705Y-15954674D01*
X4627705Y-15954674D02*
X4608658Y-15964198D01*
X4608658Y-15964198D02*
X4570563Y-15964198D01*
X4570563Y-15964198D02*
X4551515Y-15973722D01*
X4551515Y-15973722D02*
X4541991Y-15983246D01*
X4541991Y-15983246D02*
X4532467Y-16002293D01*
X4532467Y-16002293D02*
X4532467Y-16040388D01*
X4532467Y-16040388D02*
X4541991Y-16059436D01*
X4541991Y-16059436D02*
X4551515Y-16068960D01*
X4551515Y-16068960D02*
X4570563Y-16078484D01*
X4570563Y-16078484D02*
X4608658Y-16078484D01*
X4608658Y-16078484D02*
X4627705Y-16068960D01*
X4627705Y-16068960D02*
X4637229Y-16059436D01*
X4637229Y-16059436D02*
X4646753Y-16040388D01*
X4646753Y-16040388D02*
X4646753Y-16002293D01*
X4646753Y-16002293D02*
X4637229Y-15983246D01*
X4637229Y-15983246D02*
X4627705Y-15973722D01*
X4627705Y-15973722D02*
X4608658Y-15964198D01*
X4770563Y-15878484D02*
X4789610Y-15878484D01*
X4789610Y-15878484D02*
X4808658Y-15888008D01*
X4808658Y-15888008D02*
X4818182Y-15897531D01*
X4818182Y-15897531D02*
X4827705Y-15916579D01*
X4827705Y-15916579D02*
X4837229Y-15954674D01*
X4837229Y-15954674D02*
X4837229Y-16002293D01*
X4837229Y-16002293D02*
X4827705Y-16040388D01*
X4827705Y-16040388D02*
X4818182Y-16059436D01*
X4818182Y-16059436D02*
X4808658Y-16068960D01*
X4808658Y-16068960D02*
X4789610Y-16078484D01*
X4789610Y-16078484D02*
X4770563Y-16078484D01*
X4770563Y-16078484D02*
X4751515Y-16068960D01*
X4751515Y-16068960D02*
X4741991Y-16059436D01*
X4741991Y-16059436D02*
X4732467Y-16040388D01*
X4732467Y-16040388D02*
X4722944Y-16002293D01*
X4722944Y-16002293D02*
X4722944Y-15954674D01*
X4722944Y-15954674D02*
X4732467Y-15916579D01*
X4732467Y-15916579D02*
X4741991Y-15897531D01*
X4741991Y-15897531D02*
X4751515Y-15888008D01*
X4751515Y-15888008D02*
X4770563Y-15878484D01*
X4961039Y-15878484D02*
X4980086Y-15878484D01*
X4980086Y-15878484D02*
X4999134Y-15888008D01*
X4999134Y-15888008D02*
X5008658Y-15897531D01*
X5008658Y-15897531D02*
X5018182Y-15916579D01*
X5018182Y-15916579D02*
X5027705Y-15954674D01*
X5027705Y-15954674D02*
X5027705Y-16002293D01*
X5027705Y-16002293D02*
X5018182Y-16040388D01*
X5018182Y-16040388D02*
X5008658Y-16059436D01*
X5008658Y-16059436D02*
X4999134Y-16068960D01*
X4999134Y-16068960D02*
X4980086Y-16078484D01*
X4980086Y-16078484D02*
X4961039Y-16078484D01*
X4961039Y-16078484D02*
X4941991Y-16068960D01*
X4941991Y-16068960D02*
X4932467Y-16059436D01*
X4932467Y-16059436D02*
X4922944Y-16040388D01*
X4922944Y-16040388D02*
X4913420Y-16002293D01*
X4913420Y-16002293D02*
X4913420Y-15954674D01*
X4913420Y-15954674D02*
X4922944Y-15916579D01*
X4922944Y-15916579D02*
X4932467Y-15897531D01*
X4932467Y-15897531D02*
X4941991Y-15888008D01*
X4941991Y-15888008D02*
X4961039Y-15878484D01*
X5113420Y-16078484D02*
X5113420Y-15945150D01*
X5113420Y-15964198D02*
X5122944Y-15954674D01*
X5122944Y-15954674D02*
X5141991Y-15945150D01*
X5141991Y-15945150D02*
X5170563Y-15945150D01*
X5170563Y-15945150D02*
X5189610Y-15954674D01*
X5189610Y-15954674D02*
X5199134Y-15973722D01*
X5199134Y-15973722D02*
X5199134Y-16078484D01*
X5199134Y-15973722D02*
X5208658Y-15954674D01*
X5208658Y-15954674D02*
X5227705Y-15945150D01*
X5227705Y-15945150D02*
X5256277Y-15945150D01*
X5256277Y-15945150D02*
X5275325Y-15954674D01*
X5275325Y-15954674D02*
X5284848Y-15973722D01*
X5284848Y-15973722D02*
X5284848Y-16078484D01*
X5380086Y-16078484D02*
X5380086Y-15945150D01*
X5380086Y-15964198D02*
X5389610Y-15954674D01*
X5389610Y-15954674D02*
X5408658Y-15945150D01*
X5408658Y-15945150D02*
X5437229Y-15945150D01*
X5437229Y-15945150D02*
X5456277Y-15954674D01*
X5456277Y-15954674D02*
X5465801Y-15973722D01*
X5465801Y-15973722D02*
X5465801Y-16078484D01*
X5465801Y-15973722D02*
X5475325Y-15954674D01*
X5475325Y-15954674D02*
X5494372Y-15945150D01*
X5494372Y-15945150D02*
X5522944Y-15945150D01*
X5522944Y-15945150D02*
X5541991Y-15954674D01*
X5541991Y-15954674D02*
X5551515Y-15973722D01*
X5551515Y-15973722D02*
X5551515Y-16078484D01*
X5941991Y-15868960D02*
X5770563Y-16126103D01*
X6199134Y-15878484D02*
X6218182Y-15878484D01*
X6218182Y-15878484D02*
X6237229Y-15888008D01*
X6237229Y-15888008D02*
X6246753Y-15897531D01*
X6246753Y-15897531D02*
X6256277Y-15916579D01*
X6256277Y-15916579D02*
X6265801Y-15954674D01*
X6265801Y-15954674D02*
X6265801Y-16002293D01*
X6265801Y-16002293D02*
X6256277Y-16040388D01*
X6256277Y-16040388D02*
X6246753Y-16059436D01*
X6246753Y-16059436D02*
X6237229Y-16068960D01*
X6237229Y-16068960D02*
X6218182Y-16078484D01*
X6218182Y-16078484D02*
X6199134Y-16078484D01*
X6199134Y-16078484D02*
X6180086Y-16068960D01*
X6180086Y-16068960D02*
X6170563Y-16059436D01*
X6170563Y-16059436D02*
X6161039Y-16040388D01*
X6161039Y-16040388D02*
X6151515Y-16002293D01*
X6151515Y-16002293D02*
X6151515Y-15954674D01*
X6151515Y-15954674D02*
X6161039Y-15916579D01*
X6161039Y-15916579D02*
X6170563Y-15897531D01*
X6170563Y-15897531D02*
X6180086Y-15888008D01*
X6180086Y-15888008D02*
X6199134Y-15878484D01*
X6351515Y-16059436D02*
X6361039Y-16068960D01*
X6361039Y-16068960D02*
X6351515Y-16078484D01*
X6351515Y-16078484D02*
X6341991Y-16068960D01*
X6341991Y-16068960D02*
X6351515Y-16059436D01*
X6351515Y-16059436D02*
X6351515Y-16078484D01*
X6484848Y-15878484D02*
X6503896Y-15878484D01*
X6503896Y-15878484D02*
X6522944Y-15888008D01*
X6522944Y-15888008D02*
X6532467Y-15897531D01*
X6532467Y-15897531D02*
X6541991Y-15916579D01*
X6541991Y-15916579D02*
X6551515Y-15954674D01*
X6551515Y-15954674D02*
X6551515Y-16002293D01*
X6551515Y-16002293D02*
X6541991Y-16040388D01*
X6541991Y-16040388D02*
X6532467Y-16059436D01*
X6532467Y-16059436D02*
X6522944Y-16068960D01*
X6522944Y-16068960D02*
X6503896Y-16078484D01*
X6503896Y-16078484D02*
X6484848Y-16078484D01*
X6484848Y-16078484D02*
X6465801Y-16068960D01*
X6465801Y-16068960D02*
X6456277Y-16059436D01*
X6456277Y-16059436D02*
X6446753Y-16040388D01*
X6446753Y-16040388D02*
X6437229Y-16002293D01*
X6437229Y-16002293D02*
X6437229Y-15954674D01*
X6437229Y-15954674D02*
X6446753Y-15916579D01*
X6446753Y-15916579D02*
X6456277Y-15897531D01*
X6456277Y-15897531D02*
X6465801Y-15888008D01*
X6465801Y-15888008D02*
X6484848Y-15878484D01*
X6618182Y-15878484D02*
X6751515Y-15878484D01*
X6751515Y-15878484D02*
X6665801Y-16078484D01*
X6865801Y-15878484D02*
X6884848Y-15878484D01*
X6884848Y-15878484D02*
X6903896Y-15888008D01*
X6903896Y-15888008D02*
X6913420Y-15897531D01*
X6913420Y-15897531D02*
X6922944Y-15916579D01*
X6922944Y-15916579D02*
X6932467Y-15954674D01*
X6932467Y-15954674D02*
X6932467Y-16002293D01*
X6932467Y-16002293D02*
X6922944Y-16040388D01*
X6922944Y-16040388D02*
X6913420Y-16059436D01*
X6913420Y-16059436D02*
X6903896Y-16068960D01*
X6903896Y-16068960D02*
X6884848Y-16078484D01*
X6884848Y-16078484D02*
X6865801Y-16078484D01*
X6865801Y-16078484D02*
X6846753Y-16068960D01*
X6846753Y-16068960D02*
X6837229Y-16059436D01*
X6837229Y-16059436D02*
X6827706Y-16040388D01*
X6827706Y-16040388D02*
X6818182Y-16002293D01*
X6818182Y-16002293D02*
X6818182Y-15954674D01*
X6818182Y-15954674D02*
X6827706Y-15916579D01*
X6827706Y-15916579D02*
X6837229Y-15897531D01*
X6837229Y-15897531D02*
X6846753Y-15888008D01*
X6846753Y-15888008D02*
X6865801Y-15878484D01*
X7027706Y-16078484D02*
X7065801Y-16078484D01*
X7065801Y-16078484D02*
X7084848Y-16068960D01*
X7084848Y-16068960D02*
X7094372Y-16059436D01*
X7094372Y-16059436D02*
X7113420Y-16030865D01*
X7113420Y-16030865D02*
X7122944Y-15992769D01*
X7122944Y-15992769D02*
X7122944Y-15916579D01*
X7122944Y-15916579D02*
X7113420Y-15897531D01*
X7113420Y-15897531D02*
X7103896Y-15888008D01*
X7103896Y-15888008D02*
X7084848Y-15878484D01*
X7084848Y-15878484D02*
X7046753Y-15878484D01*
X7046753Y-15878484D02*
X7027706Y-15888008D01*
X7027706Y-15888008D02*
X7018182Y-15897531D01*
X7018182Y-15897531D02*
X7008658Y-15916579D01*
X7008658Y-15916579D02*
X7008658Y-15964198D01*
X7008658Y-15964198D02*
X7018182Y-15983246D01*
X7018182Y-15983246D02*
X7027706Y-15992769D01*
X7027706Y-15992769D02*
X7046753Y-16002293D01*
X7046753Y-16002293D02*
X7084848Y-16002293D01*
X7084848Y-16002293D02*
X7103896Y-15992769D01*
X7103896Y-15992769D02*
X7113420Y-15983246D01*
X7113420Y-15983246D02*
X7122944Y-15964198D01*
X7199134Y-15878484D02*
X7199134Y-15916579D01*
X7275325Y-15878484D02*
X7275325Y-15916579D01*
X7570563Y-16154674D02*
X7561039Y-16145150D01*
X7561039Y-16145150D02*
X7541991Y-16116579D01*
X7541991Y-16116579D02*
X7532468Y-16097531D01*
X7532468Y-16097531D02*
X7522944Y-16068960D01*
X7522944Y-16068960D02*
X7513420Y-16021341D01*
X7513420Y-16021341D02*
X7513420Y-15983246D01*
X7513420Y-15983246D02*
X7522944Y-15935627D01*
X7522944Y-15935627D02*
X7532468Y-15907055D01*
X7532468Y-15907055D02*
X7541991Y-15888008D01*
X7541991Y-15888008D02*
X7561039Y-15859436D01*
X7561039Y-15859436D02*
X7570563Y-15849912D01*
X7684848Y-15878484D02*
X7703896Y-15878484D01*
X7703896Y-15878484D02*
X7722944Y-15888008D01*
X7722944Y-15888008D02*
X7732468Y-15897531D01*
X7732468Y-15897531D02*
X7741991Y-15916579D01*
X7741991Y-15916579D02*
X7751515Y-15954674D01*
X7751515Y-15954674D02*
X7751515Y-16002293D01*
X7751515Y-16002293D02*
X7741991Y-16040388D01*
X7741991Y-16040388D02*
X7732468Y-16059436D01*
X7732468Y-16059436D02*
X7722944Y-16068960D01*
X7722944Y-16068960D02*
X7703896Y-16078484D01*
X7703896Y-16078484D02*
X7684848Y-16078484D01*
X7684848Y-16078484D02*
X7665801Y-16068960D01*
X7665801Y-16068960D02*
X7656277Y-16059436D01*
X7656277Y-16059436D02*
X7646753Y-16040388D01*
X7646753Y-16040388D02*
X7637229Y-16002293D01*
X7637229Y-16002293D02*
X7637229Y-15954674D01*
X7637229Y-15954674D02*
X7646753Y-15916579D01*
X7646753Y-15916579D02*
X7656277Y-15897531D01*
X7656277Y-15897531D02*
X7665801Y-15888008D01*
X7665801Y-15888008D02*
X7684848Y-15878484D01*
X7989610Y-16078484D02*
X7989610Y-15878484D01*
X8075325Y-16078484D02*
X8075325Y-15973722D01*
X8075325Y-15973722D02*
X8065801Y-15954674D01*
X8065801Y-15954674D02*
X8046753Y-15945150D01*
X8046753Y-15945150D02*
X8018182Y-15945150D01*
X8018182Y-15945150D02*
X7999134Y-15954674D01*
X7999134Y-15954674D02*
X7989610Y-15964198D01*
X8199134Y-16078484D02*
X8180087Y-16068960D01*
X8180087Y-16068960D02*
X8170563Y-16059436D01*
X8170563Y-16059436D02*
X8161039Y-16040388D01*
X8161039Y-16040388D02*
X8161039Y-15983246D01*
X8161039Y-15983246D02*
X8170563Y-15964198D01*
X8170563Y-15964198D02*
X8180087Y-15954674D01*
X8180087Y-15954674D02*
X8199134Y-15945150D01*
X8199134Y-15945150D02*
X8227706Y-15945150D01*
X8227706Y-15945150D02*
X8246753Y-15954674D01*
X8246753Y-15954674D02*
X8256277Y-15964198D01*
X8256277Y-15964198D02*
X8265801Y-15983246D01*
X8265801Y-15983246D02*
X8265801Y-16040388D01*
X8265801Y-16040388D02*
X8256277Y-16059436D01*
X8256277Y-16059436D02*
X8246753Y-16068960D01*
X8246753Y-16068960D02*
X8227706Y-16078484D01*
X8227706Y-16078484D02*
X8199134Y-16078484D01*
X8380087Y-16078484D02*
X8361039Y-16068960D01*
X8361039Y-16068960D02*
X8351515Y-16049912D01*
X8351515Y-16049912D02*
X8351515Y-15878484D01*
X8532468Y-16068960D02*
X8513420Y-16078484D01*
X8513420Y-16078484D02*
X8475325Y-16078484D01*
X8475325Y-16078484D02*
X8456277Y-16068960D01*
X8456277Y-16068960D02*
X8446753Y-16049912D01*
X8446753Y-16049912D02*
X8446753Y-15973722D01*
X8446753Y-15973722D02*
X8456277Y-15954674D01*
X8456277Y-15954674D02*
X8475325Y-15945150D01*
X8475325Y-15945150D02*
X8513420Y-15945150D01*
X8513420Y-15945150D02*
X8532468Y-15954674D01*
X8532468Y-15954674D02*
X8541992Y-15973722D01*
X8541992Y-15973722D02*
X8541992Y-15992769D01*
X8541992Y-15992769D02*
X8446753Y-16011817D01*
X8618182Y-16068960D02*
X8637230Y-16078484D01*
X8637230Y-16078484D02*
X8675325Y-16078484D01*
X8675325Y-16078484D02*
X8694373Y-16068960D01*
X8694373Y-16068960D02*
X8703896Y-16049912D01*
X8703896Y-16049912D02*
X8703896Y-16040388D01*
X8703896Y-16040388D02*
X8694373Y-16021341D01*
X8694373Y-16021341D02*
X8675325Y-16011817D01*
X8675325Y-16011817D02*
X8646753Y-16011817D01*
X8646753Y-16011817D02*
X8627706Y-16002293D01*
X8627706Y-16002293D02*
X8618182Y-15983246D01*
X8618182Y-15983246D02*
X8618182Y-15973722D01*
X8618182Y-15973722D02*
X8627706Y-15954674D01*
X8627706Y-15954674D02*
X8646753Y-15945150D01*
X8646753Y-15945150D02*
X8675325Y-15945150D01*
X8675325Y-15945150D02*
X8694373Y-15954674D01*
X8941992Y-16002293D02*
X9094373Y-16002293D01*
X9018182Y-16078484D02*
X9018182Y-15926103D01*
X9370563Y-15964198D02*
X9351515Y-15954674D01*
X9351515Y-15954674D02*
X9341992Y-15945150D01*
X9341992Y-15945150D02*
X9332468Y-15926103D01*
X9332468Y-15926103D02*
X9332468Y-15916579D01*
X9332468Y-15916579D02*
X9341992Y-15897531D01*
X9341992Y-15897531D02*
X9351515Y-15888008D01*
X9351515Y-15888008D02*
X9370563Y-15878484D01*
X9370563Y-15878484D02*
X9408658Y-15878484D01*
X9408658Y-15878484D02*
X9427706Y-15888008D01*
X9427706Y-15888008D02*
X9437230Y-15897531D01*
X9437230Y-15897531D02*
X9446754Y-15916579D01*
X9446754Y-15916579D02*
X9446754Y-15926103D01*
X9446754Y-15926103D02*
X9437230Y-15945150D01*
X9437230Y-15945150D02*
X9427706Y-15954674D01*
X9427706Y-15954674D02*
X9408658Y-15964198D01*
X9408658Y-15964198D02*
X9370563Y-15964198D01*
X9370563Y-15964198D02*
X9351515Y-15973722D01*
X9351515Y-15973722D02*
X9341992Y-15983246D01*
X9341992Y-15983246D02*
X9332468Y-16002293D01*
X9332468Y-16002293D02*
X9332468Y-16040388D01*
X9332468Y-16040388D02*
X9341992Y-16059436D01*
X9341992Y-16059436D02*
X9351515Y-16068960D01*
X9351515Y-16068960D02*
X9370563Y-16078484D01*
X9370563Y-16078484D02*
X9408658Y-16078484D01*
X9408658Y-16078484D02*
X9427706Y-16068960D01*
X9427706Y-16068960D02*
X9437230Y-16059436D01*
X9437230Y-16059436D02*
X9446754Y-16040388D01*
X9446754Y-16040388D02*
X9446754Y-16002293D01*
X9446754Y-16002293D02*
X9437230Y-15983246D01*
X9437230Y-15983246D02*
X9427706Y-15973722D01*
X9427706Y-15973722D02*
X9408658Y-15964198D01*
X9675325Y-16068960D02*
X9694373Y-16078484D01*
X9694373Y-16078484D02*
X9732468Y-16078484D01*
X9732468Y-16078484D02*
X9751516Y-16068960D01*
X9751516Y-16068960D02*
X9761039Y-16049912D01*
X9761039Y-16049912D02*
X9761039Y-16040388D01*
X9761039Y-16040388D02*
X9751516Y-16021341D01*
X9751516Y-16021341D02*
X9732468Y-16011817D01*
X9732468Y-16011817D02*
X9703896Y-16011817D01*
X9703896Y-16011817D02*
X9684849Y-16002293D01*
X9684849Y-16002293D02*
X9675325Y-15983246D01*
X9675325Y-15983246D02*
X9675325Y-15973722D01*
X9675325Y-15973722D02*
X9684849Y-15954674D01*
X9684849Y-15954674D02*
X9703896Y-15945150D01*
X9703896Y-15945150D02*
X9732468Y-15945150D01*
X9732468Y-15945150D02*
X9751516Y-15954674D01*
X9875325Y-16078484D02*
X9856277Y-16068960D01*
X9856277Y-16068960D02*
X9846754Y-16049912D01*
X9846754Y-16049912D02*
X9846754Y-15878484D01*
X9980087Y-16078484D02*
X9961039Y-16068960D01*
X9961039Y-16068960D02*
X9951516Y-16059436D01*
X9951516Y-16059436D02*
X9941992Y-16040388D01*
X9941992Y-16040388D02*
X9941992Y-15983246D01*
X9941992Y-15983246D02*
X9951516Y-15964198D01*
X9951516Y-15964198D02*
X9961039Y-15954674D01*
X9961039Y-15954674D02*
X9980087Y-15945150D01*
X9980087Y-15945150D02*
X10008658Y-15945150D01*
X10008658Y-15945150D02*
X10027706Y-15954674D01*
X10027706Y-15954674D02*
X10037230Y-15964198D01*
X10037230Y-15964198D02*
X10046754Y-15983246D01*
X10046754Y-15983246D02*
X10046754Y-16040388D01*
X10046754Y-16040388D02*
X10037230Y-16059436D01*
X10037230Y-16059436D02*
X10027706Y-16068960D01*
X10027706Y-16068960D02*
X10008658Y-16078484D01*
X10008658Y-16078484D02*
X9980087Y-16078484D01*
X10103897Y-15945150D02*
X10180087Y-15945150D01*
X10132468Y-15878484D02*
X10132468Y-16049912D01*
X10132468Y-16049912D02*
X10141992Y-16068960D01*
X10141992Y-16068960D02*
X10161039Y-16078484D01*
X10161039Y-16078484D02*
X10180087Y-16078484D01*
X10237230Y-16068960D02*
X10256277Y-16078484D01*
X10256277Y-16078484D02*
X10294373Y-16078484D01*
X10294373Y-16078484D02*
X10313420Y-16068960D01*
X10313420Y-16068960D02*
X10322944Y-16049912D01*
X10322944Y-16049912D02*
X10322944Y-16040388D01*
X10322944Y-16040388D02*
X10313420Y-16021341D01*
X10313420Y-16021341D02*
X10294373Y-16011817D01*
X10294373Y-16011817D02*
X10265801Y-16011817D01*
X10265801Y-16011817D02*
X10246754Y-16002293D01*
X10246754Y-16002293D02*
X10237230Y-15983246D01*
X10237230Y-15983246D02*
X10237230Y-15973722D01*
X10237230Y-15973722D02*
X10246754Y-15954674D01*
X10246754Y-15954674D02*
X10265801Y-15945150D01*
X10265801Y-15945150D02*
X10294373Y-15945150D01*
X10294373Y-15945150D02*
X10313420Y-15954674D01*
X10389611Y-16154674D02*
X10399135Y-16145150D01*
X10399135Y-16145150D02*
X10418182Y-16116579D01*
X10418182Y-16116579D02*
X10427706Y-16097531D01*
X10427706Y-16097531D02*
X10437230Y-16068960D01*
X10437230Y-16068960D02*
X10446754Y-16021341D01*
X10446754Y-16021341D02*
X10446754Y-15983246D01*
X10446754Y-15983246D02*
X10437230Y-15935627D01*
X10437230Y-15935627D02*
X10427706Y-15907055D01*
X10427706Y-15907055D02*
X10418182Y-15888008D01*
X10418182Y-15888008D02*
X10399135Y-15859436D01*
X10399135Y-15859436D02*
X10389611Y-15849912D01*
X3895500Y-16187000D02*
X3895500Y-16387000D01*
X3795500Y-16287000D02*
X3995500Y-16287000D01*
X3995500Y-16287000D02*
G75*
G02*
X3795500Y-16287000I-100000J0D01*
G01*
X3795500Y-16287000D02*
G75*
G02*
X3995500Y-16287000I100000J0D01*
G01*
X4246753Y-16197531D02*
X4256277Y-16188008D01*
X4256277Y-16188008D02*
X4275324Y-16178484D01*
X4275324Y-16178484D02*
X4322944Y-16178484D01*
X4322944Y-16178484D02*
X4341991Y-16188008D01*
X4341991Y-16188008D02*
X4351515Y-16197531D01*
X4351515Y-16197531D02*
X4361039Y-16216579D01*
X4361039Y-16216579D02*
X4361039Y-16235627D01*
X4361039Y-16235627D02*
X4351515Y-16264198D01*
X4351515Y-16264198D02*
X4237229Y-16378484D01*
X4237229Y-16378484D02*
X4361039Y-16378484D01*
X4446753Y-16359436D02*
X4456277Y-16368960D01*
X4456277Y-16368960D02*
X4446753Y-16378484D01*
X4446753Y-16378484D02*
X4437229Y-16368960D01*
X4437229Y-16368960D02*
X4446753Y-16359436D01*
X4446753Y-16359436D02*
X4446753Y-16378484D01*
X4580086Y-16178484D02*
X4599134Y-16178484D01*
X4599134Y-16178484D02*
X4618182Y-16188008D01*
X4618182Y-16188008D02*
X4627705Y-16197531D01*
X4627705Y-16197531D02*
X4637229Y-16216579D01*
X4637229Y-16216579D02*
X4646753Y-16254674D01*
X4646753Y-16254674D02*
X4646753Y-16302293D01*
X4646753Y-16302293D02*
X4637229Y-16340388D01*
X4637229Y-16340388D02*
X4627705Y-16359436D01*
X4627705Y-16359436D02*
X4618182Y-16368960D01*
X4618182Y-16368960D02*
X4599134Y-16378484D01*
X4599134Y-16378484D02*
X4580086Y-16378484D01*
X4580086Y-16378484D02*
X4561039Y-16368960D01*
X4561039Y-16368960D02*
X4551515Y-16359436D01*
X4551515Y-16359436D02*
X4541991Y-16340388D01*
X4541991Y-16340388D02*
X4532467Y-16302293D01*
X4532467Y-16302293D02*
X4532467Y-16254674D01*
X4532467Y-16254674D02*
X4541991Y-16216579D01*
X4541991Y-16216579D02*
X4551515Y-16197531D01*
X4551515Y-16197531D02*
X4561039Y-16188008D01*
X4561039Y-16188008D02*
X4580086Y-16178484D01*
X4770563Y-16178484D02*
X4789610Y-16178484D01*
X4789610Y-16178484D02*
X4808658Y-16188008D01*
X4808658Y-16188008D02*
X4818182Y-16197531D01*
X4818182Y-16197531D02*
X4827705Y-16216579D01*
X4827705Y-16216579D02*
X4837229Y-16254674D01*
X4837229Y-16254674D02*
X4837229Y-16302293D01*
X4837229Y-16302293D02*
X4827705Y-16340388D01*
X4827705Y-16340388D02*
X4818182Y-16359436D01*
X4818182Y-16359436D02*
X4808658Y-16368960D01*
X4808658Y-16368960D02*
X4789610Y-16378484D01*
X4789610Y-16378484D02*
X4770563Y-16378484D01*
X4770563Y-16378484D02*
X4751515Y-16368960D01*
X4751515Y-16368960D02*
X4741991Y-16359436D01*
X4741991Y-16359436D02*
X4732467Y-16340388D01*
X4732467Y-16340388D02*
X4722944Y-16302293D01*
X4722944Y-16302293D02*
X4722944Y-16254674D01*
X4722944Y-16254674D02*
X4732467Y-16216579D01*
X4732467Y-16216579D02*
X4741991Y-16197531D01*
X4741991Y-16197531D02*
X4751515Y-16188008D01*
X4751515Y-16188008D02*
X4770563Y-16178484D01*
X4961039Y-16178484D02*
X4980086Y-16178484D01*
X4980086Y-16178484D02*
X4999134Y-16188008D01*
X4999134Y-16188008D02*
X5008658Y-16197531D01*
X5008658Y-16197531D02*
X5018182Y-16216579D01*
X5018182Y-16216579D02*
X5027705Y-16254674D01*
X5027705Y-16254674D02*
X5027705Y-16302293D01*
X5027705Y-16302293D02*
X5018182Y-16340388D01*
X5018182Y-16340388D02*
X5008658Y-16359436D01*
X5008658Y-16359436D02*
X4999134Y-16368960D01*
X4999134Y-16368960D02*
X4980086Y-16378484D01*
X4980086Y-16378484D02*
X4961039Y-16378484D01*
X4961039Y-16378484D02*
X4941991Y-16368960D01*
X4941991Y-16368960D02*
X4932467Y-16359436D01*
X4932467Y-16359436D02*
X4922944Y-16340388D01*
X4922944Y-16340388D02*
X4913420Y-16302293D01*
X4913420Y-16302293D02*
X4913420Y-16254674D01*
X4913420Y-16254674D02*
X4922944Y-16216579D01*
X4922944Y-16216579D02*
X4932467Y-16197531D01*
X4932467Y-16197531D02*
X4941991Y-16188008D01*
X4941991Y-16188008D02*
X4961039Y-16178484D01*
X5113420Y-16378484D02*
X5113420Y-16245150D01*
X5113420Y-16264198D02*
X5122944Y-16254674D01*
X5122944Y-16254674D02*
X5141991Y-16245150D01*
X5141991Y-16245150D02*
X5170563Y-16245150D01*
X5170563Y-16245150D02*
X5189610Y-16254674D01*
X5189610Y-16254674D02*
X5199134Y-16273722D01*
X5199134Y-16273722D02*
X5199134Y-16378484D01*
X5199134Y-16273722D02*
X5208658Y-16254674D01*
X5208658Y-16254674D02*
X5227705Y-16245150D01*
X5227705Y-16245150D02*
X5256277Y-16245150D01*
X5256277Y-16245150D02*
X5275325Y-16254674D01*
X5275325Y-16254674D02*
X5284848Y-16273722D01*
X5284848Y-16273722D02*
X5284848Y-16378484D01*
X5380086Y-16378484D02*
X5380086Y-16245150D01*
X5380086Y-16264198D02*
X5389610Y-16254674D01*
X5389610Y-16254674D02*
X5408658Y-16245150D01*
X5408658Y-16245150D02*
X5437229Y-16245150D01*
X5437229Y-16245150D02*
X5456277Y-16254674D01*
X5456277Y-16254674D02*
X5465801Y-16273722D01*
X5465801Y-16273722D02*
X5465801Y-16378484D01*
X5465801Y-16273722D02*
X5475325Y-16254674D01*
X5475325Y-16254674D02*
X5494372Y-16245150D01*
X5494372Y-16245150D02*
X5522944Y-16245150D01*
X5522944Y-16245150D02*
X5541991Y-16254674D01*
X5541991Y-16254674D02*
X5551515Y-16273722D01*
X5551515Y-16273722D02*
X5551515Y-16378484D01*
X5941991Y-16168960D02*
X5770563Y-16426103D01*
X6199134Y-16178484D02*
X6218182Y-16178484D01*
X6218182Y-16178484D02*
X6237229Y-16188008D01*
X6237229Y-16188008D02*
X6246753Y-16197531D01*
X6246753Y-16197531D02*
X6256277Y-16216579D01*
X6256277Y-16216579D02*
X6265801Y-16254674D01*
X6265801Y-16254674D02*
X6265801Y-16302293D01*
X6265801Y-16302293D02*
X6256277Y-16340388D01*
X6256277Y-16340388D02*
X6246753Y-16359436D01*
X6246753Y-16359436D02*
X6237229Y-16368960D01*
X6237229Y-16368960D02*
X6218182Y-16378484D01*
X6218182Y-16378484D02*
X6199134Y-16378484D01*
X6199134Y-16378484D02*
X6180086Y-16368960D01*
X6180086Y-16368960D02*
X6170563Y-16359436D01*
X6170563Y-16359436D02*
X6161039Y-16340388D01*
X6161039Y-16340388D02*
X6151515Y-16302293D01*
X6151515Y-16302293D02*
X6151515Y-16254674D01*
X6151515Y-16254674D02*
X6161039Y-16216579D01*
X6161039Y-16216579D02*
X6170563Y-16197531D01*
X6170563Y-16197531D02*
X6180086Y-16188008D01*
X6180086Y-16188008D02*
X6199134Y-16178484D01*
X6351515Y-16359436D02*
X6361039Y-16368960D01*
X6361039Y-16368960D02*
X6351515Y-16378484D01*
X6351515Y-16378484D02*
X6341991Y-16368960D01*
X6341991Y-16368960D02*
X6351515Y-16359436D01*
X6351515Y-16359436D02*
X6351515Y-16378484D01*
X6484848Y-16178484D02*
X6503896Y-16178484D01*
X6503896Y-16178484D02*
X6522944Y-16188008D01*
X6522944Y-16188008D02*
X6532467Y-16197531D01*
X6532467Y-16197531D02*
X6541991Y-16216579D01*
X6541991Y-16216579D02*
X6551515Y-16254674D01*
X6551515Y-16254674D02*
X6551515Y-16302293D01*
X6551515Y-16302293D02*
X6541991Y-16340388D01*
X6541991Y-16340388D02*
X6532467Y-16359436D01*
X6532467Y-16359436D02*
X6522944Y-16368960D01*
X6522944Y-16368960D02*
X6503896Y-16378484D01*
X6503896Y-16378484D02*
X6484848Y-16378484D01*
X6484848Y-16378484D02*
X6465801Y-16368960D01*
X6465801Y-16368960D02*
X6456277Y-16359436D01*
X6456277Y-16359436D02*
X6446753Y-16340388D01*
X6446753Y-16340388D02*
X6437229Y-16302293D01*
X6437229Y-16302293D02*
X6437229Y-16254674D01*
X6437229Y-16254674D02*
X6446753Y-16216579D01*
X6446753Y-16216579D02*
X6456277Y-16197531D01*
X6456277Y-16197531D02*
X6465801Y-16188008D01*
X6465801Y-16188008D02*
X6484848Y-16178484D01*
X6618182Y-16178484D02*
X6751515Y-16178484D01*
X6751515Y-16178484D02*
X6665801Y-16378484D01*
X6856277Y-16264198D02*
X6837229Y-16254674D01*
X6837229Y-16254674D02*
X6827706Y-16245150D01*
X6827706Y-16245150D02*
X6818182Y-16226103D01*
X6818182Y-16226103D02*
X6818182Y-16216579D01*
X6818182Y-16216579D02*
X6827706Y-16197531D01*
X6827706Y-16197531D02*
X6837229Y-16188008D01*
X6837229Y-16188008D02*
X6856277Y-16178484D01*
X6856277Y-16178484D02*
X6894372Y-16178484D01*
X6894372Y-16178484D02*
X6913420Y-16188008D01*
X6913420Y-16188008D02*
X6922944Y-16197531D01*
X6922944Y-16197531D02*
X6932467Y-16216579D01*
X6932467Y-16216579D02*
X6932467Y-16226103D01*
X6932467Y-16226103D02*
X6922944Y-16245150D01*
X6922944Y-16245150D02*
X6913420Y-16254674D01*
X6913420Y-16254674D02*
X6894372Y-16264198D01*
X6894372Y-16264198D02*
X6856277Y-16264198D01*
X6856277Y-16264198D02*
X6837229Y-16273722D01*
X6837229Y-16273722D02*
X6827706Y-16283246D01*
X6827706Y-16283246D02*
X6818182Y-16302293D01*
X6818182Y-16302293D02*
X6818182Y-16340388D01*
X6818182Y-16340388D02*
X6827706Y-16359436D01*
X6827706Y-16359436D02*
X6837229Y-16368960D01*
X6837229Y-16368960D02*
X6856277Y-16378484D01*
X6856277Y-16378484D02*
X6894372Y-16378484D01*
X6894372Y-16378484D02*
X6913420Y-16368960D01*
X6913420Y-16368960D02*
X6922944Y-16359436D01*
X6922944Y-16359436D02*
X6932467Y-16340388D01*
X6932467Y-16340388D02*
X6932467Y-16302293D01*
X6932467Y-16302293D02*
X6922944Y-16283246D01*
X6922944Y-16283246D02*
X6913420Y-16273722D01*
X6913420Y-16273722D02*
X6894372Y-16264198D01*
X6999134Y-16178484D02*
X7132467Y-16178484D01*
X7132467Y-16178484D02*
X7046753Y-16378484D01*
X7199134Y-16178484D02*
X7199134Y-16216579D01*
X7275325Y-16178484D02*
X7275325Y-16216579D01*
X7570563Y-16454674D02*
X7561039Y-16445150D01*
X7561039Y-16445150D02*
X7541991Y-16416579D01*
X7541991Y-16416579D02*
X7532468Y-16397531D01*
X7532468Y-16397531D02*
X7522944Y-16368960D01*
X7522944Y-16368960D02*
X7513420Y-16321341D01*
X7513420Y-16321341D02*
X7513420Y-16283246D01*
X7513420Y-16283246D02*
X7522944Y-16235627D01*
X7522944Y-16235627D02*
X7532468Y-16207055D01*
X7532468Y-16207055D02*
X7541991Y-16188008D01*
X7541991Y-16188008D02*
X7561039Y-16159436D01*
X7561039Y-16159436D02*
X7570563Y-16149912D01*
X7637229Y-16197531D02*
X7646753Y-16188008D01*
X7646753Y-16188008D02*
X7665801Y-16178484D01*
X7665801Y-16178484D02*
X7713420Y-16178484D01*
X7713420Y-16178484D02*
X7732468Y-16188008D01*
X7732468Y-16188008D02*
X7741991Y-16197531D01*
X7741991Y-16197531D02*
X7751515Y-16216579D01*
X7751515Y-16216579D02*
X7751515Y-16235627D01*
X7751515Y-16235627D02*
X7741991Y-16264198D01*
X7741991Y-16264198D02*
X7627706Y-16378484D01*
X7627706Y-16378484D02*
X7751515Y-16378484D01*
X7989610Y-16378484D02*
X7989610Y-16178484D01*
X8075325Y-16378484D02*
X8075325Y-16273722D01*
X8075325Y-16273722D02*
X8065801Y-16254674D01*
X8065801Y-16254674D02*
X8046753Y-16245150D01*
X8046753Y-16245150D02*
X8018182Y-16245150D01*
X8018182Y-16245150D02*
X7999134Y-16254674D01*
X7999134Y-16254674D02*
X7989610Y-16264198D01*
X8199134Y-16378484D02*
X8180087Y-16368960D01*
X8180087Y-16368960D02*
X8170563Y-16359436D01*
X8170563Y-16359436D02*
X8161039Y-16340388D01*
X8161039Y-16340388D02*
X8161039Y-16283246D01*
X8161039Y-16283246D02*
X8170563Y-16264198D01*
X8170563Y-16264198D02*
X8180087Y-16254674D01*
X8180087Y-16254674D02*
X8199134Y-16245150D01*
X8199134Y-16245150D02*
X8227706Y-16245150D01*
X8227706Y-16245150D02*
X8246753Y-16254674D01*
X8246753Y-16254674D02*
X8256277Y-16264198D01*
X8256277Y-16264198D02*
X8265801Y-16283246D01*
X8265801Y-16283246D02*
X8265801Y-16340388D01*
X8265801Y-16340388D02*
X8256277Y-16359436D01*
X8256277Y-16359436D02*
X8246753Y-16368960D01*
X8246753Y-16368960D02*
X8227706Y-16378484D01*
X8227706Y-16378484D02*
X8199134Y-16378484D01*
X8380087Y-16378484D02*
X8361039Y-16368960D01*
X8361039Y-16368960D02*
X8351515Y-16349912D01*
X8351515Y-16349912D02*
X8351515Y-16178484D01*
X8532468Y-16368960D02*
X8513420Y-16378484D01*
X8513420Y-16378484D02*
X8475325Y-16378484D01*
X8475325Y-16378484D02*
X8456277Y-16368960D01*
X8456277Y-16368960D02*
X8446753Y-16349912D01*
X8446753Y-16349912D02*
X8446753Y-16273722D01*
X8446753Y-16273722D02*
X8456277Y-16254674D01*
X8456277Y-16254674D02*
X8475325Y-16245150D01*
X8475325Y-16245150D02*
X8513420Y-16245150D01*
X8513420Y-16245150D02*
X8532468Y-16254674D01*
X8532468Y-16254674D02*
X8541992Y-16273722D01*
X8541992Y-16273722D02*
X8541992Y-16292769D01*
X8541992Y-16292769D02*
X8446753Y-16311817D01*
X8618182Y-16368960D02*
X8637230Y-16378484D01*
X8637230Y-16378484D02*
X8675325Y-16378484D01*
X8675325Y-16378484D02*
X8694373Y-16368960D01*
X8694373Y-16368960D02*
X8703896Y-16349912D01*
X8703896Y-16349912D02*
X8703896Y-16340388D01*
X8703896Y-16340388D02*
X8694373Y-16321341D01*
X8694373Y-16321341D02*
X8675325Y-16311817D01*
X8675325Y-16311817D02*
X8646753Y-16311817D01*
X8646753Y-16311817D02*
X8627706Y-16302293D01*
X8627706Y-16302293D02*
X8618182Y-16283246D01*
X8618182Y-16283246D02*
X8618182Y-16273722D01*
X8618182Y-16273722D02*
X8627706Y-16254674D01*
X8627706Y-16254674D02*
X8646753Y-16245150D01*
X8646753Y-16245150D02*
X8675325Y-16245150D01*
X8675325Y-16245150D02*
X8694373Y-16254674D01*
X8770563Y-16454674D02*
X8780087Y-16445150D01*
X8780087Y-16445150D02*
X8799134Y-16416579D01*
X8799134Y-16416579D02*
X8808658Y-16397531D01*
X8808658Y-16397531D02*
X8818182Y-16368960D01*
X8818182Y-16368960D02*
X8827706Y-16321341D01*
X8827706Y-16321341D02*
X8827706Y-16283246D01*
X8827706Y-16283246D02*
X8818182Y-16235627D01*
X8818182Y-16235627D02*
X8808658Y-16207055D01*
X8808658Y-16207055D02*
X8799134Y-16188008D01*
X8799134Y-16188008D02*
X8780087Y-16159436D01*
X8780087Y-16159436D02*
X8770563Y-16149912D01*
X3966211Y-16677711D02*
X3966211Y-16536289D01*
X3824789Y-16536289D01*
X3824789Y-16677711D01*
X3966211Y-16677711D01*
X3995500Y-16607000D02*
G75*
G02*
X3795500Y-16607000I-100000J0D01*
G01*
X3795500Y-16607000D02*
G75*
G02*
X3995500Y-16607000I100000J0D01*
G01*
X4246753Y-16517531D02*
X4256277Y-16508008D01*
X4256277Y-16508008D02*
X4275324Y-16498484D01*
X4275324Y-16498484D02*
X4322944Y-16498484D01*
X4322944Y-16498484D02*
X4341991Y-16508008D01*
X4341991Y-16508008D02*
X4351515Y-16517531D01*
X4351515Y-16517531D02*
X4361039Y-16536579D01*
X4361039Y-16536579D02*
X4361039Y-16555627D01*
X4361039Y-16555627D02*
X4351515Y-16584198D01*
X4351515Y-16584198D02*
X4237229Y-16698484D01*
X4237229Y-16698484D02*
X4361039Y-16698484D01*
X4446753Y-16679436D02*
X4456277Y-16688960D01*
X4456277Y-16688960D02*
X4446753Y-16698484D01*
X4446753Y-16698484D02*
X4437229Y-16688960D01*
X4437229Y-16688960D02*
X4446753Y-16679436D01*
X4446753Y-16679436D02*
X4446753Y-16698484D01*
X4532467Y-16517531D02*
X4541991Y-16508008D01*
X4541991Y-16508008D02*
X4561039Y-16498484D01*
X4561039Y-16498484D02*
X4608658Y-16498484D01*
X4608658Y-16498484D02*
X4627705Y-16508008D01*
X4627705Y-16508008D02*
X4637229Y-16517531D01*
X4637229Y-16517531D02*
X4646753Y-16536579D01*
X4646753Y-16536579D02*
X4646753Y-16555627D01*
X4646753Y-16555627D02*
X4637229Y-16584198D01*
X4637229Y-16584198D02*
X4522944Y-16698484D01*
X4522944Y-16698484D02*
X4646753Y-16698484D01*
X4770563Y-16498484D02*
X4789610Y-16498484D01*
X4789610Y-16498484D02*
X4808658Y-16508008D01*
X4808658Y-16508008D02*
X4818182Y-16517531D01*
X4818182Y-16517531D02*
X4827705Y-16536579D01*
X4827705Y-16536579D02*
X4837229Y-16574674D01*
X4837229Y-16574674D02*
X4837229Y-16622293D01*
X4837229Y-16622293D02*
X4827705Y-16660388D01*
X4827705Y-16660388D02*
X4818182Y-16679436D01*
X4818182Y-16679436D02*
X4808658Y-16688960D01*
X4808658Y-16688960D02*
X4789610Y-16698484D01*
X4789610Y-16698484D02*
X4770563Y-16698484D01*
X4770563Y-16698484D02*
X4751515Y-16688960D01*
X4751515Y-16688960D02*
X4741991Y-16679436D01*
X4741991Y-16679436D02*
X4732467Y-16660388D01*
X4732467Y-16660388D02*
X4722944Y-16622293D01*
X4722944Y-16622293D02*
X4722944Y-16574674D01*
X4722944Y-16574674D02*
X4732467Y-16536579D01*
X4732467Y-16536579D02*
X4741991Y-16517531D01*
X4741991Y-16517531D02*
X4751515Y-16508008D01*
X4751515Y-16508008D02*
X4770563Y-16498484D01*
X4961039Y-16498484D02*
X4980086Y-16498484D01*
X4980086Y-16498484D02*
X4999134Y-16508008D01*
X4999134Y-16508008D02*
X5008658Y-16517531D01*
X5008658Y-16517531D02*
X5018182Y-16536579D01*
X5018182Y-16536579D02*
X5027705Y-16574674D01*
X5027705Y-16574674D02*
X5027705Y-16622293D01*
X5027705Y-16622293D02*
X5018182Y-16660388D01*
X5018182Y-16660388D02*
X5008658Y-16679436D01*
X5008658Y-16679436D02*
X4999134Y-16688960D01*
X4999134Y-16688960D02*
X4980086Y-16698484D01*
X4980086Y-16698484D02*
X4961039Y-16698484D01*
X4961039Y-16698484D02*
X4941991Y-16688960D01*
X4941991Y-16688960D02*
X4932467Y-16679436D01*
X4932467Y-16679436D02*
X4922944Y-16660388D01*
X4922944Y-16660388D02*
X4913420Y-16622293D01*
X4913420Y-16622293D02*
X4913420Y-16574674D01*
X4913420Y-16574674D02*
X4922944Y-16536579D01*
X4922944Y-16536579D02*
X4932467Y-16517531D01*
X4932467Y-16517531D02*
X4941991Y-16508008D01*
X4941991Y-16508008D02*
X4961039Y-16498484D01*
X5113420Y-16698484D02*
X5113420Y-16565150D01*
X5113420Y-16584198D02*
X5122944Y-16574674D01*
X5122944Y-16574674D02*
X5141991Y-16565150D01*
X5141991Y-16565150D02*
X5170563Y-16565150D01*
X5170563Y-16565150D02*
X5189610Y-16574674D01*
X5189610Y-16574674D02*
X5199134Y-16593722D01*
X5199134Y-16593722D02*
X5199134Y-16698484D01*
X5199134Y-16593722D02*
X5208658Y-16574674D01*
X5208658Y-16574674D02*
X5227705Y-16565150D01*
X5227705Y-16565150D02*
X5256277Y-16565150D01*
X5256277Y-16565150D02*
X5275325Y-16574674D01*
X5275325Y-16574674D02*
X5284848Y-16593722D01*
X5284848Y-16593722D02*
X5284848Y-16698484D01*
X5380086Y-16698484D02*
X5380086Y-16565150D01*
X5380086Y-16584198D02*
X5389610Y-16574674D01*
X5389610Y-16574674D02*
X5408658Y-16565150D01*
X5408658Y-16565150D02*
X5437229Y-16565150D01*
X5437229Y-16565150D02*
X5456277Y-16574674D01*
X5456277Y-16574674D02*
X5465801Y-16593722D01*
X5465801Y-16593722D02*
X5465801Y-16698484D01*
X5465801Y-16593722D02*
X5475325Y-16574674D01*
X5475325Y-16574674D02*
X5494372Y-16565150D01*
X5494372Y-16565150D02*
X5522944Y-16565150D01*
X5522944Y-16565150D02*
X5541991Y-16574674D01*
X5541991Y-16574674D02*
X5551515Y-16593722D01*
X5551515Y-16593722D02*
X5551515Y-16698484D01*
X5941991Y-16488960D02*
X5770563Y-16746103D01*
X6199134Y-16498484D02*
X6218182Y-16498484D01*
X6218182Y-16498484D02*
X6237229Y-16508008D01*
X6237229Y-16508008D02*
X6246753Y-16517531D01*
X6246753Y-16517531D02*
X6256277Y-16536579D01*
X6256277Y-16536579D02*
X6265801Y-16574674D01*
X6265801Y-16574674D02*
X6265801Y-16622293D01*
X6265801Y-16622293D02*
X6256277Y-16660388D01*
X6256277Y-16660388D02*
X6246753Y-16679436D01*
X6246753Y-16679436D02*
X6237229Y-16688960D01*
X6237229Y-16688960D02*
X6218182Y-16698484D01*
X6218182Y-16698484D02*
X6199134Y-16698484D01*
X6199134Y-16698484D02*
X6180086Y-16688960D01*
X6180086Y-16688960D02*
X6170563Y-16679436D01*
X6170563Y-16679436D02*
X6161039Y-16660388D01*
X6161039Y-16660388D02*
X6151515Y-16622293D01*
X6151515Y-16622293D02*
X6151515Y-16574674D01*
X6151515Y-16574674D02*
X6161039Y-16536579D01*
X6161039Y-16536579D02*
X6170563Y-16517531D01*
X6170563Y-16517531D02*
X6180086Y-16508008D01*
X6180086Y-16508008D02*
X6199134Y-16498484D01*
X6351515Y-16679436D02*
X6361039Y-16688960D01*
X6361039Y-16688960D02*
X6351515Y-16698484D01*
X6351515Y-16698484D02*
X6341991Y-16688960D01*
X6341991Y-16688960D02*
X6351515Y-16679436D01*
X6351515Y-16679436D02*
X6351515Y-16698484D01*
X6484848Y-16498484D02*
X6503896Y-16498484D01*
X6503896Y-16498484D02*
X6522944Y-16508008D01*
X6522944Y-16508008D02*
X6532467Y-16517531D01*
X6532467Y-16517531D02*
X6541991Y-16536579D01*
X6541991Y-16536579D02*
X6551515Y-16574674D01*
X6551515Y-16574674D02*
X6551515Y-16622293D01*
X6551515Y-16622293D02*
X6541991Y-16660388D01*
X6541991Y-16660388D02*
X6532467Y-16679436D01*
X6532467Y-16679436D02*
X6522944Y-16688960D01*
X6522944Y-16688960D02*
X6503896Y-16698484D01*
X6503896Y-16698484D02*
X6484848Y-16698484D01*
X6484848Y-16698484D02*
X6465801Y-16688960D01*
X6465801Y-16688960D02*
X6456277Y-16679436D01*
X6456277Y-16679436D02*
X6446753Y-16660388D01*
X6446753Y-16660388D02*
X6437229Y-16622293D01*
X6437229Y-16622293D02*
X6437229Y-16574674D01*
X6437229Y-16574674D02*
X6446753Y-16536579D01*
X6446753Y-16536579D02*
X6456277Y-16517531D01*
X6456277Y-16517531D02*
X6465801Y-16508008D01*
X6465801Y-16508008D02*
X6484848Y-16498484D01*
X6665801Y-16584198D02*
X6646753Y-16574674D01*
X6646753Y-16574674D02*
X6637229Y-16565150D01*
X6637229Y-16565150D02*
X6627706Y-16546103D01*
X6627706Y-16546103D02*
X6627706Y-16536579D01*
X6627706Y-16536579D02*
X6637229Y-16517531D01*
X6637229Y-16517531D02*
X6646753Y-16508008D01*
X6646753Y-16508008D02*
X6665801Y-16498484D01*
X6665801Y-16498484D02*
X6703896Y-16498484D01*
X6703896Y-16498484D02*
X6722944Y-16508008D01*
X6722944Y-16508008D02*
X6732467Y-16517531D01*
X6732467Y-16517531D02*
X6741991Y-16536579D01*
X6741991Y-16536579D02*
X6741991Y-16546103D01*
X6741991Y-16546103D02*
X6732467Y-16565150D01*
X6732467Y-16565150D02*
X6722944Y-16574674D01*
X6722944Y-16574674D02*
X6703896Y-16584198D01*
X6703896Y-16584198D02*
X6665801Y-16584198D01*
X6665801Y-16584198D02*
X6646753Y-16593722D01*
X6646753Y-16593722D02*
X6637229Y-16603246D01*
X6637229Y-16603246D02*
X6627706Y-16622293D01*
X6627706Y-16622293D02*
X6627706Y-16660388D01*
X6627706Y-16660388D02*
X6637229Y-16679436D01*
X6637229Y-16679436D02*
X6646753Y-16688960D01*
X6646753Y-16688960D02*
X6665801Y-16698484D01*
X6665801Y-16698484D02*
X6703896Y-16698484D01*
X6703896Y-16698484D02*
X6722944Y-16688960D01*
X6722944Y-16688960D02*
X6732467Y-16679436D01*
X6732467Y-16679436D02*
X6741991Y-16660388D01*
X6741991Y-16660388D02*
X6741991Y-16622293D01*
X6741991Y-16622293D02*
X6732467Y-16603246D01*
X6732467Y-16603246D02*
X6722944Y-16593722D01*
X6722944Y-16593722D02*
X6703896Y-16584198D01*
X6913420Y-16498484D02*
X6875325Y-16498484D01*
X6875325Y-16498484D02*
X6856277Y-16508008D01*
X6856277Y-16508008D02*
X6846753Y-16517531D01*
X6846753Y-16517531D02*
X6827706Y-16546103D01*
X6827706Y-16546103D02*
X6818182Y-16584198D01*
X6818182Y-16584198D02*
X6818182Y-16660388D01*
X6818182Y-16660388D02*
X6827706Y-16679436D01*
X6827706Y-16679436D02*
X6837229Y-16688960D01*
X6837229Y-16688960D02*
X6856277Y-16698484D01*
X6856277Y-16698484D02*
X6894372Y-16698484D01*
X6894372Y-16698484D02*
X6913420Y-16688960D01*
X6913420Y-16688960D02*
X6922944Y-16679436D01*
X6922944Y-16679436D02*
X6932467Y-16660388D01*
X6932467Y-16660388D02*
X6932467Y-16612769D01*
X6932467Y-16612769D02*
X6922944Y-16593722D01*
X6922944Y-16593722D02*
X6913420Y-16584198D01*
X6913420Y-16584198D02*
X6894372Y-16574674D01*
X6894372Y-16574674D02*
X6856277Y-16574674D01*
X6856277Y-16574674D02*
X6837229Y-16584198D01*
X6837229Y-16584198D02*
X6827706Y-16593722D01*
X6827706Y-16593722D02*
X6818182Y-16612769D01*
X7103896Y-16498484D02*
X7065801Y-16498484D01*
X7065801Y-16498484D02*
X7046753Y-16508008D01*
X7046753Y-16508008D02*
X7037229Y-16517531D01*
X7037229Y-16517531D02*
X7018182Y-16546103D01*
X7018182Y-16546103D02*
X7008658Y-16584198D01*
X7008658Y-16584198D02*
X7008658Y-16660388D01*
X7008658Y-16660388D02*
X7018182Y-16679436D01*
X7018182Y-16679436D02*
X7027706Y-16688960D01*
X7027706Y-16688960D02*
X7046753Y-16698484D01*
X7046753Y-16698484D02*
X7084848Y-16698484D01*
X7084848Y-16698484D02*
X7103896Y-16688960D01*
X7103896Y-16688960D02*
X7113420Y-16679436D01*
X7113420Y-16679436D02*
X7122944Y-16660388D01*
X7122944Y-16660388D02*
X7122944Y-16612769D01*
X7122944Y-16612769D02*
X7113420Y-16593722D01*
X7113420Y-16593722D02*
X7103896Y-16584198D01*
X7103896Y-16584198D02*
X7084848Y-16574674D01*
X7084848Y-16574674D02*
X7046753Y-16574674D01*
X7046753Y-16574674D02*
X7027706Y-16584198D01*
X7027706Y-16584198D02*
X7018182Y-16593722D01*
X7018182Y-16593722D02*
X7008658Y-16612769D01*
X7199134Y-16498484D02*
X7199134Y-16536579D01*
X7275325Y-16498484D02*
X7275325Y-16536579D01*
X7570563Y-16774674D02*
X7561039Y-16765150D01*
X7561039Y-16765150D02*
X7541991Y-16736579D01*
X7541991Y-16736579D02*
X7532468Y-16717531D01*
X7532468Y-16717531D02*
X7522944Y-16688960D01*
X7522944Y-16688960D02*
X7513420Y-16641341D01*
X7513420Y-16641341D02*
X7513420Y-16603246D01*
X7513420Y-16603246D02*
X7522944Y-16555627D01*
X7522944Y-16555627D02*
X7532468Y-16527055D01*
X7532468Y-16527055D02*
X7541991Y-16508008D01*
X7541991Y-16508008D02*
X7561039Y-16479436D01*
X7561039Y-16479436D02*
X7570563Y-16469912D01*
X7732468Y-16565150D02*
X7732468Y-16698484D01*
X7684848Y-16488960D02*
X7637229Y-16631817D01*
X7637229Y-16631817D02*
X7761039Y-16631817D01*
X7989610Y-16698484D02*
X7989610Y-16498484D01*
X8075325Y-16698484D02*
X8075325Y-16593722D01*
X8075325Y-16593722D02*
X8065801Y-16574674D01*
X8065801Y-16574674D02*
X8046753Y-16565150D01*
X8046753Y-16565150D02*
X8018182Y-16565150D01*
X8018182Y-16565150D02*
X7999134Y-16574674D01*
X7999134Y-16574674D02*
X7989610Y-16584198D01*
X8199134Y-16698484D02*
X8180087Y-16688960D01*
X8180087Y-16688960D02*
X8170563Y-16679436D01*
X8170563Y-16679436D02*
X8161039Y-16660388D01*
X8161039Y-16660388D02*
X8161039Y-16603246D01*
X8161039Y-16603246D02*
X8170563Y-16584198D01*
X8170563Y-16584198D02*
X8180087Y-16574674D01*
X8180087Y-16574674D02*
X8199134Y-16565150D01*
X8199134Y-16565150D02*
X8227706Y-16565150D01*
X8227706Y-16565150D02*
X8246753Y-16574674D01*
X8246753Y-16574674D02*
X8256277Y-16584198D01*
X8256277Y-16584198D02*
X8265801Y-16603246D01*
X8265801Y-16603246D02*
X8265801Y-16660388D01*
X8265801Y-16660388D02*
X8256277Y-16679436D01*
X8256277Y-16679436D02*
X8246753Y-16688960D01*
X8246753Y-16688960D02*
X8227706Y-16698484D01*
X8227706Y-16698484D02*
X8199134Y-16698484D01*
X8380087Y-16698484D02*
X8361039Y-16688960D01*
X8361039Y-16688960D02*
X8351515Y-16669912D01*
X8351515Y-16669912D02*
X8351515Y-16498484D01*
X8532468Y-16688960D02*
X8513420Y-16698484D01*
X8513420Y-16698484D02*
X8475325Y-16698484D01*
X8475325Y-16698484D02*
X8456277Y-16688960D01*
X8456277Y-16688960D02*
X8446753Y-16669912D01*
X8446753Y-16669912D02*
X8446753Y-16593722D01*
X8446753Y-16593722D02*
X8456277Y-16574674D01*
X8456277Y-16574674D02*
X8475325Y-16565150D01*
X8475325Y-16565150D02*
X8513420Y-16565150D01*
X8513420Y-16565150D02*
X8532468Y-16574674D01*
X8532468Y-16574674D02*
X8541992Y-16593722D01*
X8541992Y-16593722D02*
X8541992Y-16612769D01*
X8541992Y-16612769D02*
X8446753Y-16631817D01*
X8618182Y-16688960D02*
X8637230Y-16698484D01*
X8637230Y-16698484D02*
X8675325Y-16698484D01*
X8675325Y-16698484D02*
X8694373Y-16688960D01*
X8694373Y-16688960D02*
X8703896Y-16669912D01*
X8703896Y-16669912D02*
X8703896Y-16660388D01*
X8703896Y-16660388D02*
X8694373Y-16641341D01*
X8694373Y-16641341D02*
X8675325Y-16631817D01*
X8675325Y-16631817D02*
X8646753Y-16631817D01*
X8646753Y-16631817D02*
X8627706Y-16622293D01*
X8627706Y-16622293D02*
X8618182Y-16603246D01*
X8618182Y-16603246D02*
X8618182Y-16593722D01*
X8618182Y-16593722D02*
X8627706Y-16574674D01*
X8627706Y-16574674D02*
X8646753Y-16565150D01*
X8646753Y-16565150D02*
X8675325Y-16565150D01*
X8675325Y-16565150D02*
X8694373Y-16574674D01*
X8770563Y-16774674D02*
X8780087Y-16765150D01*
X8780087Y-16765150D02*
X8799134Y-16736579D01*
X8799134Y-16736579D02*
X8808658Y-16717531D01*
X8808658Y-16717531D02*
X8818182Y-16688960D01*
X8818182Y-16688960D02*
X8827706Y-16641341D01*
X8827706Y-16641341D02*
X8827706Y-16603246D01*
X8827706Y-16603246D02*
X8818182Y-16555627D01*
X8818182Y-16555627D02*
X8808658Y-16527055D01*
X8808658Y-16527055D02*
X8799134Y-16508008D01*
X8799134Y-16508008D02*
X8780087Y-16479436D01*
X8780087Y-16479436D02*
X8770563Y-16469912D01*
X3895500Y-17027000D02*
X3995500Y-16927000D01*
X3895500Y-16827000D01*
X3795500Y-16927000D01*
X3895500Y-17027000D01*
X3995500Y-16927000D02*
G75*
G02*
X3795500Y-16927000I-100000J0D01*
G01*
X3795500Y-16927000D02*
G75*
G02*
X3995500Y-16927000I100000J0D01*
G01*
X4237229Y-16818484D02*
X4361039Y-16818484D01*
X4361039Y-16818484D02*
X4294372Y-16894674D01*
X4294372Y-16894674D02*
X4322944Y-16894674D01*
X4322944Y-16894674D02*
X4341991Y-16904198D01*
X4341991Y-16904198D02*
X4351515Y-16913722D01*
X4351515Y-16913722D02*
X4361039Y-16932770D01*
X4361039Y-16932770D02*
X4361039Y-16980389D01*
X4361039Y-16980389D02*
X4351515Y-16999436D01*
X4351515Y-16999436D02*
X4341991Y-17008960D01*
X4341991Y-17008960D02*
X4322944Y-17018484D01*
X4322944Y-17018484D02*
X4265801Y-17018484D01*
X4265801Y-17018484D02*
X4246753Y-17008960D01*
X4246753Y-17008960D02*
X4237229Y-16999436D01*
X4446753Y-16999436D02*
X4456277Y-17008960D01*
X4456277Y-17008960D02*
X4446753Y-17018484D01*
X4446753Y-17018484D02*
X4437229Y-17008960D01*
X4437229Y-17008960D02*
X4446753Y-16999436D01*
X4446753Y-16999436D02*
X4446753Y-17018484D01*
X4532467Y-16837531D02*
X4541991Y-16828008D01*
X4541991Y-16828008D02*
X4561039Y-16818484D01*
X4561039Y-16818484D02*
X4608658Y-16818484D01*
X4608658Y-16818484D02*
X4627705Y-16828008D01*
X4627705Y-16828008D02*
X4637229Y-16837531D01*
X4637229Y-16837531D02*
X4646753Y-16856579D01*
X4646753Y-16856579D02*
X4646753Y-16875627D01*
X4646753Y-16875627D02*
X4637229Y-16904198D01*
X4637229Y-16904198D02*
X4522944Y-17018484D01*
X4522944Y-17018484D02*
X4646753Y-17018484D01*
X4770563Y-16818484D02*
X4789610Y-16818484D01*
X4789610Y-16818484D02*
X4808658Y-16828008D01*
X4808658Y-16828008D02*
X4818182Y-16837531D01*
X4818182Y-16837531D02*
X4827705Y-16856579D01*
X4827705Y-16856579D02*
X4837229Y-16894674D01*
X4837229Y-16894674D02*
X4837229Y-16942293D01*
X4837229Y-16942293D02*
X4827705Y-16980389D01*
X4827705Y-16980389D02*
X4818182Y-16999436D01*
X4818182Y-16999436D02*
X4808658Y-17008960D01*
X4808658Y-17008960D02*
X4789610Y-17018484D01*
X4789610Y-17018484D02*
X4770563Y-17018484D01*
X4770563Y-17018484D02*
X4751515Y-17008960D01*
X4751515Y-17008960D02*
X4741991Y-16999436D01*
X4741991Y-16999436D02*
X4732467Y-16980389D01*
X4732467Y-16980389D02*
X4722944Y-16942293D01*
X4722944Y-16942293D02*
X4722944Y-16894674D01*
X4722944Y-16894674D02*
X4732467Y-16856579D01*
X4732467Y-16856579D02*
X4741991Y-16837531D01*
X4741991Y-16837531D02*
X4751515Y-16828008D01*
X4751515Y-16828008D02*
X4770563Y-16818484D01*
X4961039Y-16818484D02*
X4980086Y-16818484D01*
X4980086Y-16818484D02*
X4999134Y-16828008D01*
X4999134Y-16828008D02*
X5008658Y-16837531D01*
X5008658Y-16837531D02*
X5018182Y-16856579D01*
X5018182Y-16856579D02*
X5027705Y-16894674D01*
X5027705Y-16894674D02*
X5027705Y-16942293D01*
X5027705Y-16942293D02*
X5018182Y-16980389D01*
X5018182Y-16980389D02*
X5008658Y-16999436D01*
X5008658Y-16999436D02*
X4999134Y-17008960D01*
X4999134Y-17008960D02*
X4980086Y-17018484D01*
X4980086Y-17018484D02*
X4961039Y-17018484D01*
X4961039Y-17018484D02*
X4941991Y-17008960D01*
X4941991Y-17008960D02*
X4932467Y-16999436D01*
X4932467Y-16999436D02*
X4922944Y-16980389D01*
X4922944Y-16980389D02*
X4913420Y-16942293D01*
X4913420Y-16942293D02*
X4913420Y-16894674D01*
X4913420Y-16894674D02*
X4922944Y-16856579D01*
X4922944Y-16856579D02*
X4932467Y-16837531D01*
X4932467Y-16837531D02*
X4941991Y-16828008D01*
X4941991Y-16828008D02*
X4961039Y-16818484D01*
X5113420Y-17018484D02*
X5113420Y-16885150D01*
X5113420Y-16904198D02*
X5122944Y-16894674D01*
X5122944Y-16894674D02*
X5141991Y-16885150D01*
X5141991Y-16885150D02*
X5170563Y-16885150D01*
X5170563Y-16885150D02*
X5189610Y-16894674D01*
X5189610Y-16894674D02*
X5199134Y-16913722D01*
X5199134Y-16913722D02*
X5199134Y-17018484D01*
X5199134Y-16913722D02*
X5208658Y-16894674D01*
X5208658Y-16894674D02*
X5227705Y-16885150D01*
X5227705Y-16885150D02*
X5256277Y-16885150D01*
X5256277Y-16885150D02*
X5275325Y-16894674D01*
X5275325Y-16894674D02*
X5284848Y-16913722D01*
X5284848Y-16913722D02*
X5284848Y-17018484D01*
X5380086Y-17018484D02*
X5380086Y-16885150D01*
X5380086Y-16904198D02*
X5389610Y-16894674D01*
X5389610Y-16894674D02*
X5408658Y-16885150D01*
X5408658Y-16885150D02*
X5437229Y-16885150D01*
X5437229Y-16885150D02*
X5456277Y-16894674D01*
X5456277Y-16894674D02*
X5465801Y-16913722D01*
X5465801Y-16913722D02*
X5465801Y-17018484D01*
X5465801Y-16913722D02*
X5475325Y-16894674D01*
X5475325Y-16894674D02*
X5494372Y-16885150D01*
X5494372Y-16885150D02*
X5522944Y-16885150D01*
X5522944Y-16885150D02*
X5541991Y-16894674D01*
X5541991Y-16894674D02*
X5551515Y-16913722D01*
X5551515Y-16913722D02*
X5551515Y-17018484D01*
X5941991Y-16808960D02*
X5770563Y-17066103D01*
X6199134Y-16818484D02*
X6218182Y-16818484D01*
X6218182Y-16818484D02*
X6237229Y-16828008D01*
X6237229Y-16828008D02*
X6246753Y-16837531D01*
X6246753Y-16837531D02*
X6256277Y-16856579D01*
X6256277Y-16856579D02*
X6265801Y-16894674D01*
X6265801Y-16894674D02*
X6265801Y-16942293D01*
X6265801Y-16942293D02*
X6256277Y-16980389D01*
X6256277Y-16980389D02*
X6246753Y-16999436D01*
X6246753Y-16999436D02*
X6237229Y-17008960D01*
X6237229Y-17008960D02*
X6218182Y-17018484D01*
X6218182Y-17018484D02*
X6199134Y-17018484D01*
X6199134Y-17018484D02*
X6180086Y-17008960D01*
X6180086Y-17008960D02*
X6170563Y-16999436D01*
X6170563Y-16999436D02*
X6161039Y-16980389D01*
X6161039Y-16980389D02*
X6151515Y-16942293D01*
X6151515Y-16942293D02*
X6151515Y-16894674D01*
X6151515Y-16894674D02*
X6161039Y-16856579D01*
X6161039Y-16856579D02*
X6170563Y-16837531D01*
X6170563Y-16837531D02*
X6180086Y-16828008D01*
X6180086Y-16828008D02*
X6199134Y-16818484D01*
X6351515Y-16999436D02*
X6361039Y-17008960D01*
X6361039Y-17008960D02*
X6351515Y-17018484D01*
X6351515Y-17018484D02*
X6341991Y-17008960D01*
X6341991Y-17008960D02*
X6351515Y-16999436D01*
X6351515Y-16999436D02*
X6351515Y-17018484D01*
X6551515Y-17018484D02*
X6437229Y-17018484D01*
X6494372Y-17018484D02*
X6494372Y-16818484D01*
X6494372Y-16818484D02*
X6475325Y-16847055D01*
X6475325Y-16847055D02*
X6456277Y-16866103D01*
X6456277Y-16866103D02*
X6437229Y-16875627D01*
X6627706Y-16837531D02*
X6637229Y-16828008D01*
X6637229Y-16828008D02*
X6656277Y-16818484D01*
X6656277Y-16818484D02*
X6703896Y-16818484D01*
X6703896Y-16818484D02*
X6722944Y-16828008D01*
X6722944Y-16828008D02*
X6732467Y-16837531D01*
X6732467Y-16837531D02*
X6741991Y-16856579D01*
X6741991Y-16856579D02*
X6741991Y-16875627D01*
X6741991Y-16875627D02*
X6732467Y-16904198D01*
X6732467Y-16904198D02*
X6618182Y-17018484D01*
X6618182Y-17018484D02*
X6741991Y-17018484D01*
X6913420Y-16818484D02*
X6875325Y-16818484D01*
X6875325Y-16818484D02*
X6856277Y-16828008D01*
X6856277Y-16828008D02*
X6846753Y-16837531D01*
X6846753Y-16837531D02*
X6827706Y-16866103D01*
X6827706Y-16866103D02*
X6818182Y-16904198D01*
X6818182Y-16904198D02*
X6818182Y-16980389D01*
X6818182Y-16980389D02*
X6827706Y-16999436D01*
X6827706Y-16999436D02*
X6837229Y-17008960D01*
X6837229Y-17008960D02*
X6856277Y-17018484D01*
X6856277Y-17018484D02*
X6894372Y-17018484D01*
X6894372Y-17018484D02*
X6913420Y-17008960D01*
X6913420Y-17008960D02*
X6922944Y-16999436D01*
X6922944Y-16999436D02*
X6932467Y-16980389D01*
X6932467Y-16980389D02*
X6932467Y-16932770D01*
X6932467Y-16932770D02*
X6922944Y-16913722D01*
X6922944Y-16913722D02*
X6913420Y-16904198D01*
X6913420Y-16904198D02*
X6894372Y-16894674D01*
X6894372Y-16894674D02*
X6856277Y-16894674D01*
X6856277Y-16894674D02*
X6837229Y-16904198D01*
X6837229Y-16904198D02*
X6827706Y-16913722D01*
X6827706Y-16913722D02*
X6818182Y-16932770D01*
X7056277Y-16818484D02*
X7075325Y-16818484D01*
X7075325Y-16818484D02*
X7094372Y-16828008D01*
X7094372Y-16828008D02*
X7103896Y-16837531D01*
X7103896Y-16837531D02*
X7113420Y-16856579D01*
X7113420Y-16856579D02*
X7122944Y-16894674D01*
X7122944Y-16894674D02*
X7122944Y-16942293D01*
X7122944Y-16942293D02*
X7113420Y-16980389D01*
X7113420Y-16980389D02*
X7103896Y-16999436D01*
X7103896Y-16999436D02*
X7094372Y-17008960D01*
X7094372Y-17008960D02*
X7075325Y-17018484D01*
X7075325Y-17018484D02*
X7056277Y-17018484D01*
X7056277Y-17018484D02*
X7037229Y-17008960D01*
X7037229Y-17008960D02*
X7027706Y-16999436D01*
X7027706Y-16999436D02*
X7018182Y-16980389D01*
X7018182Y-16980389D02*
X7008658Y-16942293D01*
X7008658Y-16942293D02*
X7008658Y-16894674D01*
X7008658Y-16894674D02*
X7018182Y-16856579D01*
X7018182Y-16856579D02*
X7027706Y-16837531D01*
X7027706Y-16837531D02*
X7037229Y-16828008D01*
X7037229Y-16828008D02*
X7056277Y-16818484D01*
X7199134Y-16818484D02*
X7199134Y-16856579D01*
X7275325Y-16818484D02*
X7275325Y-16856579D01*
X7570563Y-17094674D02*
X7561039Y-17085150D01*
X7561039Y-17085150D02*
X7541991Y-17056579D01*
X7541991Y-17056579D02*
X7532468Y-17037531D01*
X7532468Y-17037531D02*
X7522944Y-17008960D01*
X7522944Y-17008960D02*
X7513420Y-16961341D01*
X7513420Y-16961341D02*
X7513420Y-16923246D01*
X7513420Y-16923246D02*
X7522944Y-16875627D01*
X7522944Y-16875627D02*
X7532468Y-16847055D01*
X7532468Y-16847055D02*
X7541991Y-16828008D01*
X7541991Y-16828008D02*
X7561039Y-16799436D01*
X7561039Y-16799436D02*
X7570563Y-16789912D01*
X7732468Y-16885150D02*
X7732468Y-17018484D01*
X7684848Y-16808960D02*
X7637229Y-16951817D01*
X7637229Y-16951817D02*
X7761039Y-16951817D01*
X7989610Y-17018484D02*
X7989610Y-16818484D01*
X8075325Y-17018484D02*
X8075325Y-16913722D01*
X8075325Y-16913722D02*
X8065801Y-16894674D01*
X8065801Y-16894674D02*
X8046753Y-16885150D01*
X8046753Y-16885150D02*
X8018182Y-16885150D01*
X8018182Y-16885150D02*
X7999134Y-16894674D01*
X7999134Y-16894674D02*
X7989610Y-16904198D01*
X8199134Y-17018484D02*
X8180087Y-17008960D01*
X8180087Y-17008960D02*
X8170563Y-16999436D01*
X8170563Y-16999436D02*
X8161039Y-16980389D01*
X8161039Y-16980389D02*
X8161039Y-16923246D01*
X8161039Y-16923246D02*
X8170563Y-16904198D01*
X8170563Y-16904198D02*
X8180087Y-16894674D01*
X8180087Y-16894674D02*
X8199134Y-16885150D01*
X8199134Y-16885150D02*
X8227706Y-16885150D01*
X8227706Y-16885150D02*
X8246753Y-16894674D01*
X8246753Y-16894674D02*
X8256277Y-16904198D01*
X8256277Y-16904198D02*
X8265801Y-16923246D01*
X8265801Y-16923246D02*
X8265801Y-16980389D01*
X8265801Y-16980389D02*
X8256277Y-16999436D01*
X8256277Y-16999436D02*
X8246753Y-17008960D01*
X8246753Y-17008960D02*
X8227706Y-17018484D01*
X8227706Y-17018484D02*
X8199134Y-17018484D01*
X8380087Y-17018484D02*
X8361039Y-17008960D01*
X8361039Y-17008960D02*
X8351515Y-16989912D01*
X8351515Y-16989912D02*
X8351515Y-16818484D01*
X8532468Y-17008960D02*
X8513420Y-17018484D01*
X8513420Y-17018484D02*
X8475325Y-17018484D01*
X8475325Y-17018484D02*
X8456277Y-17008960D01*
X8456277Y-17008960D02*
X8446753Y-16989912D01*
X8446753Y-16989912D02*
X8446753Y-16913722D01*
X8446753Y-16913722D02*
X8456277Y-16894674D01*
X8456277Y-16894674D02*
X8475325Y-16885150D01*
X8475325Y-16885150D02*
X8513420Y-16885150D01*
X8513420Y-16885150D02*
X8532468Y-16894674D01*
X8532468Y-16894674D02*
X8541992Y-16913722D01*
X8541992Y-16913722D02*
X8541992Y-16932770D01*
X8541992Y-16932770D02*
X8446753Y-16951817D01*
X8618182Y-17008960D02*
X8637230Y-17018484D01*
X8637230Y-17018484D02*
X8675325Y-17018484D01*
X8675325Y-17018484D02*
X8694373Y-17008960D01*
X8694373Y-17008960D02*
X8703896Y-16989912D01*
X8703896Y-16989912D02*
X8703896Y-16980389D01*
X8703896Y-16980389D02*
X8694373Y-16961341D01*
X8694373Y-16961341D02*
X8675325Y-16951817D01*
X8675325Y-16951817D02*
X8646753Y-16951817D01*
X8646753Y-16951817D02*
X8627706Y-16942293D01*
X8627706Y-16942293D02*
X8618182Y-16923246D01*
X8618182Y-16923246D02*
X8618182Y-16913722D01*
X8618182Y-16913722D02*
X8627706Y-16894674D01*
X8627706Y-16894674D02*
X8646753Y-16885150D01*
X8646753Y-16885150D02*
X8675325Y-16885150D01*
X8675325Y-16885150D02*
X8694373Y-16894674D01*
X8770563Y-17094674D02*
X8780087Y-17085150D01*
X8780087Y-17085150D02*
X8799134Y-17056579D01*
X8799134Y-17056579D02*
X8808658Y-17037531D01*
X8808658Y-17037531D02*
X8818182Y-17008960D01*
X8818182Y-17008960D02*
X8827706Y-16961341D01*
X8827706Y-16961341D02*
X8827706Y-16923246D01*
X8827706Y-16923246D02*
X8818182Y-16875627D01*
X8818182Y-16875627D02*
X8808658Y-16847055D01*
X8808658Y-16847055D02*
X8799134Y-16828008D01*
X8799134Y-16828008D02*
X8780087Y-16799436D01*
X8780087Y-16799436D02*
X8770563Y-16789912D01*
M02*
