%TF.GenerationSoftware,KiCad,Pcbnew,8.0.6*%
%TF.CreationDate,2024-11-27T17:32:39+01:00*%
%TF.ProjectId,fm-tx-LCD,666d2d74-782d-44c4-9344-2e6b69636164,rev?*%
%TF.SameCoordinates,Original*%
%TF.FileFunction,Drillmap*%
%TF.FilePolarity,Positive*%
%FSLAX45Y45*%
G04 Gerber Fmt 4.5, Leading zero omitted, Abs format (unit mm)*
G04 Created by KiCad (PCBNEW 8.0.6) date 2024-11-27 17:32:39*
%MOMM*%
%LPD*%
G01*
G04 APERTURE LIST*
%ADD10C,0.100000*%
%ADD11C,0.200000*%
G04 APERTURE END LIST*
D10*
X4000500Y-2413000D02*
X16065500Y-2413000D01*
X16065500Y-13208000D01*
X4000500Y-13208000D01*
X4000500Y-2413000D01*
D11*
X4256277Y-13524484D02*
X4256277Y-13324484D01*
X4256277Y-13324484D02*
X4303896Y-13324484D01*
X4303896Y-13324484D02*
X4332467Y-13334008D01*
X4332467Y-13334008D02*
X4351515Y-13353055D01*
X4351515Y-13353055D02*
X4361039Y-13372103D01*
X4361039Y-13372103D02*
X4370563Y-13410198D01*
X4370563Y-13410198D02*
X4370563Y-13438769D01*
X4370563Y-13438769D02*
X4361039Y-13476865D01*
X4361039Y-13476865D02*
X4351515Y-13495912D01*
X4351515Y-13495912D02*
X4332467Y-13514960D01*
X4332467Y-13514960D02*
X4303896Y-13524484D01*
X4303896Y-13524484D02*
X4256277Y-13524484D01*
X4456277Y-13524484D02*
X4456277Y-13391150D01*
X4456277Y-13429246D02*
X4465801Y-13410198D01*
X4465801Y-13410198D02*
X4475324Y-13400674D01*
X4475324Y-13400674D02*
X4494372Y-13391150D01*
X4494372Y-13391150D02*
X4513420Y-13391150D01*
X4580086Y-13524484D02*
X4580086Y-13391150D01*
X4580086Y-13324484D02*
X4570563Y-13334008D01*
X4570563Y-13334008D02*
X4580086Y-13343531D01*
X4580086Y-13343531D02*
X4589610Y-13334008D01*
X4589610Y-13334008D02*
X4580086Y-13324484D01*
X4580086Y-13324484D02*
X4580086Y-13343531D01*
X4703896Y-13524484D02*
X4684848Y-13514960D01*
X4684848Y-13514960D02*
X4675324Y-13495912D01*
X4675324Y-13495912D02*
X4675324Y-13324484D01*
X4808658Y-13524484D02*
X4789610Y-13514960D01*
X4789610Y-13514960D02*
X4780086Y-13495912D01*
X4780086Y-13495912D02*
X4780086Y-13324484D01*
X5037229Y-13524484D02*
X5037229Y-13324484D01*
X5037229Y-13324484D02*
X5103896Y-13467341D01*
X5103896Y-13467341D02*
X5170563Y-13324484D01*
X5170563Y-13324484D02*
X5170563Y-13524484D01*
X5351515Y-13524484D02*
X5351515Y-13419722D01*
X5351515Y-13419722D02*
X5341991Y-13400674D01*
X5341991Y-13400674D02*
X5322944Y-13391150D01*
X5322944Y-13391150D02*
X5284848Y-13391150D01*
X5284848Y-13391150D02*
X5265801Y-13400674D01*
X5351515Y-13514960D02*
X5332467Y-13524484D01*
X5332467Y-13524484D02*
X5284848Y-13524484D01*
X5284848Y-13524484D02*
X5265801Y-13514960D01*
X5265801Y-13514960D02*
X5256277Y-13495912D01*
X5256277Y-13495912D02*
X5256277Y-13476865D01*
X5256277Y-13476865D02*
X5265801Y-13457817D01*
X5265801Y-13457817D02*
X5284848Y-13448293D01*
X5284848Y-13448293D02*
X5332467Y-13448293D01*
X5332467Y-13448293D02*
X5351515Y-13438769D01*
X5446753Y-13391150D02*
X5446753Y-13591150D01*
X5446753Y-13400674D02*
X5465801Y-13391150D01*
X5465801Y-13391150D02*
X5503896Y-13391150D01*
X5503896Y-13391150D02*
X5522944Y-13400674D01*
X5522944Y-13400674D02*
X5532467Y-13410198D01*
X5532467Y-13410198D02*
X5541991Y-13429246D01*
X5541991Y-13429246D02*
X5541991Y-13486388D01*
X5541991Y-13486388D02*
X5532467Y-13505436D01*
X5532467Y-13505436D02*
X5522944Y-13514960D01*
X5522944Y-13514960D02*
X5503896Y-13524484D01*
X5503896Y-13524484D02*
X5465801Y-13524484D01*
X5465801Y-13524484D02*
X5446753Y-13514960D01*
X5627705Y-13505436D02*
X5637229Y-13514960D01*
X5637229Y-13514960D02*
X5627705Y-13524484D01*
X5627705Y-13524484D02*
X5618182Y-13514960D01*
X5618182Y-13514960D02*
X5627705Y-13505436D01*
X5627705Y-13505436D02*
X5627705Y-13524484D01*
X5627705Y-13400674D02*
X5637229Y-13410198D01*
X5637229Y-13410198D02*
X5627705Y-13419722D01*
X5627705Y-13419722D02*
X5618182Y-13410198D01*
X5618182Y-13410198D02*
X5627705Y-13400674D01*
X5627705Y-13400674D02*
X5627705Y-13419722D01*
M02*
