%TF.GenerationSoftware,KiCad,Pcbnew,8.0.6*%
%TF.CreationDate,2024-11-28T17:20:23+01:00*%
%TF.ProjectId,fm-tx-LCD,666d2d74-782d-44c4-9344-2e6b69636164,rev?*%
%TF.SameCoordinates,Original*%
%TF.FileFunction,Soldermask,Top*%
%TF.FilePolarity,Negative*%
%FSLAX46Y46*%
G04 Gerber Fmt 4.6, Leading zero omitted, Abs format (unit mm)*
G04 Created by KiCad (PCBNEW 8.0.6) date 2024-11-28 17:20:23*
%MOMM*%
%LPD*%
G01*
G04 APERTURE LIST*
G04 Aperture macros list*
%AMRoundRect*
0 Rectangle with rounded corners*
0 $1 Rounding radius*
0 $2 $3 $4 $5 $6 $7 $8 $9 X,Y pos of 4 corners*
0 Add a 4 corners polygon primitive as box body*
4,1,4,$2,$3,$4,$5,$6,$7,$8,$9,$2,$3,0*
0 Add four circle primitives for the rounded corners*
1,1,$1+$1,$2,$3*
1,1,$1+$1,$4,$5*
1,1,$1+$1,$6,$7*
1,1,$1+$1,$8,$9*
0 Add four rect primitives between the rounded corners*
20,1,$1+$1,$2,$3,$4,$5,0*
20,1,$1+$1,$4,$5,$6,$7,0*
20,1,$1+$1,$6,$7,$8,$9,0*
20,1,$1+$1,$8,$9,$2,$3,0*%
G04 Aperture macros list end*
%ADD10RoundRect,0.250000X0.262500X0.450000X-0.262500X0.450000X-0.262500X-0.450000X0.262500X-0.450000X0*%
%ADD11RoundRect,0.250000X0.450000X-0.262500X0.450000X0.262500X-0.450000X0.262500X-0.450000X-0.262500X0*%
%ADD12R,1.700000X1.700000*%
%ADD13O,1.700000X1.700000*%
%ADD14RoundRect,0.140000X0.170000X-0.140000X0.170000X0.140000X-0.170000X0.140000X-0.170000X-0.140000X0*%
%ADD15RoundRect,0.140000X-0.140000X-0.170000X0.140000X-0.170000X0.140000X0.170000X-0.140000X0.170000X0*%
%ADD16RoundRect,0.140000X-0.170000X0.140000X-0.170000X-0.140000X0.170000X-0.140000X0.170000X0.140000X0*%
%ADD17C,2.000000*%
%ADD18O,2.500000X1.500000*%
%ADD19R,1.800000X1.800000*%
%ADD20C,1.800000*%
%ADD21C,3.000000*%
%ADD22R,2.000000X1.200000*%
%ADD23O,2.000000X1.200000*%
%ADD24R,2.400000X2.400000*%
%ADD25O,2.400000X2.400000*%
%ADD26RoundRect,0.140000X0.140000X0.170000X-0.140000X0.170000X-0.140000X-0.170000X0.140000X-0.170000X0*%
%ADD27R,1.600000X1.600000*%
%ADD28C,1.600000*%
%ADD29R,2.000000X2.000000*%
%ADD30RoundRect,0.250000X-0.475000X0.250000X-0.475000X-0.250000X0.475000X-0.250000X0.475000X0.250000X0*%
%ADD31R,3.500000X3.500000*%
%ADD32O,3.500000X3.500000*%
%ADD33RoundRect,0.200000X0.200000X0.275000X-0.200000X0.275000X-0.200000X-0.275000X0.200000X-0.275000X0*%
%ADD34RoundRect,0.135000X0.135000X0.185000X-0.135000X0.185000X-0.135000X-0.185000X0.135000X-0.185000X0*%
%ADD35RoundRect,0.250000X-0.450000X0.262500X-0.450000X-0.262500X0.450000X-0.262500X0.450000X0.262500X0*%
%ADD36R,3.000000X3.000000*%
G04 APERTURE END LIST*
D10*
%TO.C,R10*%
X64412500Y-77405707D03*
X62587500Y-77405707D03*
%TD*%
D11*
%TO.C,R8*%
X68580000Y-80565000D03*
X68580000Y-78740000D03*
%TD*%
D10*
%TO.C,R6*%
X70535106Y-75947531D03*
X72360106Y-75947531D03*
%TD*%
%TO.C,R1*%
X130459097Y-38025553D03*
X128634097Y-38025553D03*
%TD*%
D12*
%TO.C,SW1*%
X140970000Y-40635000D03*
D13*
X140970000Y-38095000D03*
X140970000Y-35555000D03*
X140970000Y-33015000D03*
X140970000Y-30475000D03*
%TD*%
D14*
%TO.C,C14*%
X56428201Y-118055260D03*
X56428201Y-117095260D03*
%TD*%
D15*
%TO.C,C6*%
X61750000Y-62230000D03*
X62710000Y-62230000D03*
%TD*%
D16*
%TO.C,C13*%
X56389145Y-113540756D03*
X56389145Y-114500756D03*
%TD*%
D17*
%TO.C,F1*%
X135890000Y-87630000D03*
X130810000Y-87620000D03*
%TD*%
D18*
%TO.C,U7*%
X80010000Y-116840000D03*
X80010000Y-114300000D03*
X80010000Y-111760000D03*
X80010000Y-109220000D03*
X80010000Y-106680000D03*
X80010000Y-104140000D03*
X80010000Y-101600000D03*
X80010000Y-99060000D03*
X80010000Y-96520000D03*
X80010000Y-93980000D03*
X80010000Y-91440000D03*
X95250000Y-93980000D03*
%TD*%
D19*
%TO.C,D3*%
X134500000Y-55000000D03*
D20*
X131960000Y-55000000D03*
%TD*%
D21*
%TO.C,J8*%
X53580000Y-118300000D03*
X54580000Y-110300000D03*
X49780000Y-114400000D03*
%TD*%
D22*
%TO.C,U1*%
X100330000Y-29210000D03*
D23*
X100330000Y-31750000D03*
X100330000Y-34290000D03*
X100330000Y-36830000D03*
X100330000Y-39370000D03*
X100330000Y-41910000D03*
X100330000Y-44450000D03*
X100330000Y-46990000D03*
X100330000Y-49530000D03*
X100330000Y-52070000D03*
X100330000Y-54610000D03*
X100330000Y-57150000D03*
X100330000Y-59690000D03*
X100330000Y-62230000D03*
X100330000Y-64770000D03*
X100330000Y-67310000D03*
X100330000Y-69850000D03*
X100330000Y-72390000D03*
X100330000Y-74930000D03*
X125726320Y-74927280D03*
X125726320Y-72387280D03*
X125730000Y-69850000D03*
X125730000Y-67310000D03*
X125730000Y-64770000D03*
X125730000Y-62230000D03*
X125730000Y-59690000D03*
X125730000Y-57150000D03*
X125730000Y-54610000D03*
X125730000Y-52070000D03*
X125730000Y-49530000D03*
X125730000Y-46990000D03*
X125730000Y-44450000D03*
X125730000Y-41910000D03*
X125730000Y-39370000D03*
X125730000Y-36830000D03*
X125730000Y-34290000D03*
X125730000Y-31750000D03*
X125730000Y-29210000D03*
%TD*%
D24*
%TO.C,D4*%
X140500000Y-75500000D03*
D25*
X140500000Y-79310000D03*
%TD*%
D16*
%TO.C,C10*%
X56371932Y-92390041D03*
X56371932Y-93350041D03*
%TD*%
D14*
%TO.C,C11*%
X56354705Y-96864327D03*
X56354705Y-95904327D03*
%TD*%
D21*
%TO.C,J4*%
X53580000Y-44450000D03*
X54580000Y-36450000D03*
X49780000Y-40550000D03*
%TD*%
D18*
%TO.C,U8*%
X59690000Y-115570000D03*
X59690000Y-113030000D03*
X59690000Y-110490000D03*
X59690000Y-107950000D03*
X59690000Y-105410000D03*
X59690000Y-102870000D03*
X59690000Y-100330000D03*
X59690000Y-97790000D03*
X59690000Y-95250000D03*
X59690000Y-92710000D03*
X59690000Y-90170000D03*
X74930000Y-92710000D03*
%TD*%
D12*
%TO.C,U6*%
X140970000Y-54610000D03*
D13*
X140970000Y-52070000D03*
X140970000Y-49530000D03*
X140970000Y-46990000D03*
%TD*%
D18*
%TO.C,U4*%
X74930000Y-39370000D03*
X74930000Y-41910000D03*
X74930000Y-44450000D03*
X74930000Y-46990000D03*
X74930000Y-49530000D03*
X74930000Y-52070000D03*
X74930000Y-54610000D03*
X74930000Y-57150000D03*
X74930000Y-59690000D03*
X74930000Y-62230000D03*
X74930000Y-64770000D03*
X59690000Y-62230000D03*
%TD*%
D16*
%TO.C,C8*%
X56495102Y-66911245D03*
X56495102Y-67871245D03*
%TD*%
D14*
%TO.C,C15*%
X74930000Y-90665164D03*
X74930000Y-89705164D03*
%TD*%
D26*
%TO.C,C12*%
X92880550Y-93969266D03*
X91920550Y-93969266D03*
%TD*%
D27*
%TO.C,C3*%
X133350000Y-75067349D03*
D28*
X133350000Y-80067349D03*
%TD*%
D27*
%TO.C,C2*%
X133350000Y-64907349D03*
D28*
X133350000Y-69907349D03*
%TD*%
D21*
%TO.C,J7*%
X53580000Y-97300000D03*
X54580000Y-89300000D03*
X49780000Y-93400000D03*
%TD*%
D17*
%TO.C,FL1*%
X100800000Y-82880000D03*
X100800000Y-97880000D03*
D29*
X125800000Y-97880000D03*
D17*
X125800000Y-82880000D03*
%TD*%
D16*
%TO.C,C4*%
X56786683Y-39286646D03*
X56786683Y-40246646D03*
%TD*%
D14*
%TO.C,C7*%
X56653865Y-53325000D03*
X56653865Y-52365000D03*
%TD*%
D19*
%TO.C,D2*%
X134500000Y-44750000D03*
D20*
X131960000Y-44750000D03*
%TD*%
D12*
%TO.C,J3*%
X140970000Y-68570000D03*
D13*
X140970000Y-66030000D03*
X140970000Y-63490000D03*
X140970000Y-60950000D03*
%TD*%
D29*
%TO.C,U3*%
X96520000Y-82462700D03*
D17*
X93980000Y-82462700D03*
X91440000Y-82462700D03*
X88900000Y-82462700D03*
X86360000Y-82462700D03*
X83820000Y-82462700D03*
X83820000Y-72302700D03*
X86360000Y-72302700D03*
X88900000Y-72302700D03*
X91440000Y-72302700D03*
X93980000Y-72302700D03*
X96520000Y-72302700D03*
%TD*%
D14*
%TO.C,C5*%
X56756407Y-44144421D03*
X56756407Y-43184421D03*
%TD*%
D30*
%TO.C,C1*%
X134620000Y-98110000D03*
X134620000Y-100010000D03*
%TD*%
D21*
%TO.C,J6*%
X53580000Y-65150000D03*
X54580000Y-57150000D03*
X49780000Y-61250000D03*
%TD*%
D19*
%TO.C,D1*%
X134620000Y-34000000D03*
D20*
X132080000Y-34000000D03*
%TD*%
D31*
%TO.C,J1*%
X139700000Y-95250000D03*
D32*
X139700000Y-100330000D03*
%TD*%
D23*
%TO.C,U2*%
X100970000Y-124120000D03*
X100970000Y-105920000D03*
X140970000Y-124120000D03*
X140970000Y-105920000D03*
%TD*%
D18*
%TO.C,U5*%
X95250000Y-38100000D03*
X95250000Y-40640000D03*
X95250000Y-43180000D03*
X95250000Y-45720000D03*
X95250000Y-48260000D03*
X95250000Y-50800000D03*
X95250000Y-53340000D03*
X95250000Y-55880000D03*
X95250000Y-58420000D03*
X95250000Y-60960000D03*
X95250000Y-63500000D03*
X80010000Y-60960000D03*
%TD*%
D33*
%TO.C,R2*%
X135445000Y-39370000D03*
X133795000Y-39370000D03*
%TD*%
%TO.C,R3*%
X134175000Y-50800000D03*
X132525000Y-50800000D03*
%TD*%
D12*
%TO.C,J2*%
X95250000Y-29210000D03*
D13*
X92710000Y-29210000D03*
%TD*%
D34*
%TO.C,R5*%
X66879743Y-76821357D03*
X65859743Y-76821357D03*
%TD*%
D16*
%TO.C,C9*%
X80010000Y-63020000D03*
X80010000Y-63980000D03*
%TD*%
D35*
%TO.C,R4*%
X68580000Y-74301704D03*
X68580000Y-76126704D03*
%TD*%
D34*
%TO.C,R9*%
X66879743Y-78004628D03*
X65859743Y-78004628D03*
%TD*%
D21*
%TO.C,J5*%
X54942967Y-77488062D03*
D36*
X59042967Y-81588062D03*
X59042967Y-73488062D03*
X50842967Y-81588062D03*
X50842967Y-73488062D03*
%TD*%
D10*
%TO.C,R7*%
X72345918Y-78877061D03*
X70520918Y-78877061D03*
%TD*%
M02*
